<?xml version="1.0" encoding="utf-8"?>
<!-- Generator: Adobe Illustrator 27.5.0, SVG Export Plug-In . SVG Version: 6.00 Build 0)  -->
<svg version="1.1" xmlns="http://www.w3.org/2000/svg" xmlns:xlink="http://www.w3.org/1999/xlink" x="0px" y="0px"
	 viewBox="0 0 3710 3710" style="enable-background:new 0 0 3710 3710;" xml:space="preserve">
<g id="Background">
	<g>
		<g>
			<rect style="fill:#FFFFFF;" width="3710" height="3710"/>
		</g>
	</g>
</g>
<g id="Illustration">
	<g>
		<linearGradient id="SVGID_1_" gradientUnits="userSpaceOnUse" x1="3598.125" y1="3528.8279" x2="1466.851" y2="1616.9479">
			<stop  offset="0" style="stop-color:#B37CFF"/>
			<stop  offset="1" style="stop-color:#F895E7"/>
		</linearGradient>
		<path style="opacity:0.3;fill:url(#SVGID_1_);" d="M2887.905,2867.055c-71.736,73.943-135.923,117.409-185.067,150.223
			c-479.29,320.026-1027.17,227.787-1196.561,196.26c-273.292-50.865-503.987-86.749-702.196-265.822
			c-450.391-406.91-428.484-1255.755-84.331-1781.577c40.806-62.347,384.439-571.717,933.505-643.492
			c13.429-1.755,23.449-2.755,32.226-3.684c84.939-8.993,611.291-56.457,1040.479,303.116
			c61.436,51.471,160.305,144.312,251.988,285.909C3313.182,1625.731,3314.244,2427.602,2887.905,2867.055z"/>
		<g>
			<g>
				<g style="opacity:0.3;">
					
						<linearGradient id="SVGID_00000140015035561513032130000016170252619697538981_" gradientUnits="userSpaceOnUse" x1="916.6216" y1="-330.0016" x2="1484.9814" y2="-330.0016" gradientTransform="matrix(0.9343 0.3565 -0.3565 0.9343 6.3615 530.429)">
						<stop  offset="0" style="stop-color:#B37CFF"/>
						<stop  offset="1" style="stop-color:#F895E7"/>
					</linearGradient>
					<path style="fill:url(#SVGID_00000140015035561513032130000016170252619697538981_);" d="M911.619,762.794
						c-4.705-1.796-7.39-6.894-6.065-11.867c2.894-10.877,6.307-21.79,10.137-32.434c1.864-5.179,7.572-7.867,12.75-6.003
						c0.062,0.024,0.122,0.046,0.182,0.069c5.058,1.93,7.662,7.565,5.82,12.682c-3.641,10.113-6.88,20.479-9.631,30.811
						c-1.414,5.317-6.874,8.483-12.193,7.066C912.276,763.028,911.943,762.918,911.619,762.794z M943.167,681.923
						c-0.364-0.139-0.725-0.301-1.079-0.486c-4.875-2.552-6.76-8.574-4.208-13.45c5.244-10.014,10.968-19.903,17.012-29.39
						c2.957-4.642,9.091-6.004,13.759-3.052c4.641,2.958,6.004,9.119,3.049,13.757c-5.745,9.019-11.182,18.413-16.164,27.931
						C953.17,681.753,947.82,683.698,943.167,681.923z M991.738,610.01c-1.036-0.395-2.024-0.973-2.917-1.734
						c-4.183-3.575-4.68-9.864-1.107-14.049c7.323-8.579,15.114-16.946,23.153-24.868c3.923-3.861,10.229-3.808,14.092,0.103
						c3.862,3.919,3.816,10.23-0.103,14.092c-7.634,7.523-15.029,15.466-21.986,23.613
						C1000.058,610.46,995.563,611.469,991.738,610.01z M1055.182,550.75c-1.713-0.654-3.265-1.788-4.439-3.369
						c-3.28-4.418-2.356-10.66,2.062-13.94c9.066-6.726,18.53-13.143,28.13-19.07c4.681-2.884,10.818-1.433,13.713,3.246
						c2.89,4.682,1.436,10.821-3.246,13.713c-9.117,5.628-18.108,11.72-26.72,18.116
						C1061.844,551.551,1058.257,551.923,1055.182,550.75z M1130.247,507.127c-2.402-0.917-4.45-2.756-5.566-5.295
						c-2.219-5.038,0.067-10.918,5.104-13.134c10.305-4.537,20.952-8.698,31.64-12.36c5.204-1.789,10.873,0.983,12.658,6.192
						c1.784,5.205-0.989,10.871-6.195,12.659c-10.16,3.48-20.278,7.435-30.072,11.746
						C1135.316,508.037,1132.61,508.029,1130.247,507.127z M1213.086,481.198c-3.111-1.187-5.557-3.904-6.239-7.413
						c-1.048-5.403,2.48-10.631,7.882-11.682c11.071-2.149,22.375-3.851,33.592-5.053c5.475-0.586,10.383,3.375,10.969,8.848
						c0.587,5.469-3.374,10.381-8.845,10.968c-10.66,1.143-21.397,2.758-31.917,4.801
						C1216.635,482.036,1214.765,481.839,1213.086,481.198z M1562.677,589.211c-1.289-0.492-2.494-1.26-3.526-2.304
						c-7.526-7.613-15.487-15-23.661-21.952c-4.191-3.565-4.699-9.854-1.134-14.043c3.564-4.193,9.853-4.701,14.046-1.135
						c8.609,7.322,16.995,15.101,24.921,23.116c3.87,3.914,3.833,10.224-0.08,14.092
						C1570.374,589.824,1566.215,590.562,1562.677,589.211z M1299.556,474.277c-3.862-1.474-6.547-5.273-6.405-9.635
						c0.179-5.502,4.783-9.815,10.282-9.637c11.273,0.365,22.668,1.227,33.868,2.559c5.46,0.675,9.37,5.604,8.719,11.072
						c-0.65,5.464-5.607,9.367-11.073,8.718c-10.636-1.267-21.456-2.084-32.161-2.432
						C1301.649,474.884,1300.562,474.66,1299.556,474.277z M1495.078,534.761c-0.615-0.234-1.216-0.531-1.793-0.897
						c-9.045-5.739-18.46-11.16-27.978-16.121c-4.88-2.546-6.774-8.563-4.232-13.442c2.545-4.878,8.569-6.799,13.442-4.231
						c10.014,5.221,19.921,10.926,29.44,16.962c4.647,2.948,6.026,9.107,3.078,13.752
						C1504.456,534.854,1499.412,536.416,1495.078,534.761z M1385.404,486.844c-4.698-1.793-7.384-6.88-6.071-11.848
						c1.406-5.321,6.858-8.494,12.18-7.092c10.893,2.878,21.81,6.265,32.443,10.072c0.066,0.021,0.134,0.047,0.199,0.072
						c5.051,1.927,7.655,7.55,5.826,12.663c-1.855,5.183-7.557,7.881-12.739,6.025c-10.101-3.613-20.47-6.828-30.821-9.562
						C1386.075,487.079,1385.733,486.97,1385.404,486.844z"/>
					
						<linearGradient id="SVGID_00000146484441008055263080000003877861420334582928_" gradientUnits="userSpaceOnUse" x1="1512.6095" y1="-479.6903" x2="1545.8027" y2="-479.6903" gradientTransform="matrix(0.9343 0.3565 -0.3565 0.9343 6.3615 530.429)">
						<stop  offset="0" style="stop-color:#B37CFF"/>
						<stop  offset="1" style="stop-color:#F895E7"/>
					</linearGradient>
					<path style="fill:url(#SVGID_00000146484441008055263080000003877861420334582928_);" d="M1607.168,643.213
						c-1.833-0.699-3.48-1.944-4.67-3.69c-2.894-4.245-5.926-8.498-9.009-12.649c-3.283-4.415-2.365-10.659,2.051-13.94
						c4.416-3.285,10.664-2.371,13.941,2.054c3.245,4.363,6.432,8.837,9.479,13.303c3.1,4.545,1.929,10.747-2.615,13.846
						C1613.543,644.05,1610.114,644.337,1607.168,643.213z"/>
				</g>
				<g style="opacity:0.3;">
					
						<linearGradient id="SVGID_00000005252143014964505160000014457382041454998434_" gradientUnits="userSpaceOnUse" x1="1684.8944" y1="-226.0455" x2="1707.6718" y2="-226.0455" gradientTransform="matrix(0.9343 0.3565 -0.3565 0.9343 6.3615 530.429)">
						<stop  offset="0" style="stop-color:#B37CFF"/>
						<stop  offset="1" style="stop-color:#F895E7"/>
					</linearGradient>
					<path style="fill:url(#SVGID_00000005252143014964505160000014457382041454998434_);" d="M1666.754,941.099
						c-4.493-1.715-7.204-6.482-6.192-11.341c1.05-5.028,2.012-10.164,2.857-15.261c0.901-5.43,6.033-9.1,11.461-8.2
						c5.452,0.906,9.1,6.035,8.199,11.461c-0.892,5.367-1.904,10.775-3.008,16.07c-1.124,5.387-6.403,8.842-11.79,7.72
						C1667.753,941.439,1667.243,941.286,1666.754,941.099z"/>
					
						<linearGradient id="SVGID_00000047745973986398158330000010574839615751377297_" gradientUnits="userSpaceOnUse" x1="1127.1152" y1="33.0399" x2="1712.5387" y2="33.0399" gradientTransform="matrix(0.9343 0.3565 -0.3565 0.9343 6.3615 530.429)">
						<stop  offset="0" style="stop-color:#B37CFF"/>
						<stop  offset="1" style="stop-color:#F895E7"/>
					</linearGradient>
					<path style="fill:url(#SVGID_00000047745973986398158330000010574839615751377297_);" d="M1148.797,1224.848
						c-4.283-1.635-8.556-3.348-12.815-5.14c-5.072-2.135-7.455-7.977-5.321-13.049c2.134-5.072,8.008-7.464,13.049-5.323
						c9.831,4.135,19.806,7.862,29.766,11.113c5.233,1.718,8.088,7.331,6.382,12.563c-1.708,5.235-7.335,8.091-12.566,6.383
						C1161.13,1229.384,1154.908,1227.18,1148.797,1224.848z M1088.998,1196.042c-0.52-0.198-1.032-0.444-1.529-0.738
						c-9.571-5.656-19.009-11.782-28.049-18.207c-4.485-3.186-5.538-9.408-2.352-13.891c3.189-4.486,9.424-5.548,13.895-2.35
						c8.587,6.101,17.553,11.918,26.647,17.297c4.737,2.799,6.307,8.91,3.508,13.645
						C1098.61,1196.04,1093.451,1197.742,1088.998,1196.042z M1218.148,1244.168c-4.389-1.675-7.107-6.282-6.244-11.073
						c0.978-5.418,6.16-9.014,11.577-8.039c10.359,1.871,20.94,3.321,31.453,4.308c5.478,0.524,9.503,5.376,8.988,10.854
						c-0.517,5.481-5.377,9.504-10.856,8.989c-11.07-1.041-22.214-2.57-33.124-4.537
						C1219.318,1244.556,1218.719,1244.386,1218.148,1244.168z M1020.679,1144.729c-1.182-0.451-2.294-1.138-3.272-2.057
						c-8.086-7.614-15.945-15.667-23.357-23.931c-3.673-4.097-3.33-10.394,0.767-14.068c4.099-3.677,10.395-3.336,14.07,0.766
						c7.038,7.847,14.499,15.494,22.18,22.724c4.008,3.771,4.196,10.079,0.424,14.084
						C1028.64,1145.276,1024.339,1146.126,1020.679,1144.729z M1303.324,1249.926c-3.6-1.374-6.227-4.784-6.405-8.881
						c-0.239-5.498,4.025-10.15,9.524-10.389c10.511-0.454,21.152-1.369,31.628-2.712c5.458-0.7,10.452,3.156,11.151,8.617
						c0.698,5.457-3.157,10.447-8.615,11.147c-11.028,1.416-22.231,2.377-33.3,2.857
						C1305.906,1250.628,1304.557,1250.396,1303.324,1249.926z M1387.704,1236.854c-2.878-1.098-5.208-3.512-6.074-6.713
						c-1.434-5.313,1.709-10.784,7.022-12.218c10.189-2.753,20.38-5.967,30.29-9.551c5.173-1.88,10.884,0.796,12.76,5.978
						c1.872,5.176-0.805,10.887-5.98,12.762c-10.43,3.772-21.154,7.154-31.876,10.049
						C1391.738,1237.73,1389.603,1237.578,1387.704,1236.854z M1467.227,1205.697c-2.189-0.835-4.093-2.441-5.267-4.68
						c-2.557-4.871-0.679-10.895,4.194-13.452c9.355-4.908,18.603-10.261,27.49-15.918c4.641-2.953,10.797-1.591,13.756,3.058
						c2.953,4.643,1.586,10.8-3.058,13.756c-9.352,5.95-19.086,11.588-28.928,16.752
						C1472.777,1206.594,1469.805,1206.681,1467.227,1205.697z M1538.057,1157.942c-1.517-0.579-2.911-1.536-4.037-2.861
						c-3.561-4.196-3.045-10.482,1.151-14.042c8.051-6.83,15.898-14.08,23.328-21.552c3.88-3.902,10.196-3.917,14.091-0.043
						c3.904,3.881,3.921,10.191,0.04,14.092c-7.825,7.87-16.09,15.506-24.565,22.696
						C1545.192,1158.669,1541.342,1159.196,1538.057,1157.942z M1596.698,1095.779c-0.853-0.325-1.674-0.776-2.44-1.352
						c-4.397-3.307-5.281-9.555-1.973-13.951c6.33-8.416,12.384-17.212,17.995-26.153c2.926-4.661,9.089-6.055,13.736-3.14
						c4.662,2.925,6.068,9.077,3.141,13.739c-5.907,9.41-12.281,18.672-18.946,27.531
						C1605.48,1096.084,1600.741,1097.322,1596.698,1095.779z M1640.22,1022.301c-0.191-0.073-0.381-0.154-0.569-0.238
						c-5.012-2.271-7.234-8.176-4.962-13.187c3.206-7.076,6.231-14.332,8.996-21.576c1-2.622,1.969-5.252,2.907-7.881
						c1.851-5.184,7.553-7.887,12.734-6.035c5.284,1.771,7.884,7.55,6.036,12.731c-0.988,2.769-2.006,5.529-3.059,8.289
						c-2.907,7.618-6.092,15.256-9.465,22.697C1650.654,1021.925,1645.102,1024.164,1640.22,1022.301z"/>
					
						<linearGradient id="SVGID_00000166648495705631996260000008697830530850996384_" gradientUnits="userSpaceOnUse" x1="1068.7628" y1="156.4235" x2="1101.5326" y2="156.4235" gradientTransform="matrix(0.9343 0.3565 -0.3565 0.9343 6.3615 530.429)">
						<stop  offset="0" style="stop-color:#B37CFF"/>
						<stop  offset="1" style="stop-color:#F895E7"/>
					</linearGradient>
					<path style="fill:url(#SVGID_00000166648495705631996260000008697830530850996384_);" d="M965.208,1079.431
						c-1.851-0.706-3.509-1.968-4.701-3.731c-3.018-4.472-5.998-9.092-8.857-13.732c-2.888-4.685-1.432-10.824,3.253-13.711
						c4.686-2.886,10.822-1.436,13.711,3.253c2.717,4.407,5.548,8.796,8.412,13.042c3.079,4.558,1.878,10.752-2.684,13.831
						C971.545,1080.27,968.135,1080.548,965.208,1079.431z"/>
				</g>
				<g>
					
						<linearGradient id="SVGID_00000070105232674598179550000005880191022386126780_" gradientUnits="userSpaceOnUse" x1="2664.1157" y1="432.8416" x2="575.9323" y2="-483.9201" gradientTransform="matrix(0.9343 0.3565 -0.3565 0.9343 6.3615 530.429)">
						<stop  offset="0" style="stop-color:#A737D5"/>
						<stop  offset="1" style="stop-color:#EF497A"/>
					</linearGradient>
					<path style="fill:url(#SVGID_00000070105232674598179550000005880191022386126780_);" d="M1018.975,976.245
						c0.625,1.885,2.377,3.168,4.364,3.192l56.677,0.689c13.835,22.567,31.368,43.091,52.28,60.548l-7.536,56.141
						c-0.265,1.97,0.75,3.889,2.525,4.781l60.754,30.519c1.776,0.891,3.922,0.558,5.343-0.828l40.538-39.564
						c26.49,6.353,53.422,8.166,79.785,5.791l34.391,45.056c1.205,1.579,3.28,2.22,5.166,1.595l64.539-21.38
						c1.887-0.625,3.169-2.378,3.192-4.364l0.689-56.677c22.567-13.835,43.09-31.369,60.547-52.281l56.142,7.536
						c1.969,0.265,3.889-0.749,4.781-2.525l30.519-60.755c0.892-1.775,0.559-3.921-0.829-5.343l-39.564-40.538
						c6.354-26.49,8.167-53.421,5.791-79.785l45.057-34.392c1.578-1.205,2.219-3.28,1.595-5.166l-21.381-64.539
						c-0.624-1.887-2.377-3.168-4.364-3.193l-56.677-0.689c-13.834-22.568-31.368-43.091-52.28-60.548l7.537-56.142
						c0.264-1.969-0.749-3.889-2.525-4.781l-60.755-30.518c-1.775-0.893-3.921-0.559-5.343,0.829l-40.538,39.564
						c-26.49-6.354-53.422-8.166-79.785-5.791l-34.391-45.056c-1.205-1.58-3.281-2.22-5.166-1.596l-64.539,21.381
						c-1.886,0.625-3.168,2.377-3.193,4.364l-0.689,56.677c-22.567,13.835-43.09,31.369-60.547,52.281l-56.142-7.536
						c-1.968-0.265-3.889,0.75-4.78,2.526l-30.518,60.754c-0.892,1.776-0.56,3.921,0.828,5.344l39.564,40.538
						c-6.353,26.489-8.166,53.421-5.791,79.785l-45.056,34.391c-1.58,1.205-2.22,3.279-1.596,5.166L1018.975,976.245z"/>
					<path style="opacity:0.56;fill:#FFFFFF;" d="M1267.249,913.939c-31.124-11.877-49.732-45.161-42.311-78.632
						c8.16-36.792,44.726-60.083,81.516-51.926c17.826,3.948,33.04,14.608,42.844,30.002c9.808,15.395,13.034,33.69,9.08,51.512
						c-8.16,36.792-44.726,60.082-81.515,51.926C1273.546,916.084,1270.335,915.117,1267.249,913.939z M1310.447,801.177
						c-2.404-0.917-4.887-1.665-7.445-2.233c-28.206-6.256-56.244,11.607-62.499,39.811c-6.255,28.208,11.595,56.254,39.812,62.501
						c28.206,6.256,56.244-11.607,62.499-39.811c3.03-13.667,0.558-27.691-6.962-39.497
						C1329.74,812.356,1320.885,805.161,1310.447,801.177z"/>
					<path style="opacity:0.56;fill:#FFFFFF;" d="M1233.363,1006.658c-5.345-2.04-10.62-4.36-15.802-6.963l0,0
						c-1.631-0.818-3.25-1.665-4.854-2.536c-7.911-4.298-15.467-9.218-22.552-14.684c-0.097-0.074-0.193-0.149-0.29-0.223
						c-0.273-0.213-0.546-0.425-0.818-0.641c-0.531-0.415-1.057-0.837-1.582-1.258c-1.38-1.11-1.826-2.951-1.228-4.522
						c0.146-0.382,0.354-0.748,0.624-1.083c1.38-1.715,3.888-1.978,5.603-0.603c8.823,7.104,18.47,13.302,28.676,18.425
						c50.682,25.469,108.6,21.375,154.039-5.729c25.276-15.072,46.689-37.266,60.848-65.458c2.484-4.943,4.7-9.975,6.644-15.075
						c13.09-34.315,13.974-71.776,2.267-107.109c-13.444-40.587-41.891-73.51-80.096-92.701
						c-78.909-39.627-175.272-7.681-214.887,71.186c-2.443,4.863-4.63,9.831-6.556,14.883c-8.349,21.89-11.815,45.363-10.068,68.747
						c0.045,0.604-0.046,1.186-0.25,1.717c-0.533,1.396-1.836,2.436-3.427,2.554c-2.197,0.157-4.111-1.477-4.272-3.68
						c-1.834-24.55,1.803-49.196,10.568-72.176c2.021-5.303,4.318-10.517,6.88-15.622c41.593-82.804,142.816-116.312,225.59-74.735
						c40.11,20.147,69.971,54.709,84.085,97.319c12.291,37.093,11.363,76.421-2.378,112.445c-2.043,5.353-4.369,10.635-6.973,15.823
						c-20.15,40.112-54.711,69.974-97.319,84.09C1308.73,1021.342,1269.393,1020.407,1233.363,1006.658z"/>
				</g>
			</g>
			<g>
				<g style="opacity:0.3;">
					
						<linearGradient id="SVGID_00000106139864070351872900000001464009191124319930_" gradientUnits="userSpaceOnUse" x1="578.5332" y1="143.3531" x2="594.7328" y2="143.3531" gradientTransform="matrix(0.9343 0.3565 -0.3565 0.9343 6.3615 530.429)">
						<stop  offset="0" style="stop-color:#B37CFF"/>
						<stop  offset="1" style="stop-color:#F895E7"/>
					</linearGradient>
					<path style="fill:url(#SVGID_00000106139864070351872900000001464009191124319930_);" d="M500.313,886.894
						c-2.487-0.949-4.16-3.446-3.937-6.237c0.412-5.208,0.987-10.476,1.712-15.654c0.471-3.365,3.578-5.71,6.947-5.242
						c3.373,0.458,5.712,3.582,5.242,6.947c-0.69,4.935-1.239,9.955-1.633,14.925c-0.266,3.385-3.231,5.913-6.621,5.65
						C501.422,887.234,500.849,887.099,500.313,886.894z"/>
					
						<linearGradient id="SVGID_00000093855023826162974390000011914655477751984784_" gradientUnits="userSpaceOnUse" x1="571.9762" y1="-38.6381" x2="889.4886" y2="-38.6381" gradientTransform="matrix(0.9343 0.3565 -0.3565 0.9343 6.3615 530.429)">
						<stop  offset="0" style="stop-color:#B37CFF"/>
						<stop  offset="1" style="stop-color:#F895E7"/>
					</linearGradient>
					<path style="fill:url(#SVGID_00000093855023826162974390000011914655477751984784_);" d="M508.366,840.243
						c-2.914-1.112-4.571-4.272-3.742-7.346c2.337-8.687,5.148-17.353,8.354-25.753c0.675-1.769,1.372-3.535,2.088-5.302
						c1.283-3.151,4.994-4.482,8.02-3.392c3.149,1.279,4.665,4.868,3.39,8.016c-0.685,1.688-1.353,3.376-1.998,5.066
						c-3.058,8.013-5.739,16.278-7.97,24.561c-0.883,3.285-4.258,5.226-7.541,4.346C508.761,840.38,508.56,840.317,508.366,840.243z
						 M532.407,781.036c-0.272-0.104-0.544-0.227-0.804-0.371c-2.971-1.655-4.04-5.402-2.389-8.373
						c5.297-9.532,11.235-18.82,17.643-27.599c2.004-2.748,5.865-3.333,8.599-1.343c2.746,2.007,3.347,5.851,1.344,8.598
						c-6.114,8.378-11.775,17.237-16.83,26.327C538.465,780.982,535.22,782.11,532.407,781.036z M570.087,729.429
						c-0.73-0.279-1.417-0.702-2.022-1.267c-2.476-2.328-2.591-6.225-0.263-8.701c7.463-7.927,15.504-15.479,23.902-22.431
						c2.62-2.172,6.489-1.808,8.665,0.817c2.167,2.615,1.802,6.497-0.813,8.663c-8.008,6.632-15.674,13.826-22.79,21.389
						C575.004,729.768,572.347,730.291,570.087,729.429z M619.303,688.662c-1.191-0.454-2.248-1.282-2.989-2.434
						c-1.827-2.865-0.988-6.674,1.877-8.502c9.197-5.869,18.834-11.216,28.655-15.896c3.069-1.46,6.741-0.149,8.201,2.911
						c1.464,3.067,0.162,6.739-2.909,8.204c-9.359,4.457-18.556,9.56-27.324,15.156
						C623.105,689.193,621.063,689.333,619.303,688.662z M676.982,661.153c-1.662-0.634-3.039-1.983-3.647-3.804
						c-1.076-3.221,0.665-6.706,3.888-7.786c10.335-3.448,20.98-6.294,31.639-8.453c3.336-0.683,6.581,1.476,7.255,4.808
						c0.674,3.332-1.479,6.582-4.808,7.254c-10.172,2.062-20.326,4.775-30.186,8.069
						C679.719,661.708,678.265,661.642,676.982,661.153z M739.581,648.477c-2.153-0.822-3.755-2.829-3.944-5.282
						c-0.261-3.387,2.276-6.342,5.664-6.606c10.862-0.834,21.879-0.998,32.74-0.482c3.404,0.173,6.015,3.048,5.856,6.442
						c-0.16,3.393-3.046,6.016-6.438,5.854c-10.359-0.492-20.858-0.337-31.213,0.459
						C741.307,648.937,740.404,648.792,739.581,648.477z M803.363,651.492c-2.695-1.028-4.375-3.85-3.865-6.795
						c0.58-3.349,3.765-5.594,7.115-5.017c10.699,1.851,21.422,4.399,31.874,7.57c3.242,1.044,5.089,4.432,4.099,7.682
						c-0.987,3.252-4.424,5.086-7.676,4.102c-9.969-3.032-20.196-5.461-30.397-7.225
						C804.112,651.739,803.728,651.631,803.363,651.492z M892.912,684.828c-0.331-0.126-0.66-0.284-0.977-0.475
						c-7.695-4.615-15.777-8.89-24.025-12.706c-1.246-0.585-2.477-1.145-3.711-1.687c-3.109-1.379-4.515-5.01-3.139-8.119
						c1.373-3.117,5.066-4.602,8.118-3.142c1.314,0.585,2.623,1.175,3.93,1.789c8.616,3.989,17.089,8.47,25.157,13.312
						c2.916,1.75,3.861,5.526,2.112,8.442C898.821,684.838,895.65,685.873,892.912,684.828z"/>
				</g>
				<g style="opacity:0.3;">
					
						<linearGradient id="SVGID_00000021093180286029957610000017099979693205953707_" gradientUnits="userSpaceOnUse" x1="713.6688" y1="265.7424" x2="1076.0559" y2="265.7424" gradientTransform="matrix(0.9343 0.3565 -0.3565 0.9343 6.3615 530.429)">
						<stop  offset="0" style="stop-color:#B37CFF"/>
						<stop  offset="1" style="stop-color:#F895E7"/>
					</linearGradient>
					<path style="fill:url(#SVGID_00000021093180286029957610000017099979693205953707_);" d="M670.032,1151.287
						c-3.139-1.198-4.741-4.704-3.581-7.87c1.169-3.189,4.706-4.83,7.896-3.658c9.607,3.524,19.51,6.493,29.435,8.82
						c3.281,0.801,5.366,4.086,4.587,7.398c-0.778,3.312-4.091,5.361-7.398,4.587c-10.407-2.447-20.791-5.554-30.86-9.248
						C670.085,1151.308,670.057,1151.297,670.032,1151.287z M641.178,1138.688c-0.208-0.079-0.408-0.169-0.61-0.272
						c-9.546-4.865-18.892-10.361-27.781-16.333c-2.82-1.899-3.572-5.718-1.675-8.539c1.896-2.828,5.731-3.557,8.541-1.681
						c8.481,5.7,17.4,10.943,26.507,15.589c3.028,1.541,4.23,5.249,2.687,8.275C647.402,1138.56,644.075,1139.793,641.178,1138.688z
						 M731.212,1165.628c-2.549-0.973-4.228-3.569-3.922-6.411c0.364-3.374,3.397-5.818,6.778-5.455
						c10.181,1.093,20.509,1.58,30.708,1.438c3.405-0.032,6.192,2.672,6.235,6.072c0.049,3.396-2.671,6.192-6.07,6.239
						c-10.69,0.147-21.52-0.364-32.19-1.515C732.21,1165.938,731.695,1165.812,731.212,1165.628z M589.013,1103.587
						c-0.654-0.25-1.276-0.615-1.838-1.1c-8.101-7.022-15.85-14.617-23.026-22.572c-2.279-2.523-2.077-6.415,0.446-8.694
						c2.519-2.268,6.411-2.069,8.69,0.448c6.845,7.584,14.231,14.822,21.954,21.52c2.566,2.227,2.844,6.115,0.617,8.682
						C594.116,1103.875,591.36,1104.482,589.013,1103.587z M794.04,1164.754c-2.035-0.777-3.596-2.613-3.909-4.92
						c-0.46-3.372,1.9-6.473,5.266-6.932c10.119-1.375,20.259-3.385,30.143-5.982c3.293-0.866,6.654,1.105,7.516,4.393
						c0.862,3.288-1.105,6.654-4.392,7.516c-10.364,2.716-20.996,4.828-31.605,6.273
						C796.001,1165.245,794.969,1165.108,794.04,1164.754z M854.826,1148.833c-1.558-0.594-2.868-1.815-3.531-3.483
						c-1.252-3.16,0.294-6.738,3.454-7.99c9.519-3.772,18.891-8.153,27.852-13.019c2.991-1.625,6.729-0.514,8.346,2.471
						c1.623,2.987,0.516,6.72-2.469,8.34c-9.397,5.104-19.221,9.699-29.195,13.651
						C857.797,1149.393,856.213,1149.362,854.826,1148.833z M910.053,1118.805c-1.095-0.418-2.083-1.149-2.812-2.179
						c-1.974-2.767-1.327-6.611,1.442-8.584c8.34-5.933,16.385-12.435,23.912-19.321c2.506-2.286,6.401-2.118,8.693,0.391
						c2.294,2.509,2.122,6.399-0.389,8.696c-7.894,7.216-16.331,14.038-25.076,20.266
						C914.079,1119.313,911.912,1119.514,910.053,1118.805z"/>
					
						<linearGradient id="SVGID_00000081613092906945746620000004708599307797641912_" gradientUnits="userSpaceOnUse" x1="673.8326" y1="288.4034" x2="698.6161" y2="288.4034" gradientTransform="matrix(0.9343 0.3565 -0.3565 0.9343 6.3615 530.429)">
						<stop  offset="0" style="stop-color:#B37CFF"/>
						<stop  offset="1" style="stop-color:#F895E7"/>
					</linearGradient>
					<path style="fill:url(#SVGID_00000081613092906945746620000004708599307797641912_);" d="M546.712,1056.69
						c-1.109-0.423-2.107-1.171-2.84-2.216c-3.024-4.313-5.933-8.735-8.651-13.143c-1.781-2.893-0.884-6.686,2.01-8.471
						c2.893-1.771,6.681-0.879,8.471,2.01c2.59,4.205,5.367,8.423,8.25,12.54c1.951,2.783,1.274,6.623-1.508,8.571
						C550.705,1057.198,548.556,1057.394,546.712,1056.69z"/>
				</g>
				<g>
					
						<linearGradient id="SVGID_00000018936528100066978770000000359819301571444359_" gradientUnits="userSpaceOnUse" x1="2500.2837" y1="805.4315" x2="412.102" y2="-111.3293" gradientTransform="matrix(0.9343 0.3565 -0.3565 0.9343 6.3615 530.429)">
						<stop  offset="0" style="stop-color:#A737D5"/>
						<stop  offset="1" style="stop-color:#EF497A"/>
					</linearGradient>
					<path style="fill:url(#SVGID_00000018936528100066978770000000359819301571444359_);" d="M579.837,984.235
						c0.418,1.261,1.591,2.12,2.92,2.136l37.926,0.461c9.258,15.1,20.99,28.834,34.983,40.516l-5.042,37.567
						c-0.177,1.318,0.502,2.602,1.689,3.199l40.654,20.422c1.189,0.597,2.624,0.374,3.576-0.554l27.126-26.475
						c17.726,4.251,35.747,5.465,53.389,3.875l23.013,30.15c0.807,1.056,2.195,1.485,3.458,1.067l43.187-14.307
						c1.263-0.419,2.12-1.591,2.136-2.92l0.461-37.925c15.101-9.257,28.835-20.99,40.516-34.984l37.567,5.043
						c1.318,0.177,2.602-0.502,3.199-1.689l20.421-40.655c0.597-1.188,0.374-2.624-0.555-3.575l-26.474-27.127
						c4.252-17.726,5.465-35.747,3.875-53.388l30.15-23.014c1.056-0.806,1.485-2.195,1.067-3.456l-14.307-43.187
						c-0.418-1.262-1.591-2.12-2.92-2.136l-37.926-0.461c-9.257-15.101-20.99-28.834-34.983-40.516l5.043-37.568
						c0.177-1.317-0.501-2.602-1.689-3.199l-40.655-20.422c-1.188-0.597-2.623-0.374-3.575,0.555l-27.126,26.475
						c-17.726-4.252-35.748-5.465-53.389-3.875l-23.012-30.149c-0.807-1.057-2.196-1.486-3.457-1.068l-43.187,14.307
						c-1.262,0.418-2.12,1.591-2.136,2.92l-0.462,37.925c-15.101,9.257-28.834,20.99-40.515,34.984l-37.568-5.044
						c-1.316-0.177-2.602,0.502-3.198,1.69l-20.422,40.653c-0.596,1.189-0.374,2.624,0.554,3.576l26.474,27.126
						c-4.251,17.726-5.465,35.747-3.876,53.388l-30.149,23.013c-1.057,0.807-1.485,2.195-1.068,3.457L579.837,984.235z"/>
					<path style="opacity:0.56;fill:#FFFFFF;" d="M745.613,943.289c-9.276-3.54-17.142-9.931-22.573-18.456
						c-6.68-10.487-8.875-22.949-6.182-35.089c5.553-25.053,30.459-40.92,55.522-35.369c25.083,5.609,40.928,30.472,35.37,55.529
						c-2.691,12.141-9.95,22.507-20.436,29.184c-10.488,6.683-22.951,8.88-35.092,6.184
						C749.955,944.766,747.744,944.102,745.613,943.289z M774.532,867.836c-1.547-0.59-3.154-1.074-4.817-1.445
						c-18.435-4.082-36.754,7.588-40.842,26.021c-1.978,8.926-0.367,18.097,4.548,25.807c4.916,7.717,12.542,13.045,21.469,15.037
						l0,0c8.929,1.979,18.098,0.364,25.81-4.548c7.717-4.916,13.055-12.541,15.036-21.473
						C799.454,890.469,790.128,873.787,774.532,867.836z"/>
					<path style="opacity:0.56;fill:#FFFFFF;" d="M721.943,1007.795c-3.638-1.389-7.234-2.973-10.788-4.754
						c-7.054-3.541-13.754-7.802-19.93-12.681c-0.276-0.221-0.552-0.442-0.828-0.664c-2.132-1.714-2.819-4.556-1.896-6.983
						c0.225-0.589,0.547-1.155,0.963-1.671c2.13-2.648,6.001-3.049,8.651-0.932c5.723,4.609,11.969,8.62,18.561,11.927l0.003,0.001
						c0.361,0.183,0.727,0.361,1.088,0.537c15.674,7.686,32.669,11.174,49.66,10.453c9.223-0.392,18.449-2.03,27.463-4.927
						c0.074-0.023,0.146-0.047,0.22-0.07c0.225-0.076,0.448-0.145,0.67-0.221c26.274-8.706,47.588-27.12,60.011-51.854
						c1.61-3.2,3.042-6.456,4.302-9.757c8.474-22.214,9.044-46.467,1.468-69.344c-8.706-26.274-27.123-47.583-51.854-60.005
						c-24.721-12.406-52.826-14.472-79.101-5.773c-26.274,8.706-47.588,27.12-60.011,51.854c-1.583,3.146-2.997,6.364-4.244,9.631
						c-5.406,14.174-7.65,29.367-6.517,44.504c0.069,0.933-0.071,1.832-0.387,2.651c-0.823,2.156-2.835,3.762-5.291,3.944
						c-3.39,0.244-6.343-2.285-6.596-5.682c-1.265-16.938,1.244-33.94,7.287-49.794c1.397-3.661,2.979-7.258,4.747-10.778
						c13.903-27.675,37.746-48.276,67.145-58.015c29.394-9.735,60.816-7.47,88.492,6.456c27.673,13.899,48.276,37.74,58.011,67.141
						c8.481,25.59,7.84,52.723-1.641,77.577c-1.408,3.689-3.012,7.336-4.809,10.914
						C839.878,1005.055,776.796,1028.728,721.943,1007.795z"/>
				</g>
			</g>
		</g>
		<g>
			
				<linearGradient id="SVGID_00000087413545196722876100000014384516972225712303_" gradientUnits="userSpaceOnUse" x1="3008.6794" y1="1018.5867" x2="689.6998" y2="2784.2739">
				<stop  offset="0" style="stop-color:#2B3582"/>
				<stop  offset="1" style="stop-color:#150E42"/>
			</linearGradient>
			<path style="fill:url(#SVGID_00000087413545196722876100000014384516972225712303_);" d="M567.369,934.349l2510.32-48.107
				c101.067-1.937,182.187,96.365,176.181,213.498l-86.407,1685.102c-4.729,92.224-70.14,164.467-149.722,165.36l-2413.024,27.062
				c-59.602,0.668-108.845-53.83-111.115-122.971l-57.733-1758.719C433.011,1008.537,492.35,935.786,567.369,934.349z"/>
			
				<linearGradient id="SVGID_00000163053747525314705080000001505730649724772760_" gradientUnits="userSpaceOnUse" x1="2974.0408" y1="1043.839" x2="734.3093" y2="2749.1863">
				<stop  offset="0" style="stop-color:#53D8FF"/>
				<stop  offset="1" style="stop-color:#3840F7"/>
			</linearGradient>
			<path style="fill:url(#SVGID_00000163053747525314705080000001505730649724772760_);" d="M605.849,977.277l2444.801-45.77
				c98.429-1.843,177.432,91.682,171.583,203.122l-84.152,1603.212c-4.605,87.743-68.309,156.474-145.814,157.324l-2350.046,25.747
				c-58.046,0.636-106.004-51.213-108.215-116.995l-56.226-1673.251C474.998,1047.86,532.788,978.645,605.849,977.277z"/>
			<path style="opacity:0.18;fill:#FFFFFF;" d="M651.57,1032.536l2328.031-43.584c93.728-1.755,168.957,87.304,163.387,193.421
				l-80.133,1526.638c-4.386,83.551-65.047,149-138.85,149.809l-2237.801,24.517c-55.274,0.606-100.941-48.767-103.046-111.407
				l-53.541-1593.332C526.969,1099.748,581.998,1033.839,651.57,1032.536z"/>
			<path style="fill:#FFFFFF;" d="M1423.425,2878.094c-4.517,0-8.178-4.146-8.178-9.263V1043.733c0-5.117,3.661-9.263,8.178-9.263
				c4.517,0,8.178,4.147,8.178,9.263v1825.098C1431.603,2873.948,1427.941,2878.094,1423.425,2878.094z"/>
			<path style="fill:#FFFFFF;" d="M2380.599,2880.795c-4.469,0-8.121-4.071-8.177-9.147l-19.9-1825.098
				c-0.056-5.116,3.56-9.314,8.077-9.379c4.565-0.156,8.223,4.034,8.279,9.147l19.9,1825.098c0.054,5.116-3.561,9.314-8.077,9.379
				C2380.668,2880.795,2380.633,2880.795,2380.599,2880.795z"/>
		</g>
		<g>
			<g>
				
					<linearGradient id="SVGID_00000165214339801264907470000014027988610387666110_" gradientUnits="userSpaceOnUse" x1="4731.9565" y1="2678.0593" x2="4972.7422" y2="2678.0593" gradientTransform="matrix(-1 0 0 1 7499.7451 0)">
					<stop  offset="0" style="stop-color:#9CFFFB"/>
					<stop  offset="1" style="stop-color:#9BFFFA"/>
				</linearGradient>
				<path style="fill:url(#SVGID_00000165214339801264907470000014027988610387666110_);" d="M2540.738,3254.996
					c6.572,0,12.377-4.232,13.508-10.214l213.349-1129.37c1.26-6.673-3.772-12.994-11.242-14.119
					c-7.472-1.117-14.546,3.37-15.807,10.043l-213.35,1129.369c-1.26,6.673,3.773,12.995,11.242,14.119
					C2539.211,3254.94,2539.98,3254.996,2540.738,3254.996z"/>
				
					<linearGradient id="SVGID_00000101100521742224098420000008163592538651376779_" gradientUnits="userSpaceOnUse" x1="4225.5142" y1="2685.4021" x2="4504.4541" y2="2685.4021" gradientTransform="matrix(-1 0 0 1 7499.7451 0)">
					<stop  offset="0" style="stop-color:#9CFFFB"/>
					<stop  offset="1" style="stop-color:#9BFFFA"/>
				</linearGradient>
				<path style="fill:url(#SVGID_00000101100521742224098420000008163592538651376779_);" d="M3260.498,3255
					c0.899,0,1.811-0.08,2.725-0.247c7.426-1.336,12.232-7.798,10.735-14.43l-251.502-1114.676
					c-1.497-6.633-8.719-10.96-16.156-9.588c-7.426,1.336-12.232,7.797-10.736,14.43l251.503,1114.676
					C3248.379,3250.98,3254.102,3255,3260.498,3255z"/>
				
					<linearGradient id="SVGID_00000042703853220717213370000013183353242704281487_" gradientUnits="userSpaceOnUse" x1="4417.9116" y1="2382.2595" x2="4809.9307" y2="2382.2595" gradientTransform="matrix(-1 0 0 1 7499.7451 0)">
					<stop  offset="0" style="stop-color:#9CFFFB"/>
					<stop  offset="1" style="stop-color:#9BFFFA"/>
				</linearGradient>
				<path style="fill:url(#SVGID_00000042703853220717213370000013183353242704281487_);" d="M2703.53,2394.512h364.588
					c7.574,0,13.716-5.484,13.716-12.252s-6.141-12.252-13.716-12.252H2703.53c-7.574,0-13.716,5.484-13.716,12.252
					S2695.956,2394.512,2703.53,2394.512z"/>
				
					<linearGradient id="SVGID_00000026847999494586344660000000626365997816575162_" gradientUnits="userSpaceOnUse" x1="4425.0288" y1="2382.2595" x2="4802.8232" y2="2382.2595" gradientTransform="matrix(-1 0 0 1 7499.7451 0)">
					<stop  offset="0" style="stop-color:#9CFFFB"/>
					<stop  offset="1" style="stop-color:#9BFFFA"/>
				</linearGradient>
				<path style="fill:url(#SVGID_00000026847999494586344660000000626365997816575162_);" d="M2710.14,2394.512h351.358
					c7.299,0,13.218-5.484,13.218-12.252s-5.919-12.252-13.218-12.252H2710.14c-7.3,0-13.218,5.484-13.218,12.252
					S2702.84,2394.512,2710.14,2394.512z"/>
				
					<linearGradient id="SVGID_00000016066048478565322220000005038030081608183226_" gradientUnits="userSpaceOnUse" x1="4417.9116" y1="2586.4653" x2="4809.9307" y2="2586.4653" gradientTransform="matrix(-1 0 0 1 7499.7451 0)">
					<stop  offset="0" style="stop-color:#9CFFFB"/>
					<stop  offset="1" style="stop-color:#9BFFFA"/>
				</linearGradient>
				<path style="fill:url(#SVGID_00000016066048478565322220000005038030081608183226_);" d="M2703.53,2598.718h364.588
					c7.574,0,13.716-5.484,13.716-12.253c0-6.768-6.141-12.252-13.716-12.252H2703.53c-7.574,0-13.716,5.484-13.716,12.252
					C2689.814,2593.233,2695.956,2598.718,2703.53,2598.718z"/>
				
					<linearGradient id="SVGID_00000088094993996186039000000016309755491200924816_" gradientUnits="userSpaceOnUse" x1="4373.5913" y1="2586.4653" x2="4843.0356" y2="2586.4653" gradientTransform="matrix(-1 0 0 1 7499.7451 0)">
					<stop  offset="0" style="stop-color:#9CFFFB"/>
					<stop  offset="1" style="stop-color:#9BFFFA"/>
				</linearGradient>
				<path style="fill:url(#SVGID_00000088094993996186039000000016309755491200924816_);" d="M2670.425,2598.718h442.013
					c7.574,0,13.716-5.484,13.716-12.253c0-6.768-6.141-12.252-13.716-12.252h-442.013c-7.574,0-13.716,5.484-13.716,12.252
					C2656.709,2593.233,2662.851,2598.718,2670.425,2598.718z"/>
				
					<linearGradient id="SVGID_00000081644969564037996120000010946552146483130288_" gradientUnits="userSpaceOnUse" x1="4417.9116" y1="2790.6709" x2="4809.9307" y2="2790.6709" gradientTransform="matrix(-1 0 0 1 7499.7451 0)">
					<stop  offset="0" style="stop-color:#9CFFFB"/>
					<stop  offset="1" style="stop-color:#9BFFFA"/>
				</linearGradient>
				<path style="fill:url(#SVGID_00000081644969564037996120000010946552146483130288_);" d="M2703.53,2802.923h364.588
					c7.574,0,13.716-5.484,13.716-12.252c0-6.768-6.141-12.252-13.716-12.252H2703.53c-7.574,0-13.716,5.484-13.716,12.252
					C2689.814,2797.439,2695.956,2802.923,2703.53,2802.923z"/>
				
					<linearGradient id="SVGID_00000121957915833095860550000013282758776902814364_" gradientUnits="userSpaceOnUse" x1="4328.7368" y1="2790.6709" x2="4885.2549" y2="2790.6709" gradientTransform="matrix(-1 0 0 1 7499.7451 0)">
					<stop  offset="0" style="stop-color:#9CFFFB"/>
					<stop  offset="1" style="stop-color:#9BFFFA"/>
				</linearGradient>
				<path style="fill:url(#SVGID_00000121957915833095860550000013282758776902814364_);" d="M2628.206,2802.923h529.087
					c7.575,0,13.716-5.484,13.716-12.252c0-6.768-6.141-12.252-13.716-12.252h-529.087c-7.574,0-13.716,5.484-13.716,12.252
					C2614.49,2797.439,2620.632,2802.923,2628.206,2802.923z"/>
				
					<linearGradient id="SVGID_00000041272032646188042880000016806930120803553703_" gradientUnits="userSpaceOnUse" x1="4286.2026" y1="2994.8767" x2="4809.9307" y2="2994.8767" gradientTransform="matrix(-1 0 0 1 7499.7451 0)">
					<stop  offset="0" style="stop-color:#9CFFFB"/>
					<stop  offset="1" style="stop-color:#9BFFFA"/>
				</linearGradient>
				<path style="fill:url(#SVGID_00000041272032646188042880000016806930120803553703_);" d="M2703.53,3007.129h496.297
					c7.574,0,13.716-5.484,13.716-12.252c0-6.768-6.141-12.252-13.716-12.252H2703.53c-7.574,0-13.716,5.484-13.716,12.252
					C2689.814,3001.645,2695.956,3007.129,2703.53,3007.129z"/>
				
					<linearGradient id="SVGID_00000057108995354918330930000016965253571437289147_" gradientUnits="userSpaceOnUse" x1="4286.2026" y1="2994.8767" x2="4919.4053" y2="2994.8767" gradientTransform="matrix(-1 0 0 1 7499.7451 0)">
					<stop  offset="0" style="stop-color:#9CFFFB"/>
					<stop  offset="1" style="stop-color:#9BFFFA"/>
				</linearGradient>
				<path style="fill:url(#SVGID_00000057108995354918330930000016965253571437289147_);" d="M2594.055,3007.129h605.771
					c7.574,0,13.716-5.484,13.716-12.252c0-6.768-6.141-12.252-13.716-12.252h-605.771c-7.574,0-13.716,5.484-13.716,12.252
					C2580.34,3001.645,2586.481,3007.129,2594.055,3007.129z"/>
			</g>
			<g>
				
					<linearGradient id="SVGID_00000121996431724633358790000014814180417411565697_" gradientUnits="userSpaceOnUse" x1="-3296.2131" y1="2548.5449" x2="-3218.3369" y2="2548.5449" gradientTransform="matrix(-1 0 0 1 -300.2549 0)">
					<stop  offset="0" style="stop-color:#2B3582"/>
					<stop  offset="1" style="stop-color:#150E42"/>
				</linearGradient>
				<path style="fill:url(#SVGID_00000121996431724633358790000014814180417411565697_);" d="M2985.117,2521.104
					c0,0,8.654,13.64,10.831,51.831c0.203,3.559-2.616,6.59-6.18,6.59h-67.68c-2.723,0-4.667-2.67-3.795-5.25
					c3.966-11.738,15.957-40.356,42.714-56.71L2985.117,2521.104z"/>
				
					<linearGradient id="SVGID_00000181789210246022929290000013537226449124952201_" gradientUnits="userSpaceOnUse" x1="-3288.313" y1="2512.3569" x2="-3256.7295" y2="2512.3569" gradientTransform="matrix(-1 0 0 1 -300.2549 0)">
					<stop  offset="0" style="stop-color:#F9B776"/>
					<stop  offset="1" style="stop-color:#F47960"/>
				</linearGradient>
				<path style="fill:url(#SVGID_00000181789210246022929290000013537226449124952201_);" d="M2988.058,2495.226l-3.828,32.098
					c-0.33,2.769-2.501,4.987-5.271,5.305c-3.701,0.427-9.082,0.727-14.311-0.136c-4.753-0.784-8.174-5.017-8.174-9.835v-30.99
					L2988.058,2495.226z"/>
				
					<linearGradient id="SVGID_00000046309556262337188830000009768626148404223671_" gradientUnits="userSpaceOnUse" x1="-3130.6001" y1="2547.2998" x2="-3008.4099" y2="2547.2998" gradientTransform="matrix(-1 0 0 1 -300.2549 0)">
					<stop  offset="0" style="stop-color:#2B3582"/>
					<stop  offset="1" style="stop-color:#150E42"/>
				</linearGradient>
				<path style="fill:url(#SVGID_00000046309556262337188830000009768626148404223671_);" d="M2817.664,2517.565
					c0,0,12.954,20.136,12.677,47.774c-0.065,6.51-5.515,11.695-12.025,11.695H2713.2c-4.922,0-6.92-6.324-2.892-9.153
					c19.891-13.968,58.986-40.061,87.262-50.316H2817.664z"/>
				
					<linearGradient id="SVGID_00000091012927211649753370000006082451044672055432_" gradientUnits="userSpaceOnUse" x1="-3128.7441" y1="2498.3323" x2="-3097.3342" y2="2498.3323" gradientTransform="matrix(-1 0 0 1 -300.2549 0)">
					<stop  offset="0" style="stop-color:#F9B776"/>
					<stop  offset="1" style="stop-color:#F47960"/>
				</linearGradient>
				<path style="fill:url(#SVGID_00000091012927211649753370000006082451044672055432_);" d="M2828.489,2482.901l-8.165,39.642
					c-0.913,4.434-5.251,7.415-9.669,6.429c-2.687-0.599-5.855-1.748-9.241-3.865c-3.218-2.012-4.848-5.84-4.191-9.577l8.446-48.026
					L2828.489,2482.901z"/>
				
					<linearGradient id="SVGID_00000031922929445430134660000008319645931747074972_" gradientUnits="userSpaceOnUse" x1="-3307.9377" y1="2219.7183" x2="-3093.8057" y2="2219.7183" gradientTransform="matrix(-1 0 0 1 -300.2549 0)">
					<stop  offset="0" style="stop-color:#2B3582"/>
					<stop  offset="1" style="stop-color:#150E42"/>
				</linearGradient>
				<path style="fill:url(#SVGID_00000031922929445430134660000008319645931747074972_);" d="M2973.061,1931.741
					c0,0,28.39,25.029,33.733,55.143c5.343,30.113-15.138,519.556-15.138,519.556s-28.389,4.723-43.023-4.145
					c0,0-17.357-317.645-30.551-391.045c0,0-69.19,329.039-88.361,388.491c0,0-27.35,3.327-36.17-1.877
					c0,0,18.124-426.526,40.898-502.356L2973.061,1931.741z"/>
				<path style="fill:#666694;" d="M2918.908,2100.858c1.338,0,2.56-0.898,2.913-2.252l11.764-45.125l25.062-16.077
					c1.4-0.899,1.809-2.762,0.91-4.163c-0.898-1.401-2.766-1.812-4.163-0.906l-26.054,16.713c-0.637,0.408-1.099,1.04-1.289,1.773
					l-12.06,46.262c-0.42,1.613,0.545,3.257,2.156,3.677C2918.4,2100.827,2918.657,2100.858,2918.908,2100.858z"/>
				
					<linearGradient id="SVGID_00000038403167518296984120000003633081067569507221_" gradientUnits="userSpaceOnUse" x1="-2947.4614" y1="1462.2278" x2="-3171.2544" y2="2175.2439" gradientTransform="matrix(-1 0 0 1 -300.2549 0)">
					<stop  offset="0" style="stop-color:#FDF53F"/>
					<stop  offset="1" style="stop-color:#D93C65"/>
				</linearGradient>
				<path style="fill:url(#SVGID_00000038403167518296984120000003633081067569507221_);" d="M2692.9,1648.931
					c119.513-9.922,150.748,14.81,150.748,14.81l-57.433,90.671c0,0-117.432-2.32-201.578-67.175
					c15.748-16.96,26.685-35.703,33.699-50.297C2640.035,1645.958,2665.022,1651.245,2692.9,1648.931z"/>
				
					<linearGradient id="SVGID_00000053512471481540335200000010039515385620991678_" gradientUnits="userSpaceOnUse" x1="2560.1477" y1="1605.52" x2="2433.3188" y2="1422.0714">
					<stop  offset="0" style="stop-color:#F9B776"/>
					<stop  offset="1" style="stop-color:#F47960"/>
				</linearGradient>
				<path style="fill:url(#SVGID_00000053512471481540335200000010039515385620991678_);" d="M2505.745,1473.504
					c0.161-3.83,5.351-4.872,6.978-1.401l15.25,32.541c2.946,6.288,3.891,13.328,2.706,20.17l-5.349,18.94
					c-1.6,9.237,0.812,18.701,6.668,26.022c14.012,17.518,43.854,49.511,86.339,67.164c-7.014,14.594-17.951,33.337-33.699,50.297
					c-30.874-23.796-57.274-56.001-71.738-99.614c-6.93-2.129-11.561-8.653-11.285-15.897L2505.745,1473.504z"/>
				
					<linearGradient id="SVGID_00000153679390859559218320000007375420659101539204_" gradientUnits="userSpaceOnUse" x1="-3006.4131" y1="1756.7144" x2="-3610.1365" y2="2396.8687" gradientTransform="matrix(-1 0 0 1 -300.2549 0)">
					<stop  offset="0" style="stop-color:#FDF53F"/>
					<stop  offset="1" style="stop-color:#D93C65"/>
				</linearGradient>
				<path style="fill:url(#SVGID_00000153679390859559218320000007375420659101539204_);" d="M2653.56,1701.499
					c42.073-45.335,122.212-65.818,168.611-74.231c20.327-3.686,40.364,7.625,47.567,26.987
					c20.88,56.129,77.668,202.156,88.675,227.254c9.031,20.59,18.459,40.699,24.451,53.272c3.58,7.511,0.452,16.499-7.043,20.111
					c-39.037,18.816-109.279,40.105-137.757,48.409c-6.263,1.827-12.501-2.876-12.501-9.401c0-5.534-1.504-10.964-4.351-15.708
					l-107.85-179.724c-67.222,74.535-126.091,81.35-171.314,65.036c7.604-23.5,12.58-47.044,14.967-70.633
					C2623.823,1781.427,2653.56,1701.499,2653.56,1701.499z"/>
				
					<linearGradient id="SVGID_00000055686440333433588510000007551025187365127086_" gradientUnits="userSpaceOnUse" x1="-2654.2661" y1="1604.0635" x2="-2906.4971" y2="1917.8632" gradientTransform="matrix(-1 0 0 1 -300.2549 0)">
					<stop  offset="0" style="stop-color:#F9B776"/>
					<stop  offset="1" style="stop-color:#F47960"/>
				</linearGradient>
				<path style="fill:url(#SVGID_00000055686440333433588510000007551025187365127086_);" d="M2446.588,1780.363l12.057-16.076
					c39.033,26.807,71.659,33.161,98.369,28.585c-2.387,23.588-7.363,47.132-14.967,70.633
					C2482.471,1842.013,2446.588,1780.363,2446.588,1780.363z"/>
				
					<linearGradient id="SVGID_00000139277002134811524030000009438161222252283811_" gradientUnits="userSpaceOnUse" x1="-2606.4446" y1="1642.5024" x2="-2858.675" y2="1956.3014" gradientTransform="matrix(-1 0 0 1 -300.2549 0)">
					<stop  offset="0" style="stop-color:#F9B776"/>
					<stop  offset="1" style="stop-color:#F47960"/>
				</linearGradient>
				<path style="fill:url(#SVGID_00000139277002134811524030000009438161222252283811_);" d="M2455.089,1780.654l-67.925,2.648
					l-62.539-34.929c8.977-5.628,59.742,5.875,59.742,5.875s53.068-8.026,67.431-8.045c11.93-0.016,10.225,17.139,9.305,22.952
					c-0.188,1.186-0.343,1.9-0.343,1.9L2455.089,1780.654z"/>
				
					<linearGradient id="SVGID_00000000905060252505896070000011747814813178362296_" gradientUnits="userSpaceOnUse" x1="-2938.0273" y1="1414.4197" x2="-3182.314" y2="1863.2722" gradientTransform="matrix(-1 0 0 1 -300.2549 0)">
					<stop  offset="0" style="stop-color:#F9B776"/>
					<stop  offset="1" style="stop-color:#F47960"/>
				</linearGradient>
				<path style="fill:url(#SVGID_00000000905060252505896070000011747814813178362296_);" d="M2758.351,1544.007l35.839,87.454
					c0,0-41.179,28.503-74.309,25.79l-17.886-78.638L2758.351,1544.007z"/>
				<g>
					
						<linearGradient id="SVGID_00000081611692480229687860000017235599885030210177_" gradientUnits="userSpaceOnUse" x1="-2497.1477" y1="1818.244" x2="-2605.1086" y2="1961.0675" gradientTransform="matrix(-0.817 -0.5767 -0.5767 0.817 1723.173 -1428.4956)">
						<stop  offset="0" style="stop-color:#F9B776"/>
						<stop  offset="1" style="stop-color:#F47960"/>
					</linearGradient>
					<path style="fill:url(#SVGID_00000081611692480229687860000017235599885030210177_);" d="M2697.812,1484.387
						c-0.821,1.163-25.927,91.862-25.927,91.862l52.093,13.235l36.568-82.429
						C2760.545,1507.055,2711.553,1464.918,2697.812,1484.387z"/>
					
						<linearGradient id="SVGID_00000142890719059933343160000000053312693441101451_" gradientUnits="userSpaceOnUse" x1="-2579.5991" y1="1852.6964" x2="-2450.6377" y2="1852.6964" gradientTransform="matrix(-0.817 -0.5767 -0.5767 0.817 1723.173 -1428.4956)">
						<stop  offset="0" style="stop-color:#2B3582"/>
						<stop  offset="1" style="stop-color:#150E42"/>
					</linearGradient>
					<path style="fill:url(#SVGID_00000142890719059933343160000000053312693441101451_);" d="M2740.928,1519.578l-15.852,44.9
						c-0.203,0.576-0.476,1.108-0.827,1.608c-2.151,3.056-10.323,13.029-20.017,4.046c-8.795-8.151-16.944-15.459-24.469-16.786
						c-3.379-0.596-6.652,1.466-7.566,4.773c-2.279,8.241-7.071,26.907-8.76,43.76c-0.343,3.42,2.018,6.51,5.395,7.152
						c10.174,1.932,31.747,5.407,49.756,4.137c2.44-0.172,4.588-1.636,5.606-3.861c4.963-10.845,20.169-43.75,25.825-52.264
						c5.309-7.991,18.322-7.767,23.78-7.283c1.789,0.159,3.549-0.418,4.9-1.602c4.774-4.185,13.861-14.87,1.079-27.662
						c-2.675-2.677-2.603-6.996,0.154-9.589c5.49-5.161,11.36-14.315,2.214-25.668c-9.296-11.539-21.567-9.703-29.085-6.96
						c-3.04,1.11-6.356-0.176-8.009-2.958c-0.941-1.584-2.582-2.783-5.427-2.538c-3.834,0.33-7.058-2.87-6.989-6.718
						c0.133-7.393-2.514-16.733-15.338-20.724c-22.756-7.083-36.947,14.901-38.353,31.306
						c-1.406,16.405,23.703,22.681,38.468,21.574c11.226-0.841,19.561,10.285,22.911,15.667
						C2741.385,1515.594,2741.597,1517.685,2740.928,1519.578z"/>
					
						<linearGradient id="SVGID_00000066517528424668278760000008608986035082818979_" gradientUnits="userSpaceOnUse" x1="-2655.2686" y1="1931.3488" x2="-2568.6748" y2="1842.5059" gradientTransform="matrix(-0.817 -0.5767 -0.5767 0.817 1723.173 -1428.4956)">
						<stop  offset="0" style="stop-color:#F9B776"/>
						<stop  offset="1" style="stop-color:#F47960"/>
					</linearGradient>
					<path style="fill:url(#SVGID_00000066517528424668278760000008608986035082818979_);" d="M2744.085,1573.333
						c0,0,3.676-28.479,15.523-29.875c11.847-1.395,23.378,8.341,11.6,24.326
						C2756.557,1587.668,2744.085,1573.333,2744.085,1573.333z"/>
				</g>
			</g>
			<g>
				
					<linearGradient id="SVGID_00000044178239780715778730000010031011085159317661_" gradientUnits="userSpaceOnUse" x1="1656.4589" y1="1904.1392" x2="3468.2871" y2="-1567.691">
					<stop  offset="0" style="stop-color:#CB236D"/>
					<stop  offset="1" style="stop-color:#4C246D"/>
				</linearGradient>
				<path style="fill:url(#SVGID_00000044178239780715778730000010031011085159317661_);" d="M2426.16,1751.147h-923.52
					c-37.439,0-68.732-28.482-72.245-65.756l-58.205-617.512c-3.962-42.031,28.654-78.558,70.864-79.362l981.725-18.691
					c40.61-0.773,73.947,31.935,73.947,72.552v636.203C2498.726,1718.658,2466.237,1751.147,2426.16,1751.147z"/>
				<path style="opacity:0.87;fill:#FFFFFF;" d="M1431.219,1122.916l41.279,533.969c1.793,23.195,21.013,41.175,44.276,41.418
					l886.374,9.286c24.969,0.261,45.35-19.907,45.35-44.877v-574.871c0-25.386-21.038-45.718-46.408-44.854l-927.653,31.616
					C1448.906,1075.473,1429.25,1097.447,1431.219,1122.916z"/>
				
					<linearGradient id="SVGID_00000116218697461003058980000011773742451926322311_" gradientUnits="userSpaceOnUse" x1="1937.4279" y1="1395.548" x2="3430.9705" y2="2303.8467">
					<stop  offset="0" style="stop-color:#CB236D"/>
					<stop  offset="1" style="stop-color:#4C246D"/>
				</linearGradient>
				<path style="opacity:0.11;fill:url(#SVGID_00000116218697461003058980000011773742451926322311_);" d="M1531.653,1610.381
					h797.651c23.489,0,42.459-19.177,42.204-42.664l-4.034-372.241l-67.833,85.81l-54.918,7.014c0,0-49.198,1.753-62.4,3.507
					c-13.202,1.753-74.022,15.781-74.022,15.781l-58.656,29.808l-13.783,37.882l-40.328,23.118l-43.723,25.714h-88.909
					l-109.337-48.832h-37.115l-67.393,39.268l-63.1,73.243L1531.653,1610.381z"/>
				
					<linearGradient id="SVGID_00000049183511930820168660000006051872233673079982_" gradientUnits="userSpaceOnUse" x1="1363.8893" y1="1976.9456" x2="3175.7117" y2="-1494.8737">
					<stop  offset="0" style="stop-color:#CB236D"/>
					<stop  offset="1" style="stop-color:#4C246D"/>
				</linearGradient>
				<path style="fill:url(#SVGID_00000049183511930820168660000006051872233673079982_);" d="M1540.447,1153.574l499.839-14.951
					c5.123-0.153,9.36,3.958,9.36,9.084v8.048c0,4.97-3.993,9.019-8.963,9.088l-499.839,6.903c-5.068,0.07-9.214-4.019-9.214-9.088
					l0,0C1531.631,1157.745,1535.536,1153.722,1540.447,1153.574z"/>
				
					<linearGradient id="SVGID_00000103975490847197007800000002411774131893152660_" gradientUnits="userSpaceOnUse" x1="1383.1967" y1="1987.0209" x2="3195.0305" y2="-1484.8199">
					<stop  offset="0" style="stop-color:#CB236D"/>
					<stop  offset="1" style="stop-color:#4C246D"/>
				</linearGradient>
				<path style="fill:url(#SVGID_00000103975490847197007800000002411774131893152660_);" d="M1531.631,1204.565v3.43
					c0,5.019,4.069,9.089,9.089,9.089h499.839c5.02,0,9.089-4.069,9.089-9.089v-3.43c0-5.019-4.069-9.089-9.089-9.089h-499.839
					C1535.7,1195.476,1531.631,1199.545,1531.631,1204.565z"/>
				
					<linearGradient id="SVGID_00000017517188473183108980000014301226219509375374_" gradientUnits="userSpaceOnUse" x1="1872.769" y1="1351.3053" x2="2991.4382" y2="2031.6248">
					<stop  offset="0" style="stop-color:#CB236D"/>
					<stop  offset="1" style="stop-color:#4C246D"/>
				</linearGradient>
				<path style="fill:url(#SVGID_00000017517188473183108980000014301226219509375374_);" d="M1534.384,1610.381
					c-2.213,0-4.46-0.436-6.627-1.355c-8.636-3.664-12.667-13.635-9.001-22.271c57.61-135.764,122.351-209.673,197.919-225.949
					c52.056-11.219,92.322,9.463,127.843,27.712c37.802,19.415,70.452,36.188,115.208,19.284
					c33.76-12.75,52.264-36.208,71.854-61.044c24.421-30.961,49.673-62.974,103.137-72.046c26.741-4.533,47.649-1.005,66.096,2.105
					c22.317,3.766,39.947,6.738,64.368-5.059c28.699-13.866,53.816-41.709,74.652-82.752c4.248-8.365,14.478-11.701,22.835-7.458
					c8.365,4.247,11.704,14.471,7.458,22.835c-24.281,47.828-54.617,80.788-90.166,97.963
					c-34.178,16.515-59.916,12.171-84.801,7.971c-17.321-2.921-33.682-5.686-54.762-2.11c-40.571,6.882-59.837,31.308-82.145,59.591
					c-20.596,26.109-43.936,55.704-86.524,71.788c-58.867,22.231-103.424-0.659-142.733-20.848
					c-33.416-17.164-64.983-33.383-105.169-24.719c-63.082,13.587-121.558,82.898-173.8,206.009
					C1547.283,1606.495,1540.996,1610.381,1534.384,1610.381z"/>
			</g>
		</g>
		<g>
			
				<linearGradient id="SVGID_00000127011450158555965540000013128226133801567400_" gradientUnits="userSpaceOnUse" x1="1421.4723" y1="1252.1865" x2="973.4293" y2="1953.6669">
				<stop  offset="0" style="stop-color:#53D8FF"/>
				<stop  offset="1" style="stop-color:#3840F7"/>
			</linearGradient>
			<path style="fill:url(#SVGID_00000127011450158555965540000013128226133801567400_);" d="M653.932,1822.966l33.339,277.281
				c2.081,17.311,19.376,30.687,40.475,31.304l506.479,14.821c21.068,0.617,39.44-11.669,43.053-28.782
				c13.068-61.902,39.463-206.331,24.016-300.521c-2.601-15.86-17.874-28.273-37.178-30.047
				c-202.686-18.628-395.549-21.775-573.832-1.942C667.762,1787.586,651.692,1804.333,653.932,1822.966z"/>
			<path style="opacity:0.5;fill:#FFFFFF;" d="M685.984,1837.342l30.71,255.423c1.917,15.946,17.849,28.268,37.284,28.837
				l466.554,13.653c19.408,0.568,36.331-10.749,39.659-26.513c12.038-57.023,36.352-190.065,22.123-276.831
				c-2.396-14.61-16.465-26.044-34.247-27.678c-186.708-17.16-364.368-20.058-528.597-1.789
				C698.724,1804.751,683.92,1820.178,685.984,1837.342z"/>
			<path style="fill:#FFFFFF;" d="M1240.417,1984.22c-0.801,0-1.614-0.071-2.431-0.221
				c-155.358-28.087-470.522-22.665-473.686-22.615c-7.567,0.265-13.687-5.828-13.824-13.327
				c-0.137-7.496,5.829-13.687,13.327-13.823c13.031-0.245,321.005-5.525,479.014,23.045c7.38,1.332,12.28,8.398,10.945,15.776
				C1252.576,1979.618,1246.859,1984.22,1240.417,1984.22z"/>
			<path style="fill:#FFFFFF;" d="M1107.374,2099.354c-1.094,0-2.205-0.132-3.314-0.409
				c-111.153-27.886-337.389-22.482-339.662-22.429c-0.118,0.006-0.235,0.006-0.352,0.006c-7.338,0-13.379-5.855-13.567-13.233
				c-0.191-7.496,5.732-13.728,13.228-13.92c9.43-0.236,232.247-5.542,346.96,23.234c7.273,1.827,11.69,9.202,9.866,16.474
				C1118.987,2095.241,1113.453,2099.354,1107.374,2099.354z"/>
			<path style="fill:#FFFFFF;" d="M1240.417,2046.328c-0.801,0-1.614-0.071-2.431-0.221
				c-155.358-28.086-470.522-22.668-473.686-22.615c-7.567,0.254-13.687-5.828-13.824-13.327
				c-0.137-7.496,5.829-13.687,13.327-13.822c13.031-0.242,321.005-5.528,479.014,23.045c7.38,1.332,12.28,8.398,10.945,15.776
				C1252.576,2041.726,1246.859,2046.328,1240.417,2046.328z"/>
		</g>
		<g>
			
				<linearGradient id="SVGID_00000023271246468022576110000008081842079108155569_" gradientUnits="userSpaceOnUse" x1="1518.3859" y1="375.3898" x2="744.1729" y2="1822.613">
				<stop  offset="0" style="stop-color:#53D8FF"/>
				<stop  offset="1" style="stop-color:#3840F7"/>
			</linearGradient>
			<path style="fill:url(#SVGID_00000023271246468022576110000008081842079108155569_);" d="M613.791,1259.479l35.577,359.121
				c2.221,22.42,20.677,39.744,43.193,40.544l540.482,19.196c22.483,0.799,42.088-15.113,45.944-37.277
				c13.946-80.173,42.112-267.23,25.628-389.221c-2.776-20.542-19.074-36.618-39.674-38.916
				c-216.294-24.126-422.105-28.202-612.357-2.515C628.55,1213.655,611.4,1235.346,613.791,1259.479z"/>
			<path style="opacity:0.5;fill:#FFFFFF;" d="M647.994,1278.098l32.772,330.812c2.046,20.653,19.047,36.611,39.788,37.348
				l497.876,17.682c20.71,0.736,38.77-13.922,42.322-34.339c12.846-73.853,38.792-246.164,23.608-358.539
				c-2.557-18.922-17.57-33.731-36.547-35.848c-199.244-22.224-388.83-25.979-564.085-2.317
				C661.59,1235.887,645.792,1255.867,647.994,1278.098z"/>
			<path style="fill:#FFFFFF;" d="M744.823,1357.385c-9.738,0-17.988-7.497-18.759-17.37c-0.81-10.372,6.941-19.436,17.313-20.245
				c14.885-1.163,365.441-28.351,441.872-18.132c10.312,1.378,17.553,10.853,16.174,21.166
				c-1.379,10.309-10.861,17.54-21.165,16.173c-72.517-9.684-430.344,18.069-433.949,18.352
				C745.81,1357.368,745.314,1357.385,744.823,1357.385z"/>
			<path style="fill:#FFFFFF;" d="M749.894,1450.168c-10.039,0-18.379-7.918-18.806-18.044
				c-0.438-10.394,7.632-19.173,18.026-19.612l342.884-14.447c10.389-0.456,19.174,7.632,19.612,18.027
				c0.438,10.395-7.632,19.173-18.026,19.612l-342.884,14.447C750.431,1450.163,750.161,1450.168,749.894,1450.168z"/>
			<path style="fill:#FFFFFF;" d="M754.19,1528.759c-10.213,0-18.601-8.167-18.824-18.428c-0.225-10.4,8.023-19.015,18.424-19.238
				l152.171-3.3c0.139-0.005,0.278-0.005,0.416-0.005c10.213,0,18.601,8.167,18.824,18.428c0.225,10.4-8.023,19.015-18.424,19.238
				l-152.171,3.3C754.468,1528.759,754.328,1528.759,754.19,1528.759z"/>
		</g>
		<g>
			
				<linearGradient id="SVGID_00000183213960854424044290000008065708693205378975_" gradientUnits="userSpaceOnUse" x1="-3991.5354" y1="2216.9646" x2="-4010.5081" y2="2923.3186" gradientTransform="matrix(-1 0 0 1 -3228.738 0)">
				<stop  offset="0" style="stop-color:#2B3582"/>
				<stop  offset="1" style="stop-color:#150E42"/>
			</linearGradient>
			<path style="fill:url(#SVGID_00000183213960854424044290000008065708693205378975_);" d="M685.654,2981.256
				c17.011-171.591,59.581-597.778,68.875-660.071c11.68-78.293,107.62-61.014,107.62-61.014l20.544,792.292H748.925
				c-17.978,0-35.122-7.75-47.171-21.338C689.705,3017.537,683.848,2999.472,685.654,2981.256z"/>
			
				<linearGradient id="SVGID_00000140731811805618508820000007241679992286108586_" gradientUnits="userSpaceOnUse" x1="-3811.9512" y1="-963.7332" x2="-4831.8389" y2="375.861" gradientTransform="matrix(-0.0212 -0.9997 -0.9997 0.0212 762.4539 -1525.9956)">
				<stop  offset="0" style="stop-color:#2B3582"/>
				<stop  offset="1" style="stop-color:#150E42"/>
			</linearGradient>
			<path style="fill:url(#SVGID_00000140731811805618508820000007241679992286108586_);" d="M1767.889,3072.435
				c41.772-0.886,74.916-35.468,74.03-77.24l-13.644-643.207c-0.753-35.485-29.182-64.155-64.659-65.208l-933.536-27.696
				c-27.763-0.824-50.692,21.503-50.607,49.278l2.239,737.48c0.079,26.098,21.55,47.055,47.643,46.501L1767.889,3072.435z"/>
			<g>
				
					<linearGradient id="SVGID_00000143615678525129676620000008796233342809702062_" gradientUnits="userSpaceOnUse" x1="-4704.4126" y1="260.5279" x2="-3954.0288" y2="-846.5519" gradientTransform="matrix(-0.0212 -0.9997 -0.9997 0.0212 762.4539 -1525.9956)">
					<stop  offset="0" style="stop-color:#A737D5"/>
					<stop  offset="1" style="stop-color:#EF497A"/>
				</linearGradient>
				<path style="fill:url(#SVGID_00000143615678525129676620000008796233342809702062_);" d="M1828.053,3018.441
					c13.366-0.206,23.461-12.177,21.384-25.384c-13.775-87.583-57.021-388.844-43.148-638.978
					c0.632-11.407-8.206-21.107-19.625-21.471l-937.741-29.914c-12.858-0.411-23.633,9.63-24.12,22.486
					c-3.987,105.161-18.841,538.218,0.592,692.158c1.182,9.37,9.24,16.329,18.682,16.185L1828.053,3018.441z"/>
				<path style="opacity:0.6;fill:#FFFFFF;" d="M1804.36,3008.592c12.863-0.197,22.578-11.719,20.579-24.427
					c-13.255-84.285-54.874-374.203-41.524-614.917c0.609-10.977-7.896-20.313-18.885-20.663L862.1,2319.797
					c-12.374-0.394-22.743,9.267-23.212,21.639c-3.838,101.201-18.132,517.952,0.57,666.095c1.138,9.016,8.892,15.714,17.978,15.575
					L1804.36,3008.592z"/>
			</g>
			<path style="opacity:0.72;fill:#FFFFFF;" d="M1249.704,2501.515l1.378,64.993c0.211,9.92-7.744,18.091-17.665,18.147
				l-66.664,0.376c-9.706,0.055-17.66-7.688-17.866-17.393l-1.45-68.328c-0.218-10.27,8.291-18.585,18.554-18.129l66.733,2.958
				C1242.078,2484.554,1249.505,2492.154,1249.704,2501.515z"/>
			<path style="opacity:0.72;fill:#FFFFFF;" d="M1482.775,2584.107l-66.663,0.377c-9.706,0.054-17.661-7.69-17.867-17.394
				l-1.233-58.115c-0.217-10.211,8.198-18.502,18.404-18.135l66.722,2.396c9.414,0.338,16.929,7.963,17.128,17.382l1.174,55.342
				C1500.651,2575.881,1492.698,2584.052,1482.775,2584.107z"/>
			<path style="opacity:0.72;fill:#FFFFFF;" d="M1424.368,2873.604l63.412-0.614c10.623-0.104,19.351,8.359,19.576,18.979
				l1.259,59.384c0.223,10.548-8.026,19.34-18.568,19.786l-63.369,2.683c-10.861,0.459-19.977-8.096-20.208-18.965l-1.305-61.451
				C1404.938,2882.613,1413.57,2873.709,1424.368,2873.604z"/>
			<path style="opacity:0.72;fill:#FFFFFF;" d="M1531.052,2949.924l-1.232-58.062c-0.225-10.61,8.26-19.36,18.871-19.464
				l64.078-0.621c10.44-0.101,19.019,8.217,19.241,18.655l1.187,55.974c0.22,10.367-7.889,19.008-18.25,19.447l-64.033,2.71
				C1540.239,2969.015,1531.278,2960.606,1531.052,2949.924z"/>
			<path style="opacity:0.72;fill:#FFFFFF;" d="M1525.491,2687.798l-1.011-47.663c-0.244-11.51,9.031-20.967,20.543-20.946
				l61.19,0.11c11.144,0.02,20.233,8.935,20.469,20.077l0.967,45.551c0.239,11.233-8.606,20.567-19.836,20.935l-61.145,2.001
				C1535.255,2708.236,1525.733,2699.215,1525.491,2687.798z"/>
			<path style="opacity:0.72;fill:#FFFFFF;" d="M1528.429,2826.306l-1.546-72.902c-0.222-10.438,7.996-19.112,18.432-19.454
				l62.578-2.047c11.414-0.374,20.936,8.646,21.178,20.065l1.56,73.523c0.226,10.682-8.37,19.463-19.054,19.464l-64.091,0.007
				C1537.117,2844.963,1528.649,2836.673,1528.429,2826.306z"/>
			<path style="opacity:0.72;fill:#FFFFFF;" d="M1358.104,2584.812l-66.663,0.376c-9.706,0.055-17.66-7.688-17.866-17.393
				l-1.342-63.301c-0.217-10.21,8.198-18.502,18.404-18.136l66.721,2.396c9.413,0.339,16.928,7.965,17.128,17.383l1.284,60.527
				C1375.98,2576.585,1368.026,2584.756,1358.104,2584.812z"/>
			<path style="opacity:0.72;fill:#FFFFFF;" d="M1403.738,2825.995l-1.447-68.184c-0.225-10.62,8.136-19.446,18.754-19.793
				l63.382-2.075c10.792-0.353,19.794,8.176,20.022,18.971l1.49,70.251c0.231,10.868-8.516,19.802-19.386,19.804l-63.426,0.007
				C1412.576,2844.977,1403.961,2836.543,1403.738,2825.995z"/>
			<path style="opacity:0.72;fill:#FFFFFF;" d="M1289.706,2618.728l72.798,0.132c7.992,0.014,14.509,6.406,14.679,14.396
				l1.39,65.562c0.17,8.056-6.172,14.749-14.224,15.013l-72.745,2.38c-8.185,0.269-15.013-6.2-15.186-14.387l-1.444-68.076
				C1274.799,2625.494,1281.45,2618.712,1289.706,2618.728z"/>
			<path style="opacity:0.72;fill:#FFFFFF;" d="M1252.572,2636.721l1.325,62.44c0.215,10.125-7.756,18.537-17.877,18.868
				l-65.194,2.134c-10.287,0.336-18.868-7.793-19.087-18.083l-1.373-64.693c-0.22-10.374,8.139-18.897,18.515-18.878l65.242,0.118
				C1244.167,2618.646,1252.359,2626.679,1252.572,2636.721z"/>
			<path style="opacity:0.72;fill:#FFFFFF;" d="M1488.949,2709.751l-72.746,2.381c-8.185,0.268-15.012-6.201-15.186-14.388
				l-1.353-63.772c-0.176-8.254,6.476-15.035,14.731-15.02l72.799,0.131c7.992,0.015,14.509,6.407,14.679,14.397l1.299,61.259
				C1503.343,2702.795,1497.001,2709.488,1488.949,2709.751z"/>
			<path style="opacity:0.72;fill:#FFFFFF;" d="M1296.447,2742.096l63.381-2.075c10.791-0.353,19.793,8.175,20.023,18.971
				l1.404,66.186c0.231,10.868-8.516,19.803-19.386,19.804l-63.425,0.007c-10.551,0.001-19.166-8.432-19.39-18.981l-1.361-64.119
				C1277.468,2751.269,1285.828,2742.443,1296.447,2742.096z"/>
			<path style="opacity:0.72;fill:#FFFFFF;" d="M1169.655,2746.247l67.819-2.22c9.556-0.314,17.528,7.24,17.73,16.799l1.414,66.633
				c0.204,9.624-7.541,17.536-17.167,17.537l-67.866,0.008c-9.343,0.001-16.974-7.468-17.171-16.809l-1.367-64.422
				C1152.848,2754.369,1160.252,2746.554,1169.655,2746.247z"/>
			<path style="opacity:0.72;fill:#FFFFFF;" d="M1598.122,2582.594l-50.597,0.286c-13.458,0.075-24.487-10.66-24.771-24.115
				l-0.886-41.743c-0.268-12.613,10.127-22.855,22.734-22.402l56.309,2.022c12.775,0.459,22.974,10.808,23.244,23.59l0.74,34.861
				C1625.214,2570.126,1613.16,2582.51,1598.122,2582.594z"/>
			<path style="opacity:0.72;fill:#FFFFFF;" d="M1654.511,2892.121c-0.242-11.418,8.888-20.835,20.308-20.946l22.041-0.214
				c16.751-0.163,30.448,10.909,30.744,24.854l0.856,40.352c0.293,13.83-12.71,25.418-29.309,26.121l-23.663,1.001
				c-10.674,0.453-19.635-7.956-19.862-18.638L1654.511,2892.121z"/>
			<path style="opacity:0.72;fill:#FFFFFF;" d="M945.78,2878.247l43.346-0.42c10.632-0.102,19.367,8.367,19.592,18.996l1.604,75.608
				c0.224,10.557-8.033,19.357-18.583,19.803l-43.149,1.826c-17.205,0.729-31.639-10.488-31.943-24.822l-1.376-64.84
				C914.97,2890.181,928.698,2878.413,945.78,2878.247z"/>
			<path style="opacity:0.72;fill:#FFFFFF;" d="M1695.108,2844.945l-21.515,0.003c-11.16,0.001-20.272-8.919-20.509-20.076
				l-1.572-74.111c-0.239-11.233,8.605-20.568,19.835-20.935l21.656-0.709c17.074-0.559,31.289,10.616,31.59,24.835l1.375,64.838
				C1726.273,2833.125,1712.328,2844.943,1695.108,2844.945z"/>
			<path style="opacity:0.72;fill:#FFFFFF;" d="M1693.298,2703.064l-27.085,0.886c-8.632,0.282-15.833-6.54-16.016-15.175
				l-1.135-53.528c-0.185-8.705,6.83-15.858,15.536-15.842l27.349,0.05c16.586,0.029,30.028,11.047,30.32,24.854l0.692,32.621
				C1723.255,2690.873,1710.04,2702.515,1693.298,2703.064z"/>
			<path style="opacity:0.72;fill:#FFFFFF;" d="M938.856,2472.863l43.468,1.561c9.793,0.351,17.61,8.284,17.818,18.082l1.584,74.683
				c0.219,10.319-8.055,18.819-18.377,18.877l-44.758,0.253c-16.694,0.094-30.299-10.958-30.594-24.854l-1.325-62.471
				C906.359,2484.225,921.136,2472.227,938.856,2472.863z"/>
			<path style="opacity:0.72;fill:#FFFFFF;" d="M1299.708,2874.814l63.412-0.615c10.622-0.103,19.351,8.36,19.577,18.981
				l1.345,63.448c0.224,10.549-8.026,19.34-18.568,19.787l-63.368,2.682c-10.861,0.46-19.978-8.095-20.208-18.963l-1.39-65.516
				C1280.279,2883.822,1288.911,2874.919,1299.708,2874.814z"/>
			<path style="opacity:0.72;fill:#FFFFFF;" d="M940.685,2618.097l44.058,0.079c10.044,0.019,18.235,8.053,18.448,18.094
				l1.507,71.047c0.215,10.125-7.756,18.537-17.877,18.868l-44.236,1.448c-17.074,0.559-31.288-10.617-31.59-24.835l-1.242-58.547
				C909.449,2629.894,923.437,2618.066,940.685,2618.097z"/>
			<path style="opacity:0.72;fill:#FFFFFF;" d="M942.29,2753.687l45.986-1.505c9.556-0.312,17.528,7.24,17.731,16.799l1.241,58.505
				c0.204,9.624-7.541,17.536-17.167,17.537l-46.206,0.005c-16.613,0.002-30.096-11.025-30.39-24.855l-0.857-40.352
				C912.333,2765.878,925.548,2754.236,942.29,2753.687z"/>
			<path style="opacity:0.72;fill:#FFFFFF;" d="M1130.605,2764.904l1.328,62.569c0.203,9.624-7.541,17.536-17.167,17.538
				l-67.866,0.007c-9.343,0.001-16.973-7.468-17.171-16.809l-1.28-60.357c-0.2-9.404,7.205-17.22,16.607-17.527l67.819-2.22
				C1122.431,2747.791,1130.402,2755.344,1130.605,2764.904z"/>
			<path style="opacity:0.72;fill:#FFFFFF;" d="M1050.405,2877.232l63.38-0.614c10.632-0.103,19.367,8.366,19.593,18.996
				l1.518,71.545c0.224,10.557-8.034,19.356-18.583,19.803l-63.337,2.68c-10.87,0.461-19.995-8.102-20.225-18.979l-1.562-73.61
				C1030.96,2886.248,1039.599,2877.337,1050.405,2877.232z"/>
			<path style="opacity:0.72;fill:#FFFFFF;" d="M1689.735,2582.076l-26.523,0.15c-8.473,0.048-15.418-6.712-15.597-15.183
				l-1.11-52.355c-0.189-8.914,7.156-16.152,16.066-15.832l28.094,1.008c16.081,0.578,28.783,11.428,29.067,24.831l0.662,31.228
				C1720.696,2570.19,1706.876,2581.979,1689.735,2582.076z"/>
			<path style="opacity:0.72;fill:#FFFFFF;" d="M1175.065,2876.023l62.314-0.604c11.223-0.109,20.444,8.831,20.682,20.052
				l1.409,66.414c0.224,10.557-8.033,19.356-18.584,19.803l-63.335,2.681c-10.87,0.46-19.995-8.103-20.225-18.979l-1.475-69.547
				C1155.62,2885.038,1164.259,2876.128,1175.065,2876.023z"/>
			<path style="opacity:0.72;fill:#FFFFFF;" d="M1124.922,2496.988l1.474,69.497c0.219,10.32-8.056,18.819-18.377,18.877
				l-65.232,0.368c-10.097,0.057-18.372-7.998-18.586-18.093l-1.532-72.211c-0.226-10.622,8.527-19.247,19.145-18.866l65.289,2.344
				C1116.898,2479.258,1124.715,2487.191,1124.922,2496.988z"/>
			<path style="opacity:0.72;fill:#FFFFFF;" d="M1127.881,2636.495l1.416,66.744c0.215,10.125-7.756,18.537-17.877,18.868
				l-65.195,2.134c-10.287,0.337-18.868-7.793-19.086-18.084l-1.464-68.996c-0.22-10.374,8.139-18.896,18.515-18.877l65.242,0.118
				C1119.477,2618.42,1127.669,2626.454,1127.881,2636.495z"/>
			<path style="fill:#FFFFFF;" d="M1696.97,2443.564l-3.004,22.008c-0.962,7.047-6.906,12.348-14.017,12.499l-1.04,0.022
				c-7.982,0.169-14.591-6.164-14.76-14.147l-0.477-22.528c-0.186-8.731,7.354-15.631,16.035-14.676l4.521,0.498
				C1692.31,2428.13,1698.07,2435.507,1696.97,2443.564z"/>
			<path style="fill:#FFFFFF;" d="M1594.818,2437.899l-3.004,22.008c-0.961,7.048-6.906,12.348-14.017,12.499l-1.04,0.023
				c-7.983,0.169-14.591-6.164-14.76-14.147l-0.479-22.528c-0.185-8.731,7.354-15.632,16.035-14.677l4.521,0.498
				C1590.158,2422.464,1595.917,2429.843,1594.818,2437.899z"/>
			<path style="fill:#FFFFFF;" d="M1469.132,2439.629l-3.004,22.008c-0.961,7.047-6.906,12.348-14.017,12.499l-1.04,0.022
				c-7.982,0.17-14.59-6.164-14.76-14.147l-0.479-22.528c-0.185-8.731,7.354-15.631,16.036-14.676l4.521,0.498
				C1464.473,2424.195,1470.231,2431.573,1469.132,2439.629z"/>
			<path style="fill:#FFFFFF;" d="M1346.678,2434.146l-3.003,22.008c-0.962,7.047-6.906,12.348-14.017,12.499l-1.04,0.021
				c-7.982,0.17-14.591-6.164-14.76-14.146l-0.478-22.528c-0.185-8.731,7.354-15.631,16.034-14.676l4.521,0.498
				C1342.018,2418.71,1347.778,2426.088,1346.678,2434.146z"/>
			<path style="fill:#FFFFFF;" d="M1220.905,2418.152l-3.004,22.009c-0.961,7.046-6.906,12.348-14.017,12.499l-1.04,0.022
				c-7.983,0.17-14.591-6.165-14.76-14.147l-0.478-22.527c-0.185-8.731,7.354-15.632,16.035-14.677l4.521,0.498
				C1216.245,2402.717,1222.004,2410.095,1220.905,2418.152z"/>
			<path style="fill:#FFFFFF;" d="M1087.667,2420.978l-3.003,22.009c-0.962,7.046-6.906,12.347-14.018,12.498l-1.04,0.022
				c-7.983,0.17-14.59-6.164-14.76-14.147l-0.478-22.527c-0.185-8.731,7.354-15.632,16.034-14.677l4.522,0.498
				C1083.008,2405.544,1088.767,2412.922,1087.667,2420.978z"/>
			<path style="fill:#FFFFFF;" d="M975.207,2418.623l-3.003,22.008c-0.961,7.047-6.906,12.348-14.017,12.499l-1.04,0.022
				c-7.982,0.17-14.591-6.164-14.76-14.147l-0.479-22.528c-0.185-8.731,7.354-15.631,16.036-14.676l4.521,0.498
				C970.548,2403.188,976.306,2410.566,975.207,2418.623z"/>
			<g>
				
					<linearGradient id="SVGID_00000090293367957696984010000000897728290536263844_" gradientUnits="userSpaceOnUse" x1="-4863.6406" y1="2665.698" x2="-4607.1104" y2="2439.4133" gradientTransform="matrix(-1 0 0 1 -3228.738 0)">
					<stop  offset="0" style="stop-color:#A737D5"/>
					<stop  offset="1" style="stop-color:#EF497A"/>
				</linearGradient>
				<path style="fill:url(#SVGID_00000090293367957696984010000000897728290536263844_);" d="M1408.71,2415.442
					c0.276-4.756,5.246-6.794,8.906-3.912c10.337,8.141,14.538,20.788,19.631,32.582c5.936,13.744,11.625,27.595,16.679,41.69
					c5.328,14.858,9.87,29.984,13.33,45.344c6.859-18.346,14.831-36.216,24.942-53.171c2.684-4.502,10.265-1.869,8.762,3.478
					c-8.744,31.082-19.503,61.531-27.738,92.771c-2.906,11.022-17.981,8.418-19.104-2.174c-3.066-28.93-10.052-56.605-19.969-83.929
					c-4.716-12.99-9.979-25.778-15.432-38.473C1413.886,2438.404,1407.982,2427.925,1408.71,2415.442z"/>
				
					<linearGradient id="SVGID_00000103246899327845119640000008061001476895269558_" gradientUnits="userSpaceOnUse" x1="-4848.3115" y1="2683.075" x2="-4591.7827" y2="2456.7917" gradientTransform="matrix(-1 0 0 1 -3228.738 0)">
					<stop  offset="0" style="stop-color:#A737D5"/>
					<stop  offset="1" style="stop-color:#EF497A"/>
				</linearGradient>
				<path style="fill:url(#SVGID_00000103246899327845119640000008061001476895269558_);" d="M1394.51,2438.496
					c8.992-1.683,12.263,9.826,4.017,13.454c-54.561,24.005-61.694,91.647-22.279,132.605
					c18.231,18.944,42.419,33.647,65.324,46.286c23.231,12.819,49.163,22.613,76.121,19.904
					c62.488-6.278,70.982-69.878,52.3-118.954c-17.968-47.202-56.454-83.643-103.569-101.111c-6.086-2.256-3.728-12.164,2.511-9.927
					c44.207,15.852,81.832,47.124,105.14,88.047c21.441,37.641,34.303,90.737,6.237,128.523c-29.042,39.1-84.167,39.8-125.7,23.5
					c-45.686-17.929-102.57-51.193-120.757-99.464C1314.802,2510.792,1338.316,2449.009,1394.51,2438.496z"/>
			</g>
			<g>
				<path style="fill:#FFFFFF;" d="M779.473,3040.251c1.3,0,2.357-1.049,2.366-2.35l2.876-415.261
					c0.009-1.307-1.043-2.374-2.351-2.384c-0.005,0-0.011,0-0.017,0c-1.299,0-2.357,1.049-2.367,2.35l-2.876,415.261
					c-0.009,1.307,1.044,2.375,2.351,2.384C779.461,3040.251,779.467,3040.251,779.473,3040.251z"/>
				<path style="fill:#FFFFFF;" d="M783.009,2529.641c1.299,0,2.357-1.05,2.366-2.351l1.005-145.032
					c0.009-1.307-1.043-2.374-2.351-2.383c-0.005,0-0.011,0-0.017,0c-1.299,0-2.357,1.049-2.367,2.351l-1.005,145.032
					c-0.009,1.307,1.043,2.374,2.351,2.383C782.997,2529.64,783.003,2529.641,783.009,2529.641z"/>
			</g>
			
				<linearGradient id="SVGID_00000107579345557840025770000004991300013343713469_" gradientUnits="userSpaceOnUse" x1="-4866.355" y1="2316.2507" x2="-4927.3604" y2="2434.6016" gradientTransform="matrix(-1 0 0 1 -3228.738 0)">
				<stop  offset="0" style="stop-color:#A737D5"/>
				<stop  offset="1" style="stop-color:#EF497A"/>
			</linearGradient>
			
				<circle style="fill:url(#SVGID_00000107579345557840025770000004991300013343713469_);" cx="1671.803" cy="2382.572" r="25.302"/>
			
				<linearGradient id="SVGID_00000165939991616915842810000000031015035766201506_" gradientUnits="userSpaceOnUse" x1="-4659.0459" y1="2314.304" x2="-4720.0518" y2="2432.6548" gradientTransform="matrix(-1 0 0 1 -3228.738 0)">
				<stop  offset="0" style="stop-color:#A737D5"/>
				<stop  offset="1" style="stop-color:#EF497A"/>
			</linearGradient>
			
				<circle style="fill:url(#SVGID_00000165939991616915842810000000031015035766201506_);" cx="1464.494" cy="2380.625" r="25.302"/>
			
				<linearGradient id="SVGID_00000156576627714783381690000003741248549953545138_" gradientUnits="userSpaceOnUse" x1="-4449.7905" y1="2307.4912" x2="-4510.7959" y2="2425.8418" gradientTransform="matrix(-1 0 0 1 -3228.738 0)">
				<stop  offset="0" style="stop-color:#A737D5"/>
				<stop  offset="1" style="stop-color:#EF497A"/>
			</linearGradient>
			
				<circle style="fill:url(#SVGID_00000156576627714783381690000003741248549953545138_);" cx="1255.238" cy="2373.812" r="25.302"/>
			
				<linearGradient id="SVGID_00000067194070942750463900000002269089705202866332_" gradientUnits="userSpaceOnUse" x1="-4242.4814" y1="2297.7583" x2="-4303.4873" y2="2416.1091" gradientTransform="matrix(-1 0 0 1 -3228.738 0)">
				<stop  offset="0" style="stop-color:#A737D5"/>
				<stop  offset="1" style="stop-color:#EF497A"/>
			</linearGradient>
			
				<circle style="fill:url(#SVGID_00000067194070942750463900000002269089705202866332_);" cx="1047.929" cy="2364.079" r="25.302"/>
			<g>
				
					<linearGradient id="SVGID_00000178915726347127431500000004035831892383250566_" gradientUnits="userSpaceOnUse" x1="-4134.2939" y1="2040.0264" x2="-4355.7539" y2="2469.6584" gradientTransform="matrix(-1 0 0 1 -3228.738 0)">
					<stop  offset="0" style="stop-color:#FDF53F"/>
					<stop  offset="1" style="stop-color:#D93C65"/>
				</linearGradient>
				<path style="fill:url(#SVGID_00000178915726347127431500000004035831892383250566_);" d="M1028.686,2188.755
					c42.578,9.29,38.561,121.307,35.134,166.785c-0.806,10.702-9.719,18.957-20.451,18.957c-2.979,0-5.818-1.283-7.808-3.5
					c-1.99-2.217-2.941-5.183-2.624-8.146c3.678-34.373,11.504-133.359-19.841-138.652c0,0-22.484-3.979-26.267,39.574h-24.325
					C962.503,2263.773,975.156,2177.076,1028.686,2188.755z"/>
				
					<linearGradient id="SVGID_00000024710572575170386760000006554279105115022783_" gradientUnits="userSpaceOnUse" x1="-4341.5898" y1="2045.724" x2="-4563.1172" y2="2475.4871" gradientTransform="matrix(-1 0 0 1 -3228.738 0)">
					<stop  offset="0" style="stop-color:#FDF53F"/>
					<stop  offset="1" style="stop-color:#D93C65"/>
				</linearGradient>
				<path style="fill:url(#SVGID_00000024710572575170386760000006554279105115022783_);" d="M1235.995,2194.515
					c42.578,9.29,38.56,121.347,35.134,166.825c-0.806,10.701-9.719,18.977-20.451,18.977c-2.979,0-5.818-1.273-7.808-3.49
					c-1.99-2.217-2.941-5.178-2.624-8.141c3.678-34.373,11.504-133.436-19.841-138.729c0,0-22.484-3.109-26.267,39.498h-24.325
					C1169.812,2269.454,1182.464,2182.836,1235.995,2194.515z"/>
				
					<linearGradient id="SVGID_00000090982961880772125840000012818972521263738294_" gradientUnits="userSpaceOnUse" x1="-4548.8901" y1="2051.4705" x2="-4770.4619" y2="2481.3193" gradientTransform="matrix(-1 0 0 1 -3228.738 0)">
					<stop  offset="0" style="stop-color:#FDF53F"/>
					<stop  offset="1" style="stop-color:#D93C65"/>
				</linearGradient>
				<path style="fill:url(#SVGID_00000090982961880772125840000012818972521263738294_);" d="M1443.304,2200.303
					c42.578,9.29,38.561,121.373,35.134,166.851c-0.806,10.701-9.719,18.99-20.451,18.99c-2.979,0-5.818-1.267-7.808-3.484
					c-1.99-2.217-2.941-5.175-2.624-8.138c3.678-34.373,11.504-133.487-19.842-138.78c0,0-22.474-2.531-26.257,40.293l-24.336-0.846
					C1377.121,2275.189,1389.774,2188.624,1443.304,2200.303z"/>
				
					<linearGradient id="SVGID_00000060026758765094483390000018053645160829670555_" gradientUnits="userSpaceOnUse" x1="-4756.1792" y1="2058.0688" x2="-4977.853" y2="2488.1155" gradientTransform="matrix(-1 0 0 1 -3228.738 0)">
					<stop  offset="0" style="stop-color:#FDF53F"/>
					<stop  offset="1" style="stop-color:#D93C65"/>
				</linearGradient>
				<path style="fill:url(#SVGID_00000060026758765094483390000018053645160829670555_);" d="M1650.613,2206.996
					c42.578,9.29,38.561,121.433,35.134,166.911c-0.806,10.702-9.719,19.02-20.451,19.02c-2.979,0-5.818-1.251-7.808-3.469
					c-1.99-2.217-2.941-5.168-2.624-8.13c3.678-34.373,11.504-133.603-19.841-138.896c0,0-22.484-3.275-26.267,39.331h-24.325
					C1584.43,2281.763,1597.083,2195.316,1650.613,2206.996z"/>
			</g>
		</g>
		<g>
			
				<linearGradient id="SVGID_00000093137385982646464440000004948539255137074362_" gradientUnits="userSpaceOnUse" x1="7127.0513" y1="3289.1392" x2="7131.7104" y2="3149.3611" gradientTransform="matrix(1 0 0 1 -4857.9399 0)">
				<stop  offset="0" style="stop-color:#7C27DD"/>
				<stop  offset="1" style="stop-color:#2B41D9"/>
			</linearGradient>
			<path style="fill:url(#SVGID_00000093137385982646464440000004948539255137074362_);" d="M2316.169,3052.982
				c0.009-0.589-0.03-1.187-0.182-1.788c-8.916-35.348-45.372-53.466-45.372-53.466l-17.536,1.374
				c-10.082,31.156-16.583,46.365-14.964,54.875c0.045,0.239,0.117,0.466,0.181,0.696
				C2252.762,3055.967,2282.535,3056.81,2316.169,3052.982z"/>
			
				<linearGradient id="SVGID_00000038374013149728474250000013652826100590602134_" gradientUnits="userSpaceOnUse" x1="7293.1265" y1="2931.4072" x2="7005.1338" y2="3157.54" gradientTransform="matrix(1 0 0 1 -4857.9399 0)">
				<stop  offset="0" style="stop-color:#53D8FF"/>
				<stop  offset="1" style="stop-color:#3840F7"/>
			</linearGradient>
			<path style="fill:url(#SVGID_00000038374013149728474250000013652826100590602134_);" d="M2238.298,3054.674
				c0.781,2.842,2.879,5.055,5.564,5.62c20.577,4.327,53.282,0.845,67.013-0.951c3.029-0.395,5.244-3.198,5.294-6.361
				C2282.535,3056.81,2252.762,3055.967,2238.298,3054.674z"/>
			
				<linearGradient id="SVGID_00000079469545521914375670000018430176312270479749_" gradientUnits="userSpaceOnUse" x1="-2448.0063" y1="2934.8657" x2="-2463.6382" y2="3071.2905" gradientTransform="matrix(-1 0 0 1 -184.4432 0)">
				<stop  offset="0" style="stop-color:#F9B776"/>
				<stop  offset="1" style="stop-color:#F47960"/>
			</linearGradient>
			<path style="fill:url(#SVGID_00000079469545521914375670000018430176312270479749_);" d="M2285.055,2970.44l-7.677,36.96
				c-0.563,2.708-2.644,4.736-5.165,4.973c-3.085,0.29-7.478,0.46-11.895-0.189c-3.961-0.582-6.719-4.607-6.017-8.927l5.337-32.817
				H2285.055z"/>
			
				<linearGradient id="SVGID_00000027567720635546915350000001100794152274801582_" gradientUnits="userSpaceOnUse" x1="-2182.6201" y1="2998.5193" x2="-2461.1157" y2="3217.1948" gradientTransform="matrix(-1 0 0 1 -184.4432 0)">
				<stop  offset="0" style="stop-color:#53D8FF"/>
				<stop  offset="1" style="stop-color:#3840F7"/>
			</linearGradient>
			<path style="fill:url(#SVGID_00000027567720635546915350000001100794152274801582_);" d="M2089.302,3054.367
				c18.728-0.524,28.415-2.73,33.423-4.777c0.011,1.862,0.001,3.757-0.059,5.721c-0.065,2.097-1.618,3.772-3.529,3.76
				l-102.829-0.664c-3.282-0.021-5.2-3.827-3.777-6.836C2026.012,3052.685,2060.351,3055.177,2089.302,3054.367z"/>
			
				<linearGradient id="SVGID_00000036219739785642464720000000082523750880194742_" gradientUnits="userSpaceOnUse" x1="-2262.9329" y1="3375.5781" x2="-2258.2734" y2="3235.7986" gradientTransform="matrix(-1 0 0 1 -184.4432 0)">
				<stop  offset="0" style="stop-color:#7C27DD"/>
				<stop  offset="1" style="stop-color:#2B41D9"/>
			</linearGradient>
			<path style="fill:url(#SVGID_00000036219739785642464720000000082523750880194742_);" d="M2012.53,3051.572
				c0.124-0.262,0.23-0.529,0.407-0.776c9.081-12.689,32.21-37.956,77.915-48.915l21.926-0.692c0,0,9.763,16.969,9.947,48.402
				c-5.008,2.047-14.695,4.253-33.423,4.777C2060.351,3055.177,2026.012,3052.685,2012.53,3051.572z"/>
			
				<linearGradient id="SVGID_00000107565974980027013400000008733331664769681282_" gradientUnits="userSpaceOnUse" x1="-2283.3352" y1="2952.3191" x2="-2297.958" y2="3079.9368" gradientTransform="matrix(-1 0 0 1 -184.4432 0)">
				<stop  offset="0" style="stop-color:#F9B776"/>
				<stop  offset="1" style="stop-color:#F47960"/>
			</linearGradient>
			<path style="fill:url(#SVGID_00000107565974980027013400000008733331664769681282_);" d="M2116.844,2967.961
				c-0.243,1.634-3.249,26.473-4.413,36.104c-0.277,2.288-1.934,4.059-4.024,4.309c-3.733,0.446-9.775,0.851-15.061-0.232
				c-2.851-0.584-4.915-3.323-4.915-6.508v-38.991L2116.844,2967.961z"/>
			
				<linearGradient id="SVGID_00000105401898005795615970000010683984242235435661_" gradientUnits="userSpaceOnUse" x1="-4185.4414" y1="2948.2388" x2="-4167.8994" y2="2398.6028" gradientTransform="matrix(-1 0 0 1 -1996.2784 0)">
				<stop  offset="0" style="stop-color:#7C27DD"/>
				<stop  offset="1" style="stop-color:#2B41D9"/>
			</linearGradient>
			<path style="fill:url(#SVGID_00000105401898005795615970000010683984242235435661_);" d="M2270.404,2485.098
				c0,0,35.085,311.866,15.594,506.782c0,0-23.39,0-35.085-3.899c0,0-36.458-304.924-48.253-392.18
				c-0.444-3.289-5.14-3.438-5.785-0.183c-14.552,73.408-71.708,361.279-78.504,388.465c0,0-19.492,7.797-35.085,0
				c0,0,31.186-417.121,54.576-491.189L2270.404,2485.098z"/>
			
				<linearGradient id="SVGID_00000150821492133793623900000006818289554677769097_" gradientUnits="userSpaceOnUse" x1="2246.7246" y1="2233.9456" x2="1696.3226" y2="2784.3474">
				<stop  offset="0" style="stop-color:#FDF53F"/>
				<stop  offset="1" style="stop-color:#D93C65"/>
			</linearGradient>
			<path style="fill:url(#SVGID_00000150821492133793623900000006818289554677769097_);" d="M2340.574,2122.554
				c0,0-148.137-23.39-265.087,7.797l7.797,120.848c0,0,31.186,167.628,54.576,241.697c0,0,89.662,15.593,132.543-7.797
				c0,0,35.085-210.51,54.576-241.697C2324.98,2243.402,2344.472,2161.537,2340.574,2122.554z"/>
			
				<linearGradient id="SVGID_00000078727911714024119180000005770860005388002718_" gradientUnits="userSpaceOnUse" x1="-4248.7007" y1="2070.0227" x2="-4178.6021" y2="2070.0227" gradientTransform="matrix(-1 0 0 1 -1996.2784 0)">
				<stop  offset="0" style="stop-color:#F9B776"/>
				<stop  offset="1" style="stop-color:#F47960"/>
			</linearGradient>
			<path style="fill:url(#SVGID_00000078727911714024119180000005770860005388002718_);" d="M2237.665,2016.033l14.757,99.797
				c0,0-41.229,18.94-70.099-0.813l6.216-70.431L2237.665,2016.033z"/>
			<g>
				
					<linearGradient id="SVGID_00000178906312224219407680000005944744386512286909_" gradientUnits="userSpaceOnUse" x1="3452.6592" y1="-3163.75" x2="3575.4602" y2="-3193.6379" gradientTransform="matrix(-0.8757 -0.4828 -0.4828 0.8757 -2129.9531 1095.1436)">
					<stop  offset="0" style="stop-color:#F9B776"/>
					<stop  offset="1" style="stop-color:#F47960"/>
				</linearGradient>
				<path style="fill:url(#SVGID_00000178906312224219407680000005944744386512286909_);" d="M2174.127,1951.049
					c-0.465,0.843-9.36,51.167-14.834,82.317c-2.263,12.871,7.198,24.826,20.244,25.599l11.945,0.707
					c21.949,1.299,41.277-14.327,44.604-36.061l8.637-56.428C2244.723,1967.183,2185.41,1930.582,2174.127,1951.049z"/>
				
					<linearGradient id="SVGID_00000132768531295084170090000008446911309892796089_" gradientUnits="userSpaceOnUse" x1="-4284.1865" y1="-1338.0911" x2="-4157.7012" y2="-1338.0911" gradientTransform="matrix(-0.8757 -0.4828 -0.4828 0.8757 -2129.9531 1095.1436)">
					<stop  offset="0" style="stop-color:#2B3582"/>
					<stop  offset="1" style="stop-color:#150E42"/>
				</linearGradient>
				<path style="fill:url(#SVGID_00000132768531295084170090000008446911309892796089_);" d="M2257.602,1967.322
					c4.58-5.696,8.573-14.904-1.18-24.589c-9.874-9.805-21.077-7.361-28.183-4.073c-3.144,1.456-7.021,0.811-9.26-1.835
					c-0.995-1.175-2.472-1.976-4.662-1.729c-4.131,0.464-7.818-2.264-8.309-6.392c-0.841-7.076-4.61-15.409-17.123-17.826
					c-22.949-4.436-34.397,18.531-33.988,34.673c0.409,16.142,25.564,19.537,39.835,16.857c10.483-1.969,19.547,7.243,23.62,12.273
					c1.479,1.825,2.031,4.217,1.498,6.505l-3.628,15.594c2.513,4.848,4.979,9.799,8.509,13.935c2.542,2.979,5.328,4.623,8.283,5.318
					c4.279-7.964,16.246-9.315,21.807-9.494c2.128-0.068,4.115-1.006,5.514-2.61c4.195-4.812,10.762-15.548-1.808-26.09
					C2255.403,1975.218,2255.046,1970.501,2257.602,1967.322z"/>
				
					<linearGradient id="SVGID_00000023283060151828135660000017076839604050103457_" gradientUnits="userSpaceOnUse" x1="3448.3347" y1="-3181.5393" x2="3571.1362" y2="-3211.4275" gradientTransform="matrix(-0.8757 -0.4828 -0.4828 0.8757 -2129.9531 1095.1436)">
					<stop  offset="0" style="stop-color:#F9B776"/>
					<stop  offset="1" style="stop-color:#F47960"/>
				</linearGradient>
				<path style="fill:url(#SVGID_00000023283060151828135660000017076839604050103457_);" d="M2228.877,2032.728
					c0,0,0.495-28.158,11.891-30.803c11.396-2.645,23.692,5.595,13.945,22.453
					C2242.588,2045.349,2228.877,2032.728,2228.877,2032.728z"/>
			</g>
			
				<linearGradient id="SVGID_00000008854350719287091610000015270770190969772730_" gradientUnits="userSpaceOnUse" x1="2323.6194" y1="2310.8398" x2="1773.2175" y2="2861.2417">
				<stop  offset="0" style="stop-color:#FDF53F"/>
				<stop  offset="1" style="stop-color:#D93C65"/>
			</linearGradient>
			<path style="fill:url(#SVGID_00000008854350719287091610000015270770190969772730_);" d="M2340.574,2122.554
				c0,0,230.001,249.493-40.933,345.001v-19.491c0,0,101.356-85.764,23.39-202.713
				C2323.031,2245.351,2332.778,2134.249,2340.574,2122.554z"/>
			
				<linearGradient id="SVGID_00000119109815758923746840000001955435297707315635_" gradientUnits="userSpaceOnUse" x1="-4231.6406" y1="2427.7292" x2="-4356.3872" y2="2534.2837" gradientTransform="matrix(-1 0 0 1 -1996.2784 0)">
				<stop  offset="0" style="stop-color:#F9B776"/>
				<stop  offset="1" style="stop-color:#F47960"/>
			</linearGradient>
			<path style="fill:url(#SVGID_00000119109815758923746840000001955435297707315635_);" d="M2297.692,2450.013
				c0,0-35.085-23.39-50.678-15.593c-15.594,7.796-15.594,19.491-15.594,19.491s7.797,15.594,19.492,11.695
				c11.695-3.898,38.983,3.899,50.678,0C2301.591,2465.606,2305.489,2450.013,2297.692,2450.013z"/>
			<g>
				
					<linearGradient id="SVGID_00000041296288814702107520000015770102646963577272_" gradientUnits="userSpaceOnUse" x1="2115.4192" y1="2102.6399" x2="1565.0176" y2="2653.0417">
					<stop  offset="0" style="stop-color:#FDF53F"/>
					<stop  offset="1" style="stop-color:#D93C65"/>
				</linearGradient>
				<path style="fill:url(#SVGID_00000041296288814702107520000015770102646963577272_);" d="M1896.131,2210.678
					c74.258,11.142,115.975-39.556,152.041-67.979c47.616-37.525,91.352-15.426,91.352-15.426l-46.854,109.366
					c-75.833,71.5-157.511,43.17-206.528,20C1885.387,2237.921,1890.389,2222.255,1896.131,2210.678z"/>
				
					<linearGradient id="SVGID_00000111913311536275418840000012760210703296030136_" gradientUnits="userSpaceOnUse" x1="1835.6506" y1="2213.187" x2="1964.7449" y2="2147.5076">
					<stop  offset="0" style="stop-color:#F9B776"/>
					<stop  offset="1" style="stop-color:#F47960"/>
				</linearGradient>
				<path style="fill:url(#SVGID_00000111913311536275418840000012760210703296030136_);" d="M1791.762,2166.376l24.626,13.251
					c29.533,17.981,55.961,27.483,79.743,31.051c-5.742,11.577-10.744,27.243-9.99,45.962
					c-31.203-14.749-50.766-32.452-50.766-32.452C1779.59,2190.924,1791.762,2166.376,1791.762,2166.376z"/>
			</g>
			
				<linearGradient id="SVGID_00000117653958722970760030000010414955900496297405_" gradientUnits="userSpaceOnUse" x1="1823.923" y1="2155.7246" x2="1654.0625" y2="2228.1982">
				<stop  offset="0" style="stop-color:#F9B776"/>
				<stop  offset="1" style="stop-color:#F47960"/>
			</linearGradient>
			<path style="fill:url(#SVGID_00000117653958722970760030000010414955900496297405_);" d="M1719.216,2201.077
				c1.59-5.285,5.497-9.56,10.618-11.62l49.977-20.097c0,0,0.754-6.41-10.559-10.766c-11.315-4.355-8.669-17.027-8.669-17.027
				s15.456,7.051,38.086,18.234c12.94,6.395,20.202,17.688,24.052,26.188l-12.865,16.919c-30.802,9.253-61.97,11.023-93.404,7.352
				L1719.216,2201.077z"/>
		</g>
		<g>
			<g>
				
					<linearGradient id="SVGID_00000011008523915002459560000011179689631758884758_" gradientUnits="userSpaceOnUse" x1="902.9036" y1="3071.7869" x2="694.0372" y2="3288.925" gradientTransform="matrix(0.9919 -0.1267 0.1267 0.9919 -389.5181 -270.6762)">
					<stop  offset="0" style="stop-color:#CB236D"/>
					<stop  offset="1" style="stop-color:#4C246D"/>
				</linearGradient>
				<path style="fill:url(#SVGID_00000011008523915002459560000011179689631758884758_);" d="M889.822,3022.802
					c0,0-117.978,130.068-216.509,75.097c-79.188-44.18,33.317-32.635,128.748-53.51c7.489-1.638,5.528-12.832-2.071-11.825
					c-74.666,9.9-188.597,17.991-208.386-20.942c-29.873-58.773-0.903-39.712,90.015-31.222c90.919,8.49,108.437-13.96,49.09-27.943
					c-59.347-13.982-153.757,16.944-175.75-11.814c-21.993-28.758-34.014-85.844-42.78-110.394
					c-8.766-24.55,113.175-61.388,146.142-29.158c32.967,32.229,59.738,104.166,98.861,117.3
					c39.123,13.134-2.962-50.5-28.909-83.344c-25.947-32.845-36.233-57.255,15.606-49.421
					c51.839,7.834,79.242,71.103,84.707,118.329c5.465,47.226,23.723,73.641,22.897,50.277
					c-0.827-23.365-9.305-95.016-25.874-116.559C809.04,2816.128,927.318,2842.418,889.822,3022.802z"/>
				<path style="opacity:0.53;fill:#FFFFFF;" d="M880.219,3024.042c-0.519,0.197-1.126,0.11-1.574-0.283
					c-101.264-88.592-271.106-152.983-272.809-153.623c-0.802-0.301-1.207-1.194-0.907-1.998c0.3-0.798,1.195-1.206,1.997-0.905
					c1.709,0.64,172.068,65.224,273.762,154.194c0.644,0.562,0.709,1.542,0.146,2.187
					C880.661,3023.813,880.449,3023.955,880.219,3024.042z"/>
			</g>
			<g>
				
					<linearGradient id="SVGID_00000086662363046575585140000011745393340290463636_" gradientUnits="userSpaceOnUse" x1="695.8098" y1="3513.1121" x2="1198.4725" y2="2875.8994" gradientTransform="matrix(0.9919 -0.1267 0.1267 0.9919 -389.5181 -270.6762)">
					<stop  offset="0" style="stop-color:#CB236D"/>
					<stop  offset="1" style="stop-color:#4C246D"/>
				</linearGradient>
				<path style="fill:url(#SVGID_00000086662363046575585140000011745393340290463636_);" d="M961.048,3105.873
					c0,0-215.457,7.109-251.17-126.718c-28.702-107.555,57.234,1.491,157.164,67.791c7.843,5.203,16.036-6.089,8.655-11.928
					c-72.515-57.369-176.979-150.897-159.562-201.603c26.293-76.546,34.238-34.722,104.426,52.684s104.945,83.671,66.572,19.406
					c-38.373-64.265-146.293-121.076-139.728-165.032c6.565-43.957,46.621-103.323,60.776-132.025
					c14.154-28.702,150.805,47.331,150.555,103.927c-0.25,56.597-40.798,141.654-18.955,187.365
					c21.844,45.711,41.991-45.753,48.78-96.687c6.789-50.934,19.522-80.856,56.902-28.462
					c37.38,52.394,5.013,130.603-31.953,175.766c-36.966,45.163-44.655,83.826-24.763,63.137
					c19.892-20.689,75.816-89.376,80.653-122.387C1074.238,2858.094,1152.107,2984.827,961.048,3105.873z"/>
				<path style="opacity:0.53;fill:#FFFFFF;" d="M951.751,3098.468c-0.617-0.289-1.059-0.899-1.095-1.63
					c-8.409-164.958-96.737-369.7-97.629-371.748c-0.42-0.965,0.021-2.084,0.987-2.507c0.96-0.417,2.084,0.023,2.504,0.988
					c0.895,2.053,89.497,207.416,97.939,373.076c0.055,1.048-0.753,1.942-1.804,1.997
					C952.331,3098.661,952.024,3098.595,951.751,3098.468z"/>
			</g>
		</g>
	</g>
</g>
</svg>
