<?xml version="1.0" encoding="utf-8"?>
<!-- Generator: Adobe Illustrator 27.5.0, SVG Export Plug-In . SVG Version: 6.00 Build 0)  -->
<svg version="1.1" xmlns="http://www.w3.org/2000/svg" xmlns:xlink="http://www.w3.org/1999/xlink" x="0px" y="0px"
	 viewBox="0 0 3710 3710" style="enable-background:new 0 0 3710 3710;" xml:space="preserve">

<g id="Illustration">
	<g>
		<g>
			
				<linearGradient id="SVGID_1_" gradientUnits="userSpaceOnUse" x1="-3000.3291" y1="-346.3889" x2="-2777.2075" y2="-346.3889" gradientTransform="matrix(-0.8507 -0.5257 -0.5257 0.8507 471.131 139.0278)">
				<stop  offset="0" style="stop-color:#FF9085"/>
				<stop  offset="1" style="stop-color:#FB6FBB"/>
			</linearGradient>
			<path style="fill:url(#SVGID_1_);" d="M3054.579,1241.576l-63.134,134.415c0,0,135.041,85.476,180.842,71.199
				C3218.09,1432.912,3237.665,1406.053,3054.579,1241.576z"/>
			
				<linearGradient id="SVGID_00000061433095353730413920000009445079559334495669_" gradientUnits="userSpaceOnUse" x1="2888.0249" y1="1678.042" x2="2798.3369" y2="1008.8287">
				<stop  offset="0" style="stop-color:#FFC444"/>
				<stop  offset="0.9964" style="stop-color:#F36F56"/>
			</linearGradient>
			<path style="fill:url(#SVGID_00000061433095353730413920000009445079559334495669_);" d="M2942.502,1434.005
				c-0.992-2.844-53.682,56.053-179.107,60.658c0,0,105.098,187.938,145.243,195.286S3010.764,1629.741,2942.502,1434.005z"/>
			
				<linearGradient id="SVGID_00000072979869215511347550000012241839336641164184_" gradientUnits="userSpaceOnUse" x1="-2607.6443" y1="556.5317" x2="-2489.2061" y2="-267.9818" gradientTransform="matrix(-0.8507 -0.5257 -0.5257 0.8507 471.131 139.0278)">
				<stop  offset="0" style="stop-color:#AA80F9"/>
				<stop  offset="0.9964" style="stop-color:#6165D7"/>
			</linearGradient>
			<path style="fill:url(#SVGID_00000072979869215511347550000012241839336641164184_);" d="M2726.529,1498.062
				c-4.204,5.193-100.193,204.481-147.346,249.217c-47.153,44.737-68.004-70.379-72.7-129.949
				c-4.697-59.57,6.479-171.906,6.479-171.906L2726.529,1498.062z"/>
			
				<linearGradient id="SVGID_00000181784779291859779850000014443695070518524339_" gradientUnits="userSpaceOnUse" x1="-1179.8623" y1="84.9218" x2="-1173.7885" y2="-328.1122" gradientTransform="matrix(-0.8507 -0.5257 -0.5257 0.8507 471.131 139.0278)">
				<stop  offset="0" style="stop-color:#FFC444"/>
				<stop  offset="0.9964" style="stop-color:#F36F56"/>
			</linearGradient>
			<path style="fill:url(#SVGID_00000181784779291859779850000014443695070518524339_);" d="M1535.881,931.835
				c0,0-145.492,123.82-201.321,121.399c-55.829-2.421-43.973-265.27-43.973-265.27L1535.881,931.835z"/>
			
				<linearGradient id="SVGID_00000060740358370877003320000018311391273158332603_" gradientUnits="userSpaceOnUse" x1="-952.8143" y1="794.2069" x2="-834.3761" y2="-30.3063" gradientTransform="matrix(-0.8507 -0.5257 -0.5257 0.8507 471.131 139.0278)">
				<stop  offset="0" style="stop-color:#FF9085"/>
				<stop  offset="1" style="stop-color:#FB6FBB"/>
			</linearGradient>
			<path style="fill:url(#SVGID_00000060740358370877003320000018311391273158332603_);" d="M1247.576,774.498
				c7.486,4.309-81.336,143.603-151.367,173.574c-70.032,29.971-115.516-243.064-115.516-243.064S1135.505,710,1247.576,774.498z"/>
			
				<linearGradient id="SVGID_00000047045174193769546860000013979439715079484069_" gradientUnits="userSpaceOnUse" x1="-768.8942" y1="402.272" x2="-512.064" y2="402.272" gradientTransform="matrix(-0.8507 -0.5257 -0.5257 0.8507 471.131 139.0278)">
				<stop  offset="0" style="stop-color:#AA80F9"/>
				<stop  offset="0.9964" style="stop-color:#6165D7"/>
			</linearGradient>
			<path style="fill:url(#SVGID_00000047045174193769546860000013979439715079484069_);" d="M863.822,709.252
				c0,0,14.37,204.796-3.641,261.458c-18.01,56.662-147.954-109.369-225.495-122.161
				C634.686,848.549,695.464,739.036,863.822,709.252z"/>
			
				<linearGradient id="SVGID_00000140716697932151421580000011573177587936170941_" gradientUnits="userSpaceOnUse" x1="-664.3159" y1="846.774" x2="-240.6681" y2="-328.5047" gradientTransform="matrix(-0.8507 -0.5257 -0.5257 0.8507 471.131 139.0278)">
				<stop  offset="0" style="stop-color:#FFC444"/>
				<stop  offset="0.9964" style="stop-color:#F36F56"/>
			</linearGradient>
			<path style="fill:url(#SVGID_00000140716697932151421580000011573177587936170941_);" d="M552.947,980.735l-23.664,138.898
				c0,0,109.727,21.468,143.514,23.271C706.584,1144.707,725.993,1075.775,552.947,980.735z"/>
			<path style="fill:#B2B8C1;" d="M733.936,744.409c83.877-44.232,176.423-60.815,270.451-50.4
				c93.777,10.388,184.01,41.602,269.856,79.694c89.975,39.925,176.181,87.859,261.969,135.965
				c115.102,64.544,229.013,131.16,342.681,198.192c57.296,33.789,114.548,67.653,171.91,101.332
				c57.002,33.468,113.566,68.252,171.961,99.248c57.123,30.32,116.639,55.764,176.843,79.264
				c57.833,22.575,116.073,45.503,175.255,64.322c99.958,31.785,218.455,49.594,316.423,1.098
				c40.962-20.276,71.372-53.443,95.821-91.449c29.692-46.161,49.576-93.028,57.002-147.599
				c3.234-23.761,6.044-47.315,11.329-70.746c0.876-3.887,7.443-2.939,6.976,1.087c-5.782,49.8-4.181,101.447-21.307,149.25
				c-15.569,43.453-40.886,87.52-71.051,122.507c-64.395,74.682-168.659,93.992-262.937,86.046
				c-53.024-4.469-104.946-17.372-155.246-34.396c-59.78-20.232-119.014-42.99-177.629-66.365
				c-59.149-23.588-117.566-49.321-173.554-79.737c-58.186-31.611-114.835-66.317-171.813-100.041
				c-214.524-126.975-427.136-258.548-648.213-373.988c-84.246-43.991-171.166-84.29-262.791-110.383
				c-88.006-25.062-182.565-36.707-272.365-13.899c-101.569,25.795-193.988,86.778-249.241,176.738
				c-32.243,52.495-44.928,109.514-52.204,170.039c-3.064,25.467-6.286,51.193-4.647,76.886
				c1.731,27.095,28.612,118.28,23.23,139.588c-1.662,6.577-12.912,5.08-11.974-1.866c3.318-24.591-28.201-118.053-29.516-142.825
				c-1.419-26.765,1.759-53.662,4.639-80.23c3.067-28.31,6.922-56.68,14.026-84.294
				C565.709,876.774,643.345,792.183,733.936,744.409z"/>
		</g>
		
			<linearGradient id="SVGID_00000103972550940018897610000014326228258321759898_" gradientUnits="userSpaceOnUse" x1="1900.4413" y1="962.8107" x2="3118.8491" y2="962.8107">
			<stop  offset="0" style="stop-color:#FF9085"/>
			<stop  offset="1" style="stop-color:#FB6FBB"/>
		</linearGradient>
		<path style="fill:url(#SVGID_00000103972550940018897610000014326228258321759898_);" d="M1938.322,692.841l-35.928,146.873
			c-7.971,32.585,9.069,66.103,40.092,78.864l877.151,360.807c34.79,14.31,74.582-2.418,88.697-37.289l205.491-507.68
			c18.053-44.601-14.772-93.299-62.888-93.299H2004.223C1972.964,641.117,1945.75,662.476,1938.322,692.841z"/>
		<path style="fill:#BFC8D6;" d="M2849.645,1351.122c-0.451,0-0.911-0.046-1.373-0.138c-4.934-0.995-9.816-2.481-14.512-4.411
			l-25.526-10.5c-3.524-1.448-5.206-5.481-3.756-9.004c1.448-3.524,5.478-5.21,9.005-3.756l25.526,10.5
			c3.884,1.597,7.92,2.823,11.996,3.647c3.734,0.755,6.151,4.393,5.396,8.129C2855.74,1348.86,2852.862,1351.122,2849.645,1351.122z
			 M2890.377,1347.457c-2.747,0-5.343-1.652-6.416-4.361c-1.403-3.542,0.332-7.552,3.874-8.954
			c11.768-4.661,21.843-12.538,29.134-22.782c2.208-3.108,6.519-3.83,9.621-1.62c3.104,2.21,3.83,6.517,1.62,9.621
			c-8.84,12.42-21.046,21.967-35.296,27.61C2892.082,1347.3,2891.223,1347.457,2890.377,1347.457z M2772.495,1320.814
			c-0.874,0-1.762-0.167-2.621-0.521l-38.358-15.777c-3.524-1.448-5.206-5.481-3.756-9.005c1.448-3.524,5.477-5.21,9.004-3.756
			l38.358,15.777c3.524,1.448,5.206,5.481,3.756,9.005C2777.782,1319.202,2775.208,1320.814,2772.495,1320.814z M2695.778,1289.257
			c-0.874,0-1.762-0.167-2.621-0.521l-38.358-15.779c-3.523-1.45-5.206-5.481-3.756-9.005s5.478-5.208,9.005-3.756l38.358,15.779
			c3.524,1.45,5.206,5.481,3.756,9.005C2701.065,1287.646,2698.491,1289.257,2695.778,1289.257z M2939.911,1284.693
			c-0.862,0-1.738-0.162-2.587-0.505c-3.532-1.43-5.237-5.452-3.807-8.984l15.562-38.445c1.43-3.532,5.446-5.237,8.984-3.807
			c3.532,1.43,5.237,5.452,3.806,8.984l-15.562,38.445C2945.221,1283.064,2942.638,1284.693,2939.911,1284.693z M2619.06,1257.701
			c-0.874,0-1.762-0.167-2.621-0.521l-38.358-15.779c-3.524-1.45-5.206-5.481-3.756-9.005c1.448-3.524,5.478-5.208,9.004-3.756
			l38.358,15.779c3.524,1.45,5.206,5.481,3.756,9.005C2624.347,1256.089,2621.774,1257.701,2619.06,1257.701z M2542.343,1226.145
			c-0.874,0-1.762-0.167-2.621-0.521l-38.358-15.779c-3.524-1.45-5.207-5.481-3.756-9.005c1.45-3.524,5.479-5.208,9.004-3.756
			l38.358,15.779c3.524,1.45,5.206,5.481,3.756,9.005C2547.63,1224.533,2545.057,1226.145,2542.343,1226.145z M2971.034,1207.801
			c-0.863,0-1.738-0.162-2.587-0.505c-3.532-1.43-5.237-5.452-3.807-8.984l15.562-38.447c1.428-3.532,5.449-5.238,8.984-3.807
			c3.532,1.43,5.237,5.452,3.807,8.984l-15.562,38.447C2976.345,1206.172,2973.761,1207.801,2971.034,1207.801z M2465.626,1194.587
			c-0.874,0-1.762-0.167-2.621-0.521l-38.358-15.777c-3.524-1.448-5.206-5.481-3.756-9.004c1.45-3.524,5.479-5.208,9.005-3.756
			l38.358,15.777c3.524,1.448,5.206,5.481,3.756,9.005C2470.913,1192.975,2468.34,1194.587,2465.626,1194.587z M2388.909,1163.031
			c-0.874,0-1.762-0.167-2.621-0.521l-38.358-15.777c-3.524-1.449-5.206-5.481-3.756-9.005s5.479-5.208,9.004-3.756l38.358,15.777
			c3.524,1.448,5.206,5.481,3.756,9.005C2394.196,1161.418,2391.623,1163.031,2388.909,1163.031z M2312.192,1131.474
			c-0.874,0-1.762-0.167-2.621-0.521l-38.358-15.779c-3.524-1.45-5.206-5.481-3.756-9.005s5.481-5.21,9.004-3.756l38.358,15.779
			c3.524,1.45,5.207,5.481,3.756,9.005C2317.479,1129.862,2314.905,1131.474,2312.192,1131.474z M3002.157,1130.906
			c-0.862,0-1.738-0.162-2.587-0.505c-3.532-1.43-5.237-5.452-3.807-8.984l15.563-38.447c1.428-3.534,5.45-5.238,8.984-3.807
			c3.532,1.43,5.237,5.452,3.807,8.984l-15.563,38.447C3007.468,1129.278,3004.885,1130.906,3002.157,1130.906z M2235.475,1099.918
			c-0.874,0-1.762-0.167-2.621-0.52l-38.358-15.779c-3.524-1.45-5.206-5.481-3.756-9.005c1.45-3.524,5.481-5.21,9.005-3.756
			l38.358,15.779c3.524,1.45,5.206,5.481,3.756,9.005C2240.762,1098.306,2238.188,1099.918,2235.475,1099.918z M2158.758,1068.36
			c-0.874,0-1.762-0.167-2.621-0.52l-38.358-15.777c-3.524-1.449-5.206-5.481-3.756-9.005c1.45-3.524,5.474-5.21,9.005-3.756
			l38.358,15.777c3.523,1.449,5.206,5.481,3.756,9.005C2164.045,1066.748,2161.471,1068.36,2158.758,1068.36z M3033.283,1054.012
			c-0.862,0-1.738-0.162-2.587-0.505c-3.532-1.43-5.237-5.452-3.807-8.984l15.562-38.447c1.43-3.532,5.445-5.238,8.984-3.807
			c3.532,1.43,5.237,5.452,3.807,8.984l-15.562,38.447C3038.594,1052.384,3036.01,1054.012,3033.283,1054.012z M2082.041,1036.803
			c-0.874,0-1.762-0.167-2.621-0.52l-38.358-15.777c-3.524-1.45-5.206-5.481-3.756-9.005c1.448-3.524,5.474-5.21,9.005-3.756
			l38.358,15.777c3.523,1.449,5.206,5.481,3.756,9.005C2087.328,1035.192,2084.754,1036.803,2082.041,1036.803z M2005.323,1005.247
			c-0.874,0-1.762-0.167-2.621-0.52l-38.358-15.779c-3.524-1.45-5.206-5.481-3.756-9.005c1.45-3.525,5.486-5.205,9.004-3.756
			l38.358,15.779c3.524,1.45,5.206,5.481,3.756,9.005C2010.61,1003.635,2008.037,1005.247,2005.323,1005.247z M3064.406,977.119
			c-0.862,0-1.738-0.162-2.587-0.505c-3.532-1.43-5.235-5.452-3.807-8.984l15.562-38.447c1.428-3.534,5.449-5.238,8.984-3.807
			c3.532,1.43,5.235,5.452,3.807,8.984l-15.562,38.447C3069.717,975.49,3067.133,977.119,3064.406,977.119z M1928.606,973.691
			c-0.874,0-1.762-0.167-2.621-0.521l-25.009-10.288c-4.881-2.009-9.567-4.507-13.926-7.425c-3.168-2.117-4.017-6.402-1.898-9.569
			c2.114-3.168,6.404-4.019,9.569-1.898c3.601,2.407,7.472,4.47,11.506,6.131l25.008,10.288c3.524,1.45,5.206,5.481,3.756,9.005
			C1933.893,972.079,1931.32,973.691,1928.606,973.691z M1864.761,925.16c-2.675,0-5.218-1.563-6.342-4.176
			c-4.266-9.922-6.429-20.413-6.429-31.179c-0.002-4.438,0.381-8.924,1.135-13.328c0.642-3.756,4.203-6.278,7.965-5.634
			c3.756,0.643,6.278,4.209,5.634,7.965c-0.623,3.635-0.938,7.334-0.936,10.994c0,8.885,1.785,17.541,5.307,25.732
			c1.504,3.5-0.113,7.558-3.613,9.063C1866.594,924.979,1865.67,925.16,1864.761,925.16z M3095.53,900.225
			c-0.863,0-1.738-0.162-2.587-0.505c-3.532-1.43-5.235-5.452-3.807-8.984l15.562-38.447c1.43-3.532,5.445-5.238,8.984-3.807
			c3.532,1.43,5.237,5.452,3.806,8.984l-15.562,38.447C3100.84,898.596,3098.257,900.225,3095.53,900.225z M1869.612,844.216
			c-0.542,0-1.093-0.064-1.644-0.199c-3.702-0.906-5.968-4.64-5.063-8.341l9.855-40.29c0.906-3.702,4.642-5.971,8.341-5.063
			c3.702,0.906,5.968,4.64,5.063,8.341l-9.855,40.29C1875.537,842.106,1872.718,844.216,1869.612,844.216z M3126.653,823.331
			c-0.863,0-1.738-0.162-2.587-0.505c-3.532-1.43-5.237-5.452-3.807-8.984l15.562-38.447c1.428-3.532,5.447-5.238,8.984-3.807
			c3.532,1.43,5.237,5.452,3.807,8.984l-15.562,38.447C3131.964,821.702,3129.38,823.331,3126.653,823.331z M1889.322,763.639
			c-0.542,0-1.093-0.064-1.644-0.199c-3.702-0.906-5.968-4.64-5.063-8.341l9.855-40.29l6.766,1.379l6.651,1.839l-9.869,40.349
			C1895.248,761.528,1892.428,763.639,1889.322,763.639z M3154.399,745.46c-0.164,0-0.329-0.005-0.495-0.017
			c-3.802-0.271-6.663-3.571-6.394-7.371c0.108-1.519,0.162-3.034,0.162-4.539c0-10.936-2.845-21.841-8.227-31.534
			c-1.849-3.33-0.648-7.531,2.683-9.38c3.33-1.854,7.532-0.647,9.38,2.683c6.517,11.737,9.961,24.955,9.961,38.231
			c0,1.829-0.064,3.67-0.195,5.516C3161.015,742.684,3157.987,745.46,3154.399,745.46z M1919.947,687.82
			c-1.843,0-3.682-0.734-5.04-2.186c-2.604-2.782-2.457-7.148,0.325-9.751c11.179-10.458,25.029-17.408,40.054-20.099
			c3.733-0.675,7.334,1.822,8.007,5.575c0.672,3.751-1.824,7.335-5.575,8.007c-12.399,2.22-23.83,7.958-33.06,16.593
			C1923.328,687.203,1921.635,687.82,1919.947,687.82z M3116.377,676.795c-1.1,0-2.215-0.264-3.252-0.82
			c-9.451-5.063-19.803-7.632-30.771-7.632h-6.04c-3.81,0-6.899-3.089-6.899-6.899s3.089-6.899,6.899-6.899h6.04
			c13.266,0,25.813,3.118,37.29,9.269c3.359,1.799,4.622,5.981,2.822,9.34C3121.221,675.475,3118.839,676.795,3116.377,676.795z
			 M3034.836,668.343h-41.477c-3.81,0-6.899-3.089-6.899-6.899s3.089-6.899,6.899-6.899h41.477c3.81,0,6.899,3.089,6.899,6.899
			S3038.646,668.343,3034.836,668.343z M2951.881,668.343h-41.477c-3.81,0-6.899-3.089-6.899-6.899s3.089-6.899,6.899-6.899h41.477
			c3.81,0,6.899,3.089,6.899,6.899S2955.691,668.343,2951.881,668.343z M2868.927,668.343h-41.477c-3.81,0-6.899-3.089-6.899-6.899
			s3.089-6.899,6.899-6.899h41.477c3.81,0,6.899,3.089,6.899,6.899S2872.737,668.343,2868.927,668.343z M2785.975,668.343h-41.477
			c-3.81,0-6.899-3.089-6.899-6.899s3.089-6.899,6.899-6.899h41.477c3.81,0,6.899,3.089,6.899,6.899
			S2789.784,668.343,2785.975,668.343z M2703.02,668.343h-41.477c-3.81,0-6.899-3.089-6.899-6.899s3.089-6.899,6.899-6.899h41.477
			c3.81,0,6.899,3.089,6.899,6.899S2706.83,668.343,2703.02,668.343z M2620.066,668.343h-41.477c-3.81,0-6.899-3.089-6.899-6.899
			s3.089-6.899,6.899-6.899h41.477c3.81,0,6.899,3.089,6.899,6.899S2623.876,668.343,2620.066,668.343z M2537.112,668.343h-41.477
			c-3.81,0-6.899-3.089-6.899-6.899s3.089-6.899,6.899-6.899h41.477c3.81,0,6.899,3.089,6.899,6.899
			S2540.922,668.343,2537.112,668.343z M2454.159,668.343h-41.477c-3.81,0-6.899-3.089-6.899-6.899s3.089-6.899,6.899-6.899h41.477
			c3.81,0,6.899,3.089,6.899,6.899S2457.969,668.343,2454.159,668.343z M2371.205,668.343h-41.477c-3.81,0-6.899-3.089-6.899-6.899
			s3.089-6.899,6.899-6.899h41.477c3.81,0,6.899,3.089,6.899,6.899S2375.015,668.343,2371.205,668.343z M2288.25,668.343h-41.477
			c-3.81,0-6.899-3.089-6.899-6.899s3.089-6.899,6.899-6.899h41.477c3.81,0,6.899,3.089,6.899,6.899
			S2292.061,668.343,2288.25,668.343z M2205.298,668.343h-41.477c-3.81,0-6.899-3.089-6.899-6.899s3.089-6.899,6.899-6.899h41.477
			c3.81,0,6.899,3.089,6.899,6.899S2209.108,668.343,2205.298,668.343z M2122.344,668.343h-41.477c-3.81,0-6.899-3.089-6.899-6.899
			s3.089-6.899,6.899-6.899h41.477c3.81,0,6.899,3.089,6.899,6.899S2126.154,668.343,2122.344,668.343z M2039.389,668.343h-41.477
			c-3.81,0-6.899-3.089-6.899-6.899s3.089-6.899,6.899-6.899h41.477c3.81,0,6.899,3.089,6.899,6.899
			S2043.199,668.343,2039.389,668.343z"/>
		<g>
			<ellipse style="fill:#FFFFFF;" cx="1438.343" cy="2795.505" rx="212.576" ry="86.758"/>
			
				<linearGradient id="SVGID_00000113316289794334657020000012973020677396608702_" gradientUnits="userSpaceOnUse" x1="1306.8171" y1="2582.6924" x2="1521.4723" y2="2910.9888">
				<stop  offset="0.0036" style="stop-color:#26264F"/>
				<stop  offset="1" style="stop-color:#444B8C"/>
			</linearGradient>
			<path style="fill:url(#SVGID_00000113316289794334657020000012973020677396608702_);" d="M1225.767,2785.333
				c0,45.23,95.173,81.896,212.576,81.896c117.402,0,212.576-36.666,212.576-81.896c0-45.23-95.174-119.237-212.576-119.237
				C1320.94,2666.095,1225.767,2740.102,1225.767,2785.333z"/>
			<path style="opacity:0.3;fill:#EBEFF2;" d="M1225.767,2785.331c0-45.229,95.173-119.236,212.576-119.236
				c54.208,0,103.648,15.793,141.198,37.229c2.629,5.506,3.854,10.981,3.356,16.179c-2.438,25.448-43.943,41.093-67.767,46.253
				c-59.994,12.995-89.292-22.88-138.76-21.513c-30.582,0.844-72.962,16.208-123.229,81.276
				C1235.742,2813.646,1225.767,2799.941,1225.767,2785.331z"/>
			
				<linearGradient id="SVGID_00000087404635602652639160000017979828871644881805_" gradientUnits="userSpaceOnUse" x1="1414.708" y1="2614.175" x2="1461.9768" y2="2614.175">
				<stop  offset="0.0036" style="stop-color:#26264F"/>
				<stop  offset="1" style="stop-color:#444B8C"/>
			</linearGradient>
			<path style="fill:url(#SVGID_00000087404635602652639160000017979828871644881805_);" d="M1426.699,2722.775
				c8.492,2.115,16.417,2.032,23.874,0.137c6.762-1.717,11.404-7.975,11.404-14.952v-203.958h-47.269v203.673
				C1414.708,2714.869,1419.719,2721.038,1426.699,2722.775z"/>
			<g>
				
					<linearGradient id="SVGID_00000085220981090983351500000012477343534308924567_" gradientUnits="userSpaceOnUse" x1="-871.0994" y1="2606.9636" x2="-1004.6099" y2="2432.9951" gradientTransform="matrix(-1 0 0 1 230.2854 0)">
					<stop  offset="0" style="stop-color:#311944"/>
					<stop  offset="1" style="stop-color:#A03976"/>
				</linearGradient>
				<path style="fill:url(#SVGID_00000085220981090983351500000012477343534308924567_);" d="M1688.107,2444.408l-72.211-45.648
					c-3.004-17.054,8.172-465.476-130.018-521.494c-56.196-22.782-203.031,4.751-236.219,6.233
					c-66.252,2.961-113.512,5.072-136.241,36.675c-29.187,40.582,60.907,322.583,50.771,438.665
					c-4.133,47.336-14.644,68.359-1.551,99.718c15.684,37.565,52.057,58.388,80.338,70.109
					c33.805,19.631,92.668,47.605,170.412,54.419c130.952,11.476,228.715-44.698,262.334-66.192
					c14.951-4.713,26.182-17.144,29.361-32.494C1708.305,2468.834,1701.542,2452.901,1688.107,2444.408z"/>
				
					<linearGradient id="SVGID_00000166635329103032507900000001007551772101366192_" gradientUnits="userSpaceOnUse" x1="1133.7844" y1="2184.3521" x2="1502.3301" y2="2192.364">
					<stop  offset="0" style="stop-color:#311944"/>
					<stop  offset="1" style="stop-color:#A03976"/>
				</linearGradient>
				<path style="fill:url(#SVGID_00000166635329103032507900000001007551772101366192_);" d="M1235.099,1893.036
					c-49.002,1.452-79.453,0.881-96.295,22.76c-17.678,22.966,41.331,287.74,44.643,369.509
					c3.02,74.543-10.125,104.018,13.966,145.33c0,0,12.241,20.992,31.565,36.76c68.29,55.722,244.48,55.048,318.635-61.285
					c59.161-92.809-6.648-474.81-76.159-520.077C1437.401,1863.855,1429.584,1887.275,1235.099,1893.036z"/>
				
					<linearGradient id="SVGID_00000004547405523587121040000007218210521525874072_" gradientUnits="userSpaceOnUse" x1="-1233.254" y1="2423.4646" x2="-1234.9535" y2="2567.9214" gradientTransform="matrix(-1 0 0 1 230.2854 0)">
					<stop  offset="0" style="stop-color:#311944"/>
					<stop  offset="1" style="stop-color:#A03976"/>
				</linearGradient>
				<path style="fill:url(#SVGID_00000004547405523587121040000007218210521525874072_);" d="M1693.359,2403.414l-72.211-45.65
					c0,0-193.423-63.591-372.385,26.071c-20.041,10.041-32.51,30.772-32.51,53.188c0,17.198,10.331,32.715,26.199,39.35
					c31.219,21.315,92.169,56.507,176.188,65.717c133.572,14.643,232.955-46.522,262.334-66.191
					c14.951-4.714,26.183-17.144,29.362-32.495C1713.557,2427.839,1706.795,2411.905,1693.359,2403.414z"/>
			</g>
		</g>
		<g>
			
				<linearGradient id="SVGID_00000160171834639142566770000012009291575795417262_" gradientUnits="userSpaceOnUse" x1="1802.071" y1="2439.9441" x2="1706.6644" y2="2099.4731">
				<stop  offset="0" style="stop-color:#AA80F9"/>
				<stop  offset="0.9964" style="stop-color:#6165D7"/>
			</linearGradient>
			<path style="fill:url(#SVGID_00000160171834639142566770000012009291575795417262_);" d="M1721.651,2276.985l-5.243,15.513
				c-2.649,7.838,3.117,15.981,11.391,16.084l77.252,0.965c4.778,0.06,7.156-5.725,3.74-9.066
				c-9.915-9.694-31.323-24.515-73.521-31.609C1729.354,2267.878,1723.571,2271.303,1721.651,2276.985z"/>
			
				<linearGradient id="SVGID_00000014591869695270201580000006404567828618065573_" gradientUnits="userSpaceOnUse" x1="1743.0571" y1="2331.0847" x2="1784.2134" y2="1883.9813">
				<stop  offset="0" style="stop-color:#FFC444"/>
				<stop  offset="0.9964" style="stop-color:#F36F56"/>
			</linearGradient>
			<path style="fill:url(#SVGID_00000014591869695270201580000006404567828618065573_);" d="M1742.575,2241.614l-12.234,32.268
				c0,0,3.984,6.689,21.12,5.027l17.136-29.931L1742.575,2241.614z"/>
			
				<linearGradient id="SVGID_00000022545453263617437750000013408287022712471936_" gradientUnits="userSpaceOnUse" x1="1992.1492" y1="2244.2954" x2="1632.9692" y2="1812.1571">
				<stop  offset="0" style="stop-color:#444B8C"/>
				<stop  offset="0.9964" style="stop-color:#26264F"/>
			</linearGradient>
			<path style="fill:url(#SVGID_00000022545453263617437750000013408287022712471936_);" d="M1630.799,1758.379
				c74.329-55.84,177.97-0.578,213.263,18.24c29.332,15.64,82.182,43.82,101.019,101.019c10.486,31.842,8.975,68.252-21.046,141.708
				c-24.031,58.802-69.019,147.918-155.439,243.501c-13.195-3.532-26.389-7.063-39.584-10.595
				c4.934-122.723,36.848-201.613,65.97-251.577c15.657-26.862,43.407-67.492,29.437-86.557
				c-9.147-12.483-33.018-13.593-77.167-2.806c-39.324,9.608-92.678,22.126-165.56,37.882
				C1560.606,1873.311,1579.992,1796.548,1630.799,1758.379z"/>
			
				<linearGradient id="SVGID_00000166650560472950067390000005280011487308353191_" gradientUnits="userSpaceOnUse" x1="1573.2853" y1="2007.259" x2="1881.4014" y2="2007.259">
				<stop  offset="0" style="stop-color:#444B8C"/>
				<stop  offset="0.9964" style="stop-color:#26264F"/>
			</linearGradient>
			<path style="opacity:0.3;fill:url(#SVGID_00000166650560472950067390000005280011487308353191_);" d="M1782.328,2110.076
				c28.167-42.947,68.39-66.626,87.924-134.692c4.56-15.889,26.446-92.148-7.484-121.598c-36.26-31.473-97.849,23.857-159.011-1.871
				c-37.278-15.68-58.626-54.842-71.349-94.701c-0.537,0.389-1.077,0.764-1.61,1.164c-50.807,38.169-70.193,114.932-49.107,190.814
				c72.882-15.756,126.236-28.275,165.56-37.882c44.149-10.787,68.02-9.677,77.167,2.806c13.97,19.065-13.78,59.696-29.437,86.557
				c-29.122,49.964-61.036,128.854-65.97,251.577c6.292,1.684,12.582,3.368,18.874,5.052
				C1744.787,2186.784,1762.12,2140.888,1782.328,2110.076z"/>
			
				<linearGradient id="SVGID_00000140715109051104760100000017471996084571643273_" gradientUnits="userSpaceOnUse" x1="1178.9172" y1="982.089" x2="1156.9927" y2="1268.6729">
				<stop  offset="0" style="stop-color:#AB316D"/>
				<stop  offset="1" style="stop-color:#792D3D"/>
			</linearGradient>
			<path style="fill:url(#SVGID_00000140715109051104760100000017471996084571643273_);" d="M1216.077,1052.492
				c0,0-0.214-0.611-0.59-1.735c-2.453-7.336-11.766-36.507-12.937-59.889c-1.033-20.64-5.406,4.573-7.399,17.534
				c-0.49,3.183-3.64,2.483-6.798,3.109c-6.728,1.333-12.868-2.805-21.452-7.671c-9.956-5.645-21.111-16.647-25.289-17.046
				c-10.1-0.963-7.451,19.28,6.343,27.757c40.541,24.913,56.873,48.512,56.873,48.512l11.035-11.181L1216.077,1052.492z"/>
			
				<linearGradient id="SVGID_00000036947284356319997320000003545342394814661821_" gradientUnits="userSpaceOnUse" x1="1405.0669" y1="2551.1931" x2="1309.6599" y2="2210.7202">
				<stop  offset="0" style="stop-color:#AA80F9"/>
				<stop  offset="0.9964" style="stop-color:#6165D7"/>
			</linearGradient>
			<path style="fill:url(#SVGID_00000036947284356319997320000003545342394814661821_);" d="M1344.095,2457.638l-5.243,15.513
				c-2.649,7.838,3.117,15.981,11.39,16.084l77.252,0.965c4.778,0.06,7.156-5.726,3.74-9.066
				c-9.915-9.694-31.323-24.515-73.521-31.609C1351.798,2448.531,1346.016,2451.956,1344.095,2457.638z"/>
			
				<linearGradient id="SVGID_00000146496598526457628520000007678904100111893431_" gradientUnits="userSpaceOnUse" x1="1378.781" y1="2297.5537" x2="1419.9371" y2="1850.451">
				<stop  offset="0" style="stop-color:#FFC444"/>
				<stop  offset="0.9964" style="stop-color:#F36F56"/>
			</linearGradient>
			<path style="fill:url(#SVGID_00000146496598526457628520000007678904100111893431_);" d="M1354,2424.491l-4.069,34.268
				c0,0,5.483,5.527,21.709-0.228l9.39-33.187L1354,2424.491z"/>
			
				<linearGradient id="SVGID_00000105426649573774419360000002688132426407465347_" gradientUnits="userSpaceOnUse" x1="1337.8672" y1="2040.2452" x2="1754.4061" y2="2040.2452">
				<stop  offset="0" style="stop-color:#444B8C"/>
				<stop  offset="0.9964" style="stop-color:#26264F"/>
			</linearGradient>
			<path style="fill:url(#SVGID_00000105426649573774419360000002688132426407465347_);" d="M1519.507,1660.943
				c-18.186,33.535-43.248,87.415-57.074,157.3c-20.832,105.293,5.237,138.775-21.217,232.544
				c-22.54,79.899-50.115,86.243-77.932,167.792c-28.739,84.254-27.832,161.115-22.449,213.263
				c17.483,2.266,34.965,4.531,52.449,6.797c72.268-128.993,123.83-236.541,157.792-311.54
				c85.935-189.77,69.373-193.619,130.233-299.502c49.335-85.832,85.291-126.923,69.217-157.141
				C1727.25,1626.699,1613.749,1641.205,1519.507,1660.943z"/>
			
				<linearGradient id="SVGID_00000070093563508459056600000008920992630053302967_" gradientUnits="userSpaceOnUse" x1="2156.9939" y1="1041.1136" x2="2130.8035" y2="1383.4569">
				<stop  offset="0" style="stop-color:#AB316D"/>
				<stop  offset="1" style="stop-color:#792D3D"/>
			</linearGradient>
			<path style="fill:url(#SVGID_00000070093563508459056600000008920992630053302967_);" d="M2115.406,1047.761
				c0,0,26.438-32.996,28.726-44.221c2.287-11.224,7.374-32.059,14.651-32.866c7.278-0.807,38.356-0.904,43.161,8.264
				c4.805,9.168-18.397,32.318-32.402,37.229c-14.004,4.911-37.155,42.685-37.155,42.685L2115.406,1047.761z"/>
			
				<linearGradient id="SVGID_00000101089707107163229440000007679510485475135362_" gradientUnits="userSpaceOnUse" x1="2197.668" y1="889.1091" x2="2175.2195" y2="1106.1135">
				<stop  offset="0" style="stop-color:#AA80F9"/>
				<stop  offset="0.9964" style="stop-color:#6165D7"/>
			</linearGradient>
			<path style="fill:url(#SVGID_00000101089707107163229440000007679510485475135362_);" d="M2168.694,1022.914v-77.6
				c0,0,26.522-11.926,46.319,0l-16.339,79.974C2198.675,1025.288,2186.39,1028.111,2168.694,1022.914z"/>
			
				<linearGradient id="SVGID_00000122691266914882370320000018356784121895799966_" gradientUnits="userSpaceOnUse" x1="2168.0659" y1="1041.9611" x2="2141.8755" y2="1384.3058">
				<stop  offset="0" style="stop-color:#AB316D"/>
				<stop  offset="1" style="stop-color:#792D3D"/>
			</linearGradient>
			<path style="fill:url(#SVGID_00000122691266914882370320000018356784121895799966_);" d="M2156.867,983.034
				c0,0,13.618-8.363,26.931-12.7s-1.602,11.847-6.513,16.914c-4.911,5.067-18.289,16.292-18.289,16.292L2156.867,983.034z"/>
			
				<linearGradient id="SVGID_00000170280094173167309670000003703911495563881099_" gradientUnits="userSpaceOnUse" x1="1194.8667" y1="1444.9088" x2="2152.6914" y2="1444.9088">
				<stop  offset="0" style="stop-color:#FFC444"/>
				<stop  offset="0.9964" style="stop-color:#F36F56"/>
			</linearGradient>
			<path style="fill:url(#SVGID_00000170280094173167309670000003703911495563881099_);" d="M1228.456,1036.766
				c41.416,48.198,124.408,130.74,255.256,179.508c52.784,19.673,222.232,82.827,406.857,5.291
				c127.014-53.341,198.364-146.873,228.503-192.489c10.751,5.051,21.505,10.102,32.256,15.153
				c4.278,53.664,0.574,125.818-42.091,186.605c-60.153,85.703-135.638,60.317-202.865,134.428
				c-103.647,114.261,1.905,256.047-98.79,353.832c-59.549,57.828-92.919,4.801-249.742,85.586
				c-59.325,30.56-114.094,68.822-176.784,51.913c-11.474-3.095-37.685-10.165-50.51-32.27
				c-21.472-37.008,11.94-86.233,46.829-157.81c57.575-118.119,97.627-200.285,73.205-267.145
				c-19.869-54.395-65.668-52.824-133.595-118.091c-73.156-70.29-105.907-154.622-122.12-214.21
				C1206.064,1056.966,1217.26,1046.866,1228.456,1036.766z"/>
			
				<linearGradient id="SVGID_00000133507679256929205900000000437531575391625350_" gradientUnits="userSpaceOnUse" x1="1194.8667" y1="1459.5225" x2="1593.6814" y2="1459.5225">
				<stop  offset="0" style="stop-color:#FFC444"/>
				<stop  offset="0.9964" style="stop-color:#F36F56"/>
			</linearGradient>
			<path style="opacity:0.3;fill:url(#SVGID_00000133507679256929205900000000437531575391625350_);" d="M1459.627,1742.946
				c9.167-155.169,163.404-254.17,129.08-312.879c-19.528-33.402-74.268-9.588-118.39-59.778
				c-33.285-37.863-12.445-63.147-38.751-109.99c-45.7-81.379-138.886-59.002-197.829-138.901
				c-10.176-13.793-21.764-33.946-29.158-63.091c-3.236,2.921-6.474,5.841-9.712,8.761c16.213,59.588,48.964,143.919,122.12,214.21
				c67.927,65.267,113.726,63.696,133.595,118.091c24.422,66.86-15.63,149.026-73.205,267.145
				c-34.89,71.577-68.301,120.802-46.829,157.81c12.825,22.105,39.036,29.175,50.51,32.27c32.877,8.869,63.574,2.551,93.894-9.861
				C1464.596,1817.133,1457.327,1781.885,1459.627,1742.946z"/>
			
				<linearGradient id="SVGID_00000079477667006226043500000001793046322859511463_" gradientUnits="userSpaceOnUse" x1="1691.9204" y1="1336.5165" x2="1659.183" y2="1133.5427">
				<stop  offset="0" style="stop-color:#AB316D"/>
				<stop  offset="1" style="stop-color:#792D3D"/>
			</linearGradient>
			<path style="fill:url(#SVGID_00000079477667006226043500000001793046322859511463_);" d="M1687.241,1174.623
				c0,0-18.464,76.1-50.285,76.254c-31.822,0.153-31.822,0.153-31.822,0.153l95.407,54.31l52.102-44.93l-39.735-12.503l2.213-55.02
				L1687.241,1174.623z"/>
			
				<linearGradient id="SVGID_00000176743944301004374050000008224511654558929083_" gradientUnits="userSpaceOnUse" x1="1665.9021" y1="1121.5701" x2="1538.6927" y2="983.1364">
				<stop  offset="0" style="stop-color:#AB316D"/>
				<stop  offset="1" style="stop-color:#792D3D"/>
			</linearGradient>
			<path style="fill:url(#SVGID_00000176743944301004374050000008224511654558929083_);" d="M1726.636,1122.222
				c0,0,6.15,7.959,9.083,31.22c2.934,23.262-7.358,68.848-11.983,71.907c-4.625,3.059-33.057,2.864-45.239-32.462l-20.201-36.601
				L1726.636,1122.222z"/>
			
				<linearGradient id="SVGID_00000002344412060263659390000012091606551901088427_" gradientUnits="userSpaceOnUse" x1="1749.2526" y1="1006.9975" x2="1532.2484" y2="1368.0476">
				<stop  offset="0" style="stop-color:#444B8C"/>
				<stop  offset="0.9964" style="stop-color:#26264F"/>
			</linearGradient>
			<path style="fill:url(#SVGID_00000002344412060263659390000012091606551901088427_);" d="M1687.416,1186.035
				c3.742-5.55-10.039-14.639-6.483-25.459c2.21-6.725,9.139-8.094,34.106-19.88c22.319-10.536,25.774-13.687,26.096-17.397
				c0.801-9.224-18.16-17.306-16.988-19.578c1.428-2.768,27.924,12.414,33.806,5.928c4.065-4.482-1.221-19.853-11.951-28.383
				c-6.318-5.023-15.327-8.312-68.3-0.935c-36.632,5.101-43.141,8.18-48.965,13.633c-10.592,9.918-19.428,28.165-13.445,39.586
				c6.918,13.205,29.868,10.075,33.272,22.901c1.739,6.553-3.714,9.392-1.901,15.938
				C1650.627,1186.706,1682.361,1193.532,1687.416,1186.035z"/>
			
				<linearGradient id="SVGID_00000180327791228537574850000009277274252334480257_" gradientUnits="userSpaceOnUse" x1="1640.2" y1="1145.1885" x2="1512.9904" y2="1006.7546">
				<stop  offset="0" style="stop-color:#AB316D"/>
				<stop  offset="1" style="stop-color:#792D3D"/>
			</linearGradient>
			<path style="fill:url(#SVGID_00000180327791228537574850000009277274252334480257_);" d="M1685.531,1192.887l-10.316-20.296
				c0,0-16.667-6.284-14.861,2.033C1662.16,1182.94,1672.769,1191.351,1685.531,1192.887z"/>
			
				<linearGradient id="SVGID_00000082344903697068291770000014953241149920917140_" gradientUnits="userSpaceOnUse" x1="1720.3284" y1="1161.2303" x2="1864.7599" y2="1161.2303">
				<stop  offset="0.0036" style="stop-color:#E38DDD"/>
				<stop  offset="1" style="stop-color:#9571F6"/>
			</linearGradient>
			<path style="fill:url(#SVGID_00000082344903697068291770000014953241149920917140_);" d="M1723.31,1193.006
				c21.215-2.722,42.461-6.126,63.387-10.553c10.45-2.255,20.865-4.759,30.914-8.088c10.01-3.373,19.877-7.551,28.574-13.27
				c4.276-2.906,8.286-6.259,11.095-10.29c1.28-2.044,2.437-4.196,2.732-6.47c0.314-1.124,0.161-2.26,0.176-3.396
				c-0.046-0.565-0.234-1.118-0.335-1.68c-0.096-0.565-0.229-1.125-0.504-1.655l-0.68-1.625c-0.278-0.525-0.639-1.022-0.951-1.537
				c-0.628-1.055-1.316-1.981-2.171-2.776c-1.663-1.629-3.74-2.881-6.041-3.642c-4.591-1.555-9.861-1.488-14.565,0.031
				c-4.68,1.445-8.997,4.667-10.183,9.06c-1.186,4.336,1.043,9.491,4.207,13.076c1.62,1.755,3.646,2.984,5.879,3.329
				c2.226,0.313,4.601-0.216,6.642-1.415c2.021-1.192,3.792-3.012,4.604-5.064c0.828-2.078,0.398-4.044-1.439-5.23
				c-0.722-0.466-0.93-1.429-0.464-2.151c0.465-0.722,1.428-0.93,2.15-0.464l0.002,0.001l0.037,0.024
				c1.346,0.872,2.594,2.283,3.048,4.014c0.481,1.714,0.236,3.469-0.32,4.949c-1.16,2.981-3.361,5.209-5.915,6.789
				c-2.57,1.558-5.707,2.36-8.831,1.961c-3.135-0.424-5.947-2.133-7.988-4.303c-2.065-2.201-3.507-4.674-4.597-7.438
				c-1.043-2.763-1.448-5.973-0.682-9.031c0.797-3.043,2.627-5.724,4.917-7.648c2.269-1.978,4.919-3.352,7.671-4.271
				c5.5-1.84,11.524-2.045,17.173-0.24c2.817,0.892,5.504,2.423,7.714,4.528c1.127,1.027,2.079,2.266,2.846,3.505
				c0.395,0.628,0.828,1.227,1.185,1.883l0.917,2.08c0.343,0.677,0.544,1.417,0.699,2.179c0.158,0.755,0.39,1.499,0.467,2.266
				c0.049,1.55,0.207,3.121-0.153,4.633c-0.401,3.099-1.814,5.833-3.347,8.328c-3.302,4.871-7.685,8.554-12.229,11.75
				c-18.556,12.373-40.031,18.073-60.998,22.977c-21.12,4.775-42.36,8.483-63.792,11.539c-1.837,0.262-3.54-1.015-3.802-2.853
				c-0.261-1.838,1.016-3.54,2.854-3.802c0.01-0.001,0.019-0.003,0.029-0.004L1723.31,1193.006z"/>
			
				<linearGradient id="SVGID_00000134967734256675931310000016447728671486884272_" gradientUnits="userSpaceOnUse" x1="1717.9376" y1="1194.0818" x2="1738.6959" y2="1194.0818">
				<stop  offset="0" style="stop-color:#AA80F9"/>
				<stop  offset="0.9964" style="stop-color:#6165D7"/>
			</linearGradient>
			<path style="fill:url(#SVGID_00000134967734256675931310000016447728671486884272_);" d="M1736.563,1187.826l-17.381,4.723
				c-0.734,0.2-1.245,0.867-1.245,1.629v4.534c0,0.932,0.756,1.688,1.688,1.688h15.266c0.786,0,1.469-0.544,1.644-1.312l2.116-9.257
				C1738.937,1188.588,1737.794,1187.491,1736.563,1187.826z"/>
			
				<linearGradient id="SVGID_00000083804115452684445860000015216149706829384340_" gradientUnits="userSpaceOnUse" x1="1671.6899" y1="971.655" x2="1648.6548" y2="1194.3298">
				<stop  offset="0" style="stop-color:#FF9085"/>
				<stop  offset="1" style="stop-color:#FB6FBB"/>
			</linearGradient>
			<path style="fill:url(#SVGID_00000083804115452684445860000015216149706829384340_);" d="M1689.515,1079.782l-51.178-58.481
				c-1.818-2.077-5.23-0.588-4.942,2.157l8.036,76.828c0.759,7.258,7.578,12.386,14.732,10.942
				c9.044-1.826,21.15-5.562,31.373-13.191C1693.382,1093.675,1694.32,1085.272,1689.515,1079.782z"/>
		</g>
		<g>
			
				<linearGradient id="SVGID_00000020358257687360660200000006644570320303745184_" gradientUnits="userSpaceOnUse" x1="2893.4016" y1="2647.2" x2="3154.1787" y2="2734.8562">
				<stop  offset="0" style="stop-color:#AB316D"/>
				<stop  offset="1" style="stop-color:#792D3D"/>
			</linearGradient>
			<path style="fill:url(#SVGID_00000020358257687360660200000006644570320303745184_);" d="M3038.596,2812.567
				c-1.044,9.032-5.434,16.308-11.216,18.584c-14.443,5.684-33.132,7.831-54.981,7.858c-22.185,0.027-41.125-2.227-55.684-7.995
				c-5.604-2.22-9.905-9.139-11.099-17.841l-38.737-282.321h204.266L3038.596,2812.567z"/>
			
				<linearGradient id="SVGID_00000030483681193718463340000002319989511429123227_" gradientUnits="userSpaceOnUse" x1="3010.9705" y1="2443.1223" x2="2906.1436" y2="2662.3054">
				<stop  offset="0" style="stop-color:#FFC444"/>
				<stop  offset="0.9964" style="stop-color:#F36F56"/>
			</linearGradient>
			<path style="fill:url(#SVGID_00000030483681193718463340000002319989511429123227_);" d="M3071.146,2530.852
				c0,8.674-45.727,15.706-102.133,15.706c-56.406,0-102.133-7.031-102.133-15.706c0-8.674,45.727-15.706,102.133-15.706
				C3025.419,2515.146,3071.146,2522.178,3071.146,2530.852z"/>
			
				<linearGradient id="SVGID_00000167386514644001429290000013508111449968662681_" gradientUnits="userSpaceOnUse" x1="3199.0405" y1="1513.6071" x2="3008.4473" y2="2155.27">
				<stop  offset="0" style="stop-color:#FF9085"/>
				<stop  offset="1" style="stop-color:#FB6FBB"/>
			</linearGradient>
			<path style="fill:url(#SVGID_00000167386514644001429290000013508111449968662681_);" d="M2977.452,2529.766
				c7.431,0,14.861,0,22.292,0c153.107-109.001,181.058-186.948,174.654-239.83c-5.661-46.746-36.897-63.411-83.391-179.475
				c-27.716-69.19-41.574-103.785-40.494-141.356c2.36-82.117,54.377-92.825,82.59-200.123
				c11.246-42.768,29.877-113.628-3.177-182.652c-35.46-74.049-113.683-125.356-133.308-111.163
				c-13.013,9.411-0.155,47.737,12.599,85.751c33.781,100.689,77.355,123.786,81.789,182.652
				c2.739,36.365-12.103,51.272-45.259,120.708c-67.14,140.608-103.429,216.606-88.944,290.655
				c19.812,101.274,117.588,111.95,123.885,200.123C3085.812,2426.773,3026.103,2489.424,2977.452,2529.766z"/>
			
				<linearGradient id="SVGID_00000137820440820582519150000012208884125310975362_" gradientUnits="userSpaceOnUse" x1="2951.8687" y1="1459.3855" x2="2859.7498" y2="2564.8215">
				<stop  offset="0.0036" style="stop-color:#E38DDD"/>
				<stop  offset="1" style="stop-color:#9571F6"/>
			</linearGradient>
			<path style="fill:url(#SVGID_00000137820440820582519150000012208884125310975362_);" d="M2867.86,1444.973
				c-21.255-2.816-67.563,87.354-66.707,184.24c0.831,94.119,45.406,107.868,58.766,204.888
				c16.968,123.219-50.221,135.234-39.707,255.713c9.618,110.211,68.308,128.407,101.65,279.536
				c14.695,66.608,16.644,123.583,15.883,162.004c7.412,0,14.824,0,22.236,0c45.4-94.235,56.856-172.521,58.766-227.124
				c4.882-139.502-50.831-173.281-31.766-309.714c12.673-90.683,42.534-113.316,30.178-189.005
				c-7.619-46.663-26.877-86.504-58.767-152.474c-30.452-62.997-44.981-76.58-63.531-131.827
				C2877.594,1469.787,2878.366,1446.365,2867.86,1444.973z"/>
			
				<linearGradient id="SVGID_00000034811454199023294660000010360353766124502416_" gradientUnits="userSpaceOnUse" x1="2681.5942" y1="2120.6863" x2="2959.2363" y2="2120.6863">
				<stop  offset="0" style="stop-color:#AA80F9"/>
				<stop  offset="0.9964" style="stop-color:#6165D7"/>
			</linearGradient>
			<path style="fill:url(#SVGID_00000034811454199023294660000010360353766124502416_);" d="M2913.921,2528.177
				c2.757-34,1.213-82.29-23.824-128.65c-42.148-78.041-106.448-68.357-158.828-138.18c-55.09-73.438-63.961-190.798-28.589-274.772
				c33.998-80.711,95.026-98.621,95.297-171.534c0.219-58.967-40.435-101.436-34.942-104.826
				c5.652-3.488,51.674,39.643,70.088,103.225c7.198,24.855,10.161,52.781,0,128.663c-15.339,114.551-32.611,129.472-31.969,171.534
				c1.35,88.514,88.508,99.385,133.415,198.534c20.37,44.975,36.769,114.658,12.706,219.182
				C2936.156,2530.296,2925.039,2529.236,2913.921,2528.177z"/>
		</g>
		<g>
			<path style="fill:#B7C0CE;" d="M2089.972,2899.303c-0.101,0-0.204-0.005-0.308-0.012c-2.063-0.16-3.657-1.88-3.657-3.95v-613.99
				c0-2.188,1.774-3.962,3.962-3.962s3.96,1.774,3.96,3.962V2843.9l85.176-549.86c0.333-2.161,2.358-3.648,4.521-3.308
				c2.161,0.335,3.643,2.36,3.308,4.521l-93.05,600.695C2093.582,2897.89,2091.907,2899.303,2089.972,2899.303z"/>
			<g>
				<polygon style="opacity:0.81;fill:#F4F7FA;" points="1052.384,2358.663 2073.189,2280.055 2884.392,2342.706 1857.272,2429.149 
									"/>
				<polygon style="fill:#B7C0CE;" points="1857.272,2429.151 1052.384,2358.661 1052.384,2392.708 1857.272,2463.196 
					2884.392,2376.752 2884.392,2342.706 				"/>
			</g>
			<path style="fill:#B7C0CE;" d="M1850.326,3108.811c-1.966,0-3.653-1.455-3.921-3.429l-88.487-653.285
				c-0.295-2.168,1.224-4.164,3.392-4.457c2.161-0.3,4.164,1.226,4.457,3.392l80.603,595.068v-594.535c0-2.188,1.772-3.96,3.96-3.96
				c2.188,0,3.962,1.772,3.962,3.96v653.286c0,2.083-1.615,3.812-3.696,3.951
				C1850.506,3108.808,1850.415,3108.811,1850.326,3108.811z"/>
			<path style="fill:#B7C0CE;" d="M2873.168,2988.725c-1.964,0-3.652-1.452-3.921-3.426l-82.013-600.165
				c-0.296-2.166,1.221-4.164,3.389-4.46c2.175-0.308,4.164,1.221,4.46,3.389l74.126,542.462v-565.688
				c0-2.188,1.774-3.96,3.962-3.96s3.96,1.772,3.96,3.96v623.926c0,2.083-1.614,3.81-3.69,3.951
				C2873.348,2988.722,2873.258,2988.725,2873.168,2988.725z"/>
			<path style="fill:#B7C0CE;" d="M1062.053,2988.725c-0.098,0-0.194-0.005-0.293-0.012c-2.068-0.151-3.67-1.875-3.67-3.95v-592.056
				c0-2.188,1.772-3.96,3.96-3.96c2.188,0,3.96,1.772,3.96,3.96v537.909l79.203-538.485c0.317-2.164,2.328-3.672,4.494-3.342
				c2.164,0.318,3.66,2.33,3.342,4.494l-87.081,592.056C1065.681,2987.295,1064,2988.724,1062.053,2988.725z"/>
		</g>
		<g>
			<path style="fill:#D8DEE8;" d="M1875.812,2264.433l109.586-342.878c1.728-5.41,7.894-9.323,14.874-9.452l479.828-8.807
				c4.09-0.075,11.187,2.912,13.675,5.494c2.487,2.579,5.878,3.052,4.946,6.39l-89.464,301.727
				c-1.491,5.028-6.834,8.915-13.044,9.484l-511.608,46.888L1875.812,2264.433z"/>
			<path style="fill:#BFC8D6;" d="M1884.606,2273.279l111.13-345.203c1.735-5.393,7.881-9.295,14.837-9.428l478.815-9.11
				c4.081-0.077,7.889,1.373,10.374,3.951c2.483,2.576,3.382,6.005,2.451,9.341l-83.656,299.676
				c-1.441,5.159-6.934,9.153-13.288,9.654L1884.606,2273.279z"/>
			<path style="opacity:0.3;fill:#BFC8D6;" d="M1884.606,2273.279l520.663-41.119c6.354-0.502,11.847-4.496,13.288-9.654
				l25.255-90.469c-158.681,55.478-347.224,49.391-534.165,63.46L1884.606,2273.279z"/>
			<path style="fill:#D8DEE8;" d="M2190.617,2331.03l-19.749,6.817c0,0-103.832-19.498-108.353-22.681
				c-0.719-0.507-3.21-5.335,1.433-6.134c24.506-4.213,113.966-7.315,113.966-7.315l8.193,0.458L2190.617,2331.03z"/>
			<path style="fill:#D8DEE8;" d="M2192.034,2324.965l-19.745,6.806c0,0-103.82-19.552-108.34-22.738
				c-4.525-3.189,115.383-13.379,115.383-13.379l8.186,0.487L2192.034,2324.965z"/>
			<path style="fill:#D8DEE8;" d="M2277.884,2086.485c0,0,50.392,216.775,51.881,229.465c1.374,11.705-122.496,23.186-152.165,24.2
				c-2.474,0.085-5.738-1.622-6.732-2.303c-8.211-0.946,30.209-248.241,30.209-248.241l2.828,0.108L2277.884,2086.485z"/>
			<path style="fill:#BFC8D6;" d="M2277.884,2086.485c0,0,57.3,218.97,58.785,231.649c1.483,12.666-145.781,22.346-158.663,21.915
				c-8.199-0.943,25.898-250.336,25.898-250.336L2277.884,2086.485z"/>
		</g>
		<g>
			
				<linearGradient id="SVGID_00000180368211966777132550000004258640711992521912_" gradientUnits="userSpaceOnUse" x1="2229.8821" y1="1690.163" x2="2244.6089" y2="1776.032">
				<stop  offset="0" style="stop-color:#FFC444"/>
				<stop  offset="0.9964" style="stop-color:#F36F56"/>
			</linearGradient>
			<path style="fill:url(#SVGID_00000180368211966777132550000004258640711992521912_);" d="M2203.99,1724.281
				c4.925-3.953,11.447-10.411,15.186-20.018c4.008-10.296,1.187-14.881,6.213-21.312c6.374-8.156,19.414-11.664,28.359-7.68
				c1.886,0.84,4.182,2.012,5.628,4.454c3.978,6.714-4.851,18.345-11.898,24.538c-5.304,4.661-7.494,4.316-13.115,8.283
				c-5.486,3.871-12.393,10.547-17.947,22.779L2203.99,1724.281z"/>
			
				<linearGradient id="SVGID_00000075159996718869430860000013093088960233724562_" gradientUnits="userSpaceOnUse" x1="2454.5381" y1="1641.584" x2="2491.3679" y2="1706.8257">
				<stop  offset="0" style="stop-color:#FFC444"/>
				<stop  offset="0.9964" style="stop-color:#F36F56"/>
			</linearGradient>
			<path style="fill:url(#SVGID_00000075159996718869430860000013093088960233724562_);" d="M2498.975,1667.934
				c-6.077-1.719-14.602-5.12-21.793-12.506c-7.708-7.917-6.899-13.238-14.035-17.198c-9.051-5.023-22.426-3.165-29.108,3.994
				c-1.409,1.51-3.065,3.485-3.444,6.297c-1.042,7.734,11.625,14.998,20.53,17.95c6.702,2.223,8.584,1.051,15.307,2.509
				c6.562,1.424,15.527,4.876,25.413,13.971L2498.975,1667.934z"/>
			
				<linearGradient id="SVGID_00000010286181297933600100000010758251550570220941_" gradientUnits="userSpaceOnUse" x1="-1368.266" y1="2294.4626" x2="-1252.5912" y2="2968.9338" gradientTransform="matrix(-0.9612 0.2758 0.2758 0.9612 555.5568 -63.5757)">
				<stop  offset="0" style="stop-color:#FF9085"/>
				<stop  offset="1" style="stop-color:#FB6FBB"/>
			</linearGradient>
			<path style="fill:url(#SVGID_00000010286181297933600100000010758251550570220941_);" d="M2470.785,1677.501
				c-3.918,18.651,16.246,35.245,30.792,51.537c29.178,32.681,59.72,90.995,48.507,141.04
				c-6.125,27.336-25.759,56.896-53.484,70.905c-29.84,15.078-47.716,1.361-78.756,19.266c-2.289,1.321-41.544,24.594-42.684,55.999
				c-1.406,38.745,55.558,79.964,104.32,83.118c89.182,5.77,196.638-112.827,191.631-230.51
				c-5.451-128.116-143.11-229.808-182.714-212.567C2482.162,1659.005,2472.991,1667.005,2470.785,1677.501z"/>
			
				<linearGradient id="SVGID_00000055674433022297273200000000107722854293271429_" gradientUnits="userSpaceOnUse" x1="-2597.3125" y1="3180.1199" x2="-2597.3125" y2="2863" gradientTransform="matrix(-0.9994 0.0352 0.0352 0.9994 -265.165 -10.261)">
				<stop  offset="0" style="stop-color:#FFC444"/>
				<stop  offset="0.9964" style="stop-color:#F36F56"/>
			</linearGradient>
			<polygon style="fill:url(#SVGID_00000055674433022297273200000000107722854293271429_);" points="2431.093,3004.109 
				2427.898,3036.566 2443.015,3033.824 2453.175,3003.329 			"/>
			
				<linearGradient id="SVGID_00000095325708913428224500000004133194388525681843_" gradientUnits="userSpaceOnUse" x1="-2626.9146" y1="2570.8352" x2="-2652.7246" y2="3151.561" gradientTransform="matrix(-0.9994 0.0352 0.0352 0.9994 -265.165 -10.261)">
				<stop  offset="0" style="stop-color:#311944"/>
				<stop  offset="1" style="stop-color:#893976"/>
			</linearGradient>
			<path style="fill:url(#SVGID_00000095325708913428224500000004133194388525681843_);" d="M2523.207,2404.364
				c-1.571,57.634-8.76,106.96-17.278,147.227c-9.163,43.318-14.5,50.803-17.36,80.756c-6.217,65.18,14.789,74.511,18.646,148.185
				c4.26,81.35-17.372,146.007-25.875,170.67c-7.435,21.562-15.216,38.974-21.069,51.068c-7.459,6.503-18.863,4.006-30.886,1.561
				c-4.43-73.788-9.953-143.228-14.383-217.015c-14.285-111.003-28.57-222.001-42.855-333.002
				C2422.5,2437.329,2472.854,2420.849,2523.207,2404.364z"/>
			
				<linearGradient id="SVGID_00000179638956505053177030000004289462937655551139_" gradientUnits="userSpaceOnUse" x1="-2626.9146" y1="2570.8352" x2="-2652.7246" y2="3151.5608" gradientTransform="matrix(-0.9994 0.0352 0.0352 0.9994 -265.165 -10.261)">
				<stop  offset="0" style="stop-color:#311944"/>
				<stop  offset="1" style="stop-color:#893976"/>
			</linearGradient>
			<path style="opacity:0.3;fill:url(#SVGID_00000179638956505053177030000004289462937655551139_);" d="M2429.385,3003.831
				c-4.43-73.788-9.953-143.228-14.383-217.015c-14.285-111.003-28.57-222.001-42.855-333.002
				c50.354-16.485,100.707-32.965,151.061-49.45c-0.104,3.816-0.296,7.497-0.447,11.243
				c-70.646,61.35-84.472,109.951-83.782,143.101c0.836,40.206,22.822,60.136,18.527,118.431
				c-3.072,41.681-15.601,49.025-15.596,86.637c0.007,48.433,20.794,75.665,30.919,103.651
				c9.783,27.051,13.267,65.363-5.636,119.856c-2.481,5.627-4.828,10.663-6.921,14.986
				C2452.812,3008.771,2441.408,3006.278,2429.385,3003.831z"/>
			
				<linearGradient id="SVGID_00000053533619560288857580000003288794856308848513_" gradientUnits="userSpaceOnUse" x1="-2571.0964" y1="3181.7566" x2="-2624.1516" y2="3006.8179" gradientTransform="matrix(-0.9994 0.0352 0.0352 0.9994 -265.165 -10.261)">
				<stop  offset="0" style="stop-color:#FF9085"/>
				<stop  offset="1" style="stop-color:#FB6FBB"/>
			</linearGradient>
			<path style="fill:url(#SVGID_00000053533619560288857580000003288794856308848513_);" d="M2436.762,3047.637
				c7.156-8.87,13.728-8.22,14.921-14.235c0.939-4.727-2.066-10.434-6.459-12.533c-6.175-2.948-13.47,2.021-15.119,3.142
				c-11.198,7.626-7.857,19.104-18.457,24.339c-2.134,1.055-5.525,2.196-9.053,5.646c-1.497,1.465-5.208,5.094-4.267,7.519
				c1.085,2.804,7.835,2.562,14.251,2.331c7.699-0.276,11.549-0.412,15.203-2.804
				C2432.848,3057.728,2431.239,3054.482,2436.762,3047.637z"/>
			
				<linearGradient id="SVGID_00000062176710362421146350000018233797970332051103_" gradientUnits="userSpaceOnUse" x1="679.6328" y1="3335.2983" x2="679.6328" y2="3054.2371" gradientTransform="matrix(-0.6521 0.7581 0.7581 0.6521 393.3936 112.2658)">
				<stop  offset="0" style="stop-color:#FFC444"/>
				<stop  offset="0.9964" style="stop-color:#F36F56"/>
			</linearGradient>
			<polygon style="fill:url(#SVGID_00000062176710362421146350000018233797970332051103_);" points="2421.565,2769.956 
				2449.835,2781.021 2458.076,2768.054 2435.974,2753.203 			"/>
			
				<linearGradient id="SVGID_00000112628276745595302490000015058863687532263332_" gradientUnits="userSpaceOnUse" x1="699.1732" y1="3345.9246" x2="646.1156" y2="3170.9773" gradientTransform="matrix(-0.6521 0.7581 0.7581 0.6521 393.3936 112.2658)">
				<stop  offset="0" style="stop-color:#FF9085"/>
				<stop  offset="1" style="stop-color:#FB6FBB"/>
			</linearGradient>
			<path style="fill:url(#SVGID_00000112628276745595302490000015058863687532263332_);" d="M2464.726,2787.882
				c-1.662-11.273,3.274-15.661-0.336-20.619c-2.835-3.896-9.068-5.56-13.59-3.757c-6.355,2.538-7.654,11.268-7.949,13.239
				c-1.993,13.401,8.706,18.733,5.362,30.072c-0.673,2.283-2.135,5.55-1.993,10.482c0.061,2.094,0.209,7.281,2.629,8.236
				c2.797,1.104,7.197-4.018,11.38-8.889c5.021-5.843,7.533-8.764,8.254-13.071
				C2469.485,2797.605,2466.009,2796.584,2464.726,2787.882z"/>
			
				<linearGradient id="SVGID_00000116237112384159191100000009564197511459504028_" gradientUnits="userSpaceOnUse" x1="2666.6311" y1="2581.7053" x2="2125.3423" y2="2557.1011">
				<stop  offset="0" style="stop-color:#311944"/>
				<stop  offset="1" style="stop-color:#893976"/>
			</linearGradient>
			<path style="fill:url(#SVGID_00000116237112384159191100000009564197511459504028_);" d="M2299.249,2353.127
				c-52.664,107.388-70.547,196.934-77.311,255.405c-4.35,37.598-3.929,60.852,6.903,84.214
				c38.775,83.631,174.094,89.153,194.66,89.737c6.764-13.855,13.529-27.71,20.293-41.564
				c-12.448-23.091-34.175-55.153-71.374-78.545c-28.609-17.99-39.797-14.142-46.939-26.231
				c-28.659-48.508,126.044-153.566,102.933-223.505C2420.418,2388.444,2389.644,2363.91,2299.249,2353.127z"/>
			
				<linearGradient id="SVGID_00000071533615063646349050000005477800138486241183_" gradientUnits="userSpaceOnUse" x1="2451.5576" y1="1730.9756" x2="2586.1628" y2="2515.825">
				<stop  offset="0" style="stop-color:#FF9085"/>
				<stop  offset="1" style="stop-color:#FB6FBB"/>
			</linearGradient>
			<path style="fill:url(#SVGID_00000071533615063646349050000005477800138486241183_);" d="M2413.372,1967.093
				c-56.91,9.774-100.236,19.947-119.581,49.753c-20.431,31.483,12.053,55.182,20.886,124.255
				c13.525,105.751-47.277,145.255-29.783,251.736c2.854,17.376,7.188,32.846,11.852,46.052c8.202,23.224,24.114,42.77,44.965,55.88
				c15.635,9.83,34.643,19.72,56.949,27.524c57.707,20.186,86.172,8.451,163.813,12.888c126.993,7.256,146.008,44.088,203.381,21.44
				c57.986-22.892,99.955-84.744,87.657-111.176c-7.366-15.828-30.6-5.945-63.922-25.378
				c-42.945-25.045-35.731-59.228-70.574-88.552c-50.048-42.119-98.192,0.416-140.997-36.208
				c-43.301-37.051-48.469-127.147-30.064-180.782c12.022-35.033,12.245-73.13,21.166-109.076c0.743-2.987,1.326-7.75-0.531-13.152
				c-7.097-20.66-44.902-24.625-73.477-27.356C2451.529,1960.776,2418.051,1966.287,2413.372,1967.093z"/>
			
				<linearGradient id="SVGID_00000100352332538394959610000000962105089575163534_" gradientUnits="userSpaceOnUse" x1="5073.6323" y1="2793.842" x2="5335.7153" y2="3332.7729" gradientTransform="matrix(0.9781 -0.2085 0.2085 0.9781 -3305.7224 366.1276)">
				<stop  offset="0" style="stop-color:#FF9085"/>
				<stop  offset="1" style="stop-color:#FB6FBB"/>
			</linearGradient>
			<path style="opacity:0.3;fill:url(#SVGID_00000100352332538394959610000000962105089575163534_);" d="M2759.192,2516.516
				c-17.582-11.716-8.06-44.932-34.101-62.565c-24.17-16.365-43.021,5.038-78.642-5.882c-45.687-14.008-43.298-57.993-87.08-72.032
				c-31.484-10.095-40.982,10.002-86.394,10.87c-45.334,0.868-104.764-17.841-142.397-65.898
				c-15.99-20.42-24.925-42.204-29.788-62.344c-12.123,39.162-25.286,77.021-15.897,134.172c3.8,23.13,10.22,42.881,16.552,58.414
				c5.908,14.491,15.878,26.94,28.723,35.879c17.488,12.17,40.367,25.324,68.49,35.162c57.705,20.187,86.172,8.452,163.813,12.889
				c126.993,7.256,146.008,44.088,203.381,21.44c37.06-14.629,67.493-45.155,81.483-72.196
				C2797.146,2520.933,2771.952,2525.02,2759.192,2516.516z"/>
			
				<linearGradient id="SVGID_00000035506142802588696230000015909523368064239799_" gradientUnits="userSpaceOnUse" x1="-2564.0137" y1="2011.7795" x2="-2624.5408" y2="2109.6912" gradientTransform="matrix(-0.9994 0.0352 0.0352 0.9994 -265.165 -10.261)">
				<stop  offset="0" style="stop-color:#FFC444"/>
				<stop  offset="0.9964" style="stop-color:#F36F56"/>
			</linearGradient>
			<path style="fill:url(#SVGID_00000035506142802588696230000015909523368064239799_);" d="M2380.5,1868.601
				c0,0-15.683,29.44-16.672,50.098c-0.99,20.657,22.324,19.156,22.324,19.156l-0.875,13.031
				c-0.747,11.125-7.968,20.769-18.432,24.617l-9.205,3.384c0,0,60.044,12.855,92.833-10.309l-9.449-0.925
				c-13.379-1.309-23.982-11.868-25.347-25.242l-0.569-5.577C2415.107,1936.834,2425.523,1872.441,2380.5,1868.601z"/>
			
				<linearGradient id="SVGID_00000042702413389644377360000002837754501598643633_" gradientUnits="userSpaceOnUse" x1="2225.1362" y1="1822.8031" x2="2340.8093" y2="2497.2642">
				<stop  offset="0" style="stop-color:#FF9085"/>
				<stop  offset="1" style="stop-color:#FB6FBB"/>
			</linearGradient>
			<path style="fill:url(#SVGID_00000042702413389644377360000002837754501598643633_);" d="M2232.637,1730.148
				c8.91,16.847-5.896,38.358-15.384,58.031c-19.033,39.46-32.308,103.936-7.727,148.948c13.426,24.587,40.451,47.585,70.964,53.405
				c32.842,6.264,46.241-11.852,81.016-3.201c2.565,0.637,46.715,12.181,56.472,42.054c12.038,36.855-31.35,92.185-77.35,108.665
				c-84.132,30.142-220.129-54.22-247.772-168.719c-30.094-124.651,74.18-260.364,117.003-254.714
				C2216.6,1715.507,2227.623,1720.666,2232.637,1730.148z"/>
			
				<linearGradient id="SVGID_00000105388570012624680390000000774906554089767810_" gradientUnits="userSpaceOnUse" x1="-2900.179" y1="2421.8838" x2="-2655.4812" y2="1899.0254" gradientTransform="matrix(-0.9994 0.0352 0.0352 0.9994 -265.165 -10.261)">
				<stop  offset="0" style="stop-color:#444B8C"/>
				<stop  offset="0.9964" style="stop-color:#26264F"/>
			</linearGradient>
			<path style="fill:url(#SVGID_00000105388570012624680390000000774906554089767810_);" d="M2389.882,1897.877
				c3.104-0.257,5.667-4.193,7.792-3.024c2.231,1.224,1.983,6.963,0.045,10.991c-1.591,3.301-4.184,5.167-5.626,6.037
				c2.397,3.316,5.449,8.471,6.72,15.219c2.813,14.924-5.121,26.927-8.419,33.951c-14.871,31.663,8.264,81.722,33.656,107.002
				c20.636,20.549,30.264,12.286,42.584,29.069c23.981,32.665-9.118,68.569,3.284,112.534
				c18.858,66.851,124.417,86.738,128.793,87.509c1.724,0.305,2.881,0.495,4.676,0.78c47.353,7.523,119.125,18.925,169.671-19.942
				c37.818-29.078,55.162-79.69,52.297-124.268c-0.753-11.725-4.305-56.238-40.574-92.566c-5.758-5.766-39.846-39.831-85.91-40.244
				c-24.398-0.219-29.318,8.378-47.977,3.062c-25.544-7.277-41.28-30.502-51.042-44.908c-17.955-26.5-10.658-32.158-23.576-45.192
				c-25.313-25.534-55.009-5.482-82.044-28.018c-26.65-22.213-10.573-52.347-36.297-71.574
				c-26.538-19.828-77.3-12.905-88.121,10.709C2360.513,1865.294,2380.368,1898.662,2389.882,1897.877z"/>
			
				<linearGradient id="SVGID_00000127015591896812642070000013871017261886688152_" gradientUnits="userSpaceOnUse" x1="2411.0667" y1="1819.6085" x2="2489.1672" y2="1819.6085">
				<stop  offset="0.0036" style="stop-color:#E38DDD"/>
				<stop  offset="1" style="stop-color:#9571F6"/>
			</linearGradient>
			<path style="fill:url(#SVGID_00000127015591896812642070000013871017261886688152_);" d="M2477.64,1767.687l-61.561,64.553
				c-7.85,8.232-6.266,21.543,3.254,27.771c9.539,6.241,20.932,10.345,30.397,12.95c10.241,2.818,20.721-3.593,22.744-14.02
				l16.56-85.371C2490.303,1767.02,2482.246,1762.859,2477.64,1767.687z"/>
			<g>
				
					<linearGradient id="SVGID_00000085973011917520145750000006238064495819999407_" gradientUnits="userSpaceOnUse" x1="2418.3557" y1="1637.5299" x2="2464.5957" y2="1637.5299">
					<stop  offset="0.0036" style="stop-color:#E38DDD"/>
					<stop  offset="1" style="stop-color:#9571F6"/>
				</linearGradient>
				<path style="fill:url(#SVGID_00000085973011917520145750000006238064495819999407_);" d="M2430.065,1669.34l-11.709-69.859
					l46.24,3.887l-8.082,63.757c-0.251,2.118-1.611,4.031-3.729,5.114c-4.272,2.183-11.923,5.035-18.768,2.064
					C2431.83,1673.352,2430.418,1671.435,2430.065,1669.34z"/>
				
					<linearGradient id="SVGID_00000140729324676019347400000008730137794068553654_" gradientUnits="userSpaceOnUse" x1="2453.0376" y1="1570.592" x2="2445.0024" y2="1592.0192">
					<stop  offset="0.0036" style="stop-color:#E38DDD"/>
					<stop  offset="1" style="stop-color:#9571F6"/>
				</linearGradient>
				<path style="fill:url(#SVGID_00000140729324676019347400000008730137794068553654_);" d="M2464.596,1603.367
					c-0.365,3.255-11.012,5.024-23.781,3.95s-22.824-4.582-22.459-7.837s11.012-5.024,23.781-3.95
					C2454.906,1596.603,2464.96,1600.112,2464.596,1603.367z"/>
			</g>
			
				<linearGradient id="SVGID_00000118377428855444026180000016115812202714848950_" gradientUnits="userSpaceOnUse" x1="3472.7258" y1="1028.7616" x2="3509.5554" y2="1094.0023" gradientTransform="matrix(0.9517 0.3071 -0.3071 0.9517 -538.7822 -403.6187)">
				<stop  offset="0" style="stop-color:#FFC444"/>
				<stop  offset="0.9964" style="stop-color:#F36F56"/>
			</linearGradient>
			<path style="fill:url(#SVGID_00000118377428855444026180000016115812202714848950_);" d="M2461.742,1647.623
				c0,0-10.575,2.853-16.087-5.191c-5.512-8.045-7.711,5.62-0.454,10.542c7.257,4.922,14.469,6.559,14.469,6.559L2461.742,1647.623z
				"/>
		</g>
		<g>
			<g>
				
					<linearGradient id="SVGID_00000122687968436295959580000008569157793954523281_" gradientUnits="userSpaceOnUse" x1="1303.0791" y1="1559.0917" x2="1349.3186" y2="1559.0917">
					<stop  offset="0.0036" style="stop-color:#E38DDD"/>
					<stop  offset="1" style="stop-color:#9571F6"/>
				</linearGradient>
				<path style="fill:url(#SVGID_00000122687968436295959580000008569157793954523281_);" d="M1314.789,1590.902l-11.709-69.859
					l46.24,3.887l-8.082,63.757c-0.251,2.118-1.611,4.031-3.729,5.114c-4.273,2.183-11.924,5.035-18.768,2.064
					C1316.553,1594.914,1315.141,1592.997,1314.789,1590.902z"/>
				
					<linearGradient id="SVGID_00000183946135071237210600000006366190222326378412_" gradientUnits="userSpaceOnUse" x1="1337.7607" y1="1492.1538" x2="1329.7256" y2="1513.5808">
					<stop  offset="0.0036" style="stop-color:#E38DDD"/>
					<stop  offset="1" style="stop-color:#9571F6"/>
				</linearGradient>
				<path style="fill:url(#SVGID_00000183946135071237210600000006366190222326378412_);" d="M1349.319,1524.929
					c-0.365,3.255-11.012,5.024-23.781,3.95c-12.769-1.073-22.824-4.582-22.459-7.837c0.365-3.255,11.012-5.024,23.781-3.95
					C1339.629,1518.165,1349.684,1521.674,1349.319,1524.929z"/>
			</g>
			
				<linearGradient id="SVGID_00000112616239547842518160000005168258684824419467_" gradientUnits="userSpaceOnUse" x1="-356.8432" y1="1555.8447" x2="-306.6699" y2="1671.3231" gradientTransform="matrix(-1 0 0 1 974.0859 0)">
				<stop  offset="0" style="stop-color:#FFC444"/>
				<stop  offset="0.9964" style="stop-color:#F36F56"/>
			</linearGradient>
			<path style="fill:url(#SVGID_00000112616239547842518160000005168258684824419467_);" d="M1292.989,1637.058
				c6.816-63.896,12.555-81.395,17.039-81.384c3.358,0.009,4.476,9.828,11.224,11.224c10.957,2.268,22.099-20.7,26.307-18.59
				c2.817,1.412,1.074,13.334-4.209,24.203c-6.495,13.362-14.399,17.027-20.695,25.255c-6.445,8.423-12.022,22.697-7.973,48.344
				L1292.989,1637.058z"/>
			
				<linearGradient id="SVGID_00000132801401024454828150000005277285926493970839_" gradientUnits="userSpaceOnUse" x1="-201.9071" y1="1640.5647" x2="67.7693" y2="2261.2488" gradientTransform="matrix(-1 0 0 1 974.0859 0)">
				<stop  offset="0.0036" style="stop-color:#E38DDD"/>
				<stop  offset="1" style="stop-color:#9571F6"/>
			</linearGradient>
			<path style="fill:url(#SVGID_00000132801401024454828150000005277285926493970839_);" d="M1330.593,1628.38
				c-13.981-2.411-27.962-4.821-41.943-7.232c-50.039,92.769-108.665,152.398-148.582,187.012
				c-47.17,40.904-77.624,67.312-127.663,80.555c-73.924,19.564-137.78-3.403-146.077,17.356
				c-4.056,10.15,10.016,21.137,32.542,48.09c65.597,78.489,59.397,120.688,95.456,132.337
				c29.794,9.625,59.779-11.079,110.643-47.367c46.271-33.011,104.284-74.4,153.308-153.309
				C1324.034,1779.983,1330.621,1675.849,1330.593,1628.38z"/>
			
				<linearGradient id="SVGID_00000155835832380666492840000009311038207713711489_" gradientUnits="userSpaceOnUse" x1="2811.623" y1="2271.1318" x2="2901.1892" y2="1912.8658" gradientTransform="matrix(-1 0 0 1 3583.1653 0)">
				<stop  offset="0.0036" style="stop-color:#E38DDD"/>
				<stop  offset="1" style="stop-color:#9571F6"/>
			</linearGradient>
			<path style="fill:url(#SVGID_00000155835832380666492840000009311038207713711489_);" d="M714.47,1914.507
				c-6.796,2.569-110.459,43.794-131.767,151.988c-1.721,8.74-18.376,101.696,44.663,167.364
				c70.688,73.635,206.803,71.81,260.831,10.252c12.6-14.356,19.247-30.266,22.97-43.635l0,0l-14.236-37.82
				c-17.369-20.97-41.02-25.939-53.651-29.052c-31.138-7.674-54.647,6.197-72.48-8.82c-9.867-8.307-11.827-20.265-13.579-30.946
				c-5.964-36.381,14.57-58.776,16.065-81.211c1.118-16.772,6.988-53.521-14.903-77.485
				C744.521,1919.967,725.32,1915.835,714.47,1914.507z"/>
			
				<linearGradient id="SVGID_00000000938242541620008610000003065987732395543426_" gradientUnits="userSpaceOnUse" x1="2565.1594" y1="3285.447" x2="2607.6465" y2="3323.2395" gradientTransform="matrix(-0.9902 -0.14 -0.14 0.9902 3686.0081 206.9384)">
				<stop  offset="0" style="stop-color:#444B8C"/>
				<stop  offset="0.9964" style="stop-color:#26264F"/>
			</linearGradient>
			<path style="fill:url(#SVGID_00000000938242541620008610000003065987732395543426_);" d="M674.078,3120.289
				c-1.209-6.66-22.719-12.69-33.369-3.768c-5.289,4.429-8.931,13.409-5.87,17.465c1.113,1.475-3.446,4.071,0.922,4.121
				C650.25,3138.275,675.281,3126.907,674.078,3120.289z"/>
			
				<linearGradient id="SVGID_00000171689079879583664490000005148134406708971418_" gradientUnits="userSpaceOnUse" x1="1680.8199" y1="3323.2937" x2="1680.8199" y2="3249.2776" gradientTransform="matrix(-0.9902 -0.14 -0.14 0.9902 2769.8069 77.4224)">
				<stop  offset="0" style="stop-color:#FFC444"/>
				<stop  offset="0.9964" style="stop-color:#F36F56"/>
			</linearGradient>
			<path style="fill:url(#SVGID_00000171689079879583664490000005148134406708971418_);" d="M651.533,3122.712l-22.122-3.127
				c10.249-12.339,8.351-51.634,8.351-51.634l23.526,5.251c0,0-2.681,10.786-7.241,26.696
				C652.486,3105.345,651.789,3113.868,651.533,3122.712z"/>
			
				<linearGradient id="SVGID_00000083070036456258698840000008178055754503523467_" gradientUnits="userSpaceOnUse" x1="2569.4307" y1="3280.646" x2="2611.9177" y2="3318.4382" gradientTransform="matrix(-0.9902 -0.14 -0.14 0.9902 3686.0081 206.9384)">
				<stop  offset="0" style="stop-color:#444B8C"/>
				<stop  offset="0.9964" style="stop-color:#26264F"/>
			</linearGradient>
			<path style="fill:url(#SVGID_00000083070036456258698840000008178055754503523467_);" d="M653.495,3119.988
				c0,0-26.633-6.137-29.514-0.854c-2.881,5.284-5.118,19.429,11.779,18.972C652.659,3137.65,654.995,3124.468,653.495,3119.988z"/>
			
				<linearGradient id="SVGID_00000072968065680447189380000008163616162681147268_" gradientUnits="userSpaceOnUse" x1="2596.4158" y1="3124.5576" x2="2638.9048" y2="3162.3518" gradientTransform="matrix(-1 0 0 1 3583.1653 0)">
				<stop  offset="0" style="stop-color:#444B8C"/>
				<stop  offset="0.9964" style="stop-color:#26264F"/>
			</linearGradient>
			<path style="fill:url(#SVGID_00000072968065680447189380000008163616162681147268_);" d="M977.613,3145.265
				c-2.13-6.426-24.272-9.385-33.57,0.939c-4.616,5.125-6.965,14.527-3.367,18.113c1.309,1.306-2.842,4.514,1.49,3.953
				C956.536,3166.41,979.729,3151.649,977.613,3145.265z"/>
			
				<linearGradient id="SVGID_00000020389105757757951050000014412358856127580332_" gradientUnits="userSpaceOnUse" x1="1712.033" y1="3162.4272" x2="1712.033" y2="3088.4075" gradientTransform="matrix(-1 0 0 1 2657.855 0)">
				<stop  offset="0" style="stop-color:#FFC444"/>
				<stop  offset="0.9964" style="stop-color:#F36F56"/>
			</linearGradient>
			<path style="fill:url(#SVGID_00000020389105757757951050000014412358856127580332_);" d="M955.628,3150.82h-22.341
				c8.421-13.652,1.041-52.295,1.041-52.295l24.03,1.907c0,0-1.145,11.055-3.433,27.447
				C954.142,3133.49,954.644,3142.028,955.628,3150.82z"/>
			
				<linearGradient id="SVGID_00000173849357121412973020000010721685447100680368_" gradientUnits="userSpaceOnUse" x1="-358.1095" y1="3196.3701" x2="-635.1688" y2="2077.7466" gradientTransform="matrix(1 0 0 1 1307.4181 0)">
				<stop  offset="0" style="stop-color:#444B8C"/>
				<stop  offset="0.9964" style="stop-color:#26264F"/>
			</linearGradient>
			<path style="fill:url(#SVGID_00000173849357121412973020000010721685447100680368_);" d="M1013.529,2305.954
				c10.349,34.177,25.129,89.337,34.643,158.544c27.138,197.4-30.541,203.698-19.77,422.442
				c3.438,69.824-60.492,230.832-66.127,234.387c-2.727,0.264-5.686,0.442-8.841,0.347c-5.561-0.167-13.401-1.02-22.517-3.754
				c-10.127-1.744-46.639-100.639-38.176-159.437c5.989-41.616,4.253-86.278,0.781-175.602
				c-0.563-14.473-37.593-281.59-37.593-281.59l0,0c-11.265,98.871-24.219,182.881-35.449,248.014
				c-36.082,209.262-153.401,335.922-159.521,337.954c-1.209,0.486-12.218,4.484-21.218-1.448c-4.007-2.64-5.369-6.048-5.369-6.048
				c-3.138-2.458,0.925-208.925,36.709-364.31c51.94-225.539,29.323-278.312,45.779-379.052
				C731.098,2249.235,1013.529,2305.954,1013.529,2305.954z"/>
			
				<linearGradient id="SVGID_00000109728575621415507000000008854114775477158312_" gradientUnits="userSpaceOnUse" x1="-124.3073" y1="1575.703" x2="172.746" y2="2259.3977" gradientTransform="matrix(-1 0 0 1 974.0859 0)">
				<stop  offset="0.0036" style="stop-color:#E38DDD"/>
				<stop  offset="1" style="stop-color:#9571F6"/>
			</linearGradient>
			<path style="fill:url(#SVGID_00000109728575621415507000000008854114775477158312_);" d="M803.734,1896.902
				c34.484-1.013,113.746-13.186,157.403,26.096c0.76,0.682-8.184,5.461-3.781,10.621c4.089,4.789,18.112,21.559,30.824,44.228
				c9.209,16.419,17.521,35.557,25.906,64.081c14.79,50.303,19.033,93.137,20.451,111.801c7.98,104.952,0.067,153.373-7.113,186.301
				c-31.178,16.015-111.519,44.672-207.244,30.434c-43.715-6.503-78.702-21.05-103.319-34.036
				c24.838-75.207,5.352-115.451-3.842-152.544c-13.11-52.892-13.321-48.894-24.115-90.909
				c-17.81-69.327-20.732-140.167-8.495-154.664C713.405,1899.225,772.858,1897.812,803.734,1896.902z"/>
			
				<linearGradient id="SVGID_00000011003200078112674880000012546114097525354147_" gradientUnits="userSpaceOnUse" x1="2600.6873" y1="3119.7566" x2="2643.1758" y2="3157.5503" gradientTransform="matrix(-1 0 0 1 3583.1653 0)">
				<stop  offset="0" style="stop-color:#444B8C"/>
				<stop  offset="0.9964" style="stop-color:#26264F"/>
			</linearGradient>
			<path style="fill:url(#SVGID_00000011003200078112674880000012546114097525354147_);" d="M957.189,3147.847
				c0,0-27.23-2.347-29.343,3.287c-2.113,5.634-2.348,19.953,14.319,17.136C958.833,3165.453,959.302,3152.073,957.189,3147.847z"/>
			<g>
				
					<linearGradient id="SVGID_00000085965971325835926140000011296890441763708800_" gradientUnits="userSpaceOnUse" x1="3406.749" y1="1856.2911" x2="3626.8318" y2="2133.1831" gradientTransform="matrix(-0.9663 0.2576 0.2576 0.9663 3718.4268 -923.8408)">
					<stop  offset="0" style="stop-color:#FFC444"/>
					<stop  offset="0.9964" style="stop-color:#F36F56"/>
				</linearGradient>
				<path style="fill:url(#SVGID_00000085965971325835926140000011296890441763708800_);" d="M876.185,1832.283
					c5.67-20.202-4.244-38.91-6.428-42.941c-9.149-16.877-11.492-19.182-15.857-22.105l-6.068-3.743c0,0-0.351-0.141-0.721-0.273
					c-3.894-1.386-17.165-1.789-19.853-1.214c-8.588,1.833-17.733,36.822-15.124,86.288c-0.356,1.885-0.699,3.786-1.031,5.703
					c-1.353,7.812-2.427,15.469-3.258,22.955c-0.795,7.161-5.557,13.264-12.298,15.808c-45.64,17.227-45.549,3.47-50.271,18.295
					c-2.572,8.072,49.257,21.117,74.756,18.168c57.367,0.427,104.033-5.682,99.018-14.715c-2.227-4.01-46.676-15.625-59.176-27.137
					c-11.446-10.541-10.514-21.423-11.455-29.214C851.889,1856.355,872.011,1847.166,876.185,1832.283z"/>
				<path style="fill:#26264F;" d="M865.633,1749.442c-0.051,15.325-7.272,31.691-10.951,34.321c-0.475,0.34-3.148,2.452-5.55,6.064
					c-0.327,0.491-0.616,1.067-0.873,1.811c-3.357,9.657,11.998,21.021,9.034,25.346c-2.15,3.136-12.586-1.058-13.827,1.651
					c-1.169,2.548,7.504,7.828,6.176,10.881c-1.002,2.305-6.339,0.196-9.706,3.728c-1.678,1.759-1.185,3.152-2.963,8.529
					c-1.005,3.04-2.411,6.367-3.501,8.218c-5.297,8.998-20.297,12.285-23.183,8.684c-0.803-1.004-0.113-1.847-0.934-5.214
					c0,0-0.761-3.122-2.932-6.73c-3.102-5.156-10.593-8.843-18.151-14.286c-13.996-10.078-17.8-18.669-18.941-21.572
					c-0.406-1.034-0.659-1.814-0.84-2.377c-3.64-11.295-3.656-27.887,1.422-38.091c8.507-17.093,27.698-8.978,43.405-25.913
					c18.123-19.539,7.33-46.247,17.164-49.197C841.321,1692.042,865.727,1721.105,865.633,1749.442z"/>
				
					<linearGradient id="SVGID_00000016051990406633649070000013453493423563367299_" gradientUnits="userSpaceOnUse" x1="3421.6406" y1="1842.2863" x2="3651.7231" y2="2131.7595" gradientTransform="matrix(-0.9663 0.2576 0.2576 0.9663 3718.4268 -923.8408)">
					<stop  offset="0" style="stop-color:#FFC444"/>
					<stop  offset="0.9964" style="stop-color:#F36F56"/>
				</linearGradient>
				<path style="fill:url(#SVGID_00000016051990406633649070000013453493423563367299_);" d="M851.784,1813.382
					c-3.756-5.161-10.356-0.312-10.394,6.365c-0.039,6.677,6.431,13.62,12.708,12.301
					C860.375,1830.729,856.839,1820.328,851.784,1813.382z"/>
			</g>
			<path style="fill:#9B305E;" d="M727.844,2288.83c-0.037,0-0.074-0.002-0.111-0.007c-0.544-0.061-0.935-0.549-0.874-1.093
				c4.076-36.69-3.522-63.337-10.227-86.848c-1.652-5.796-3.214-11.27-4.575-16.761c-7.442-30.02-10.699-41.612-14.147-53.884
				c-2.247-7.989-4.568-16.25-8.166-30.059c-0.138-0.529,0.18-1.07,0.709-1.208c0.529-0.138,1.07,0.179,1.208,0.709
				c3.593,13.79,5.912,22.041,8.154,30.022c3.455,12.287,6.715,23.892,14.165,53.945c1.351,5.456,2.907,10.915,4.556,16.694
				c6.754,23.685,14.411,50.532,10.29,87.61C728.771,2288.456,728.341,2288.83,727.844,2288.83z"/>
			<path style="fill:#26264F;" d="M848.738,1802.21l8.714,11.335c0,0,9.393,13.887,14.878,6.28c4.48-6.217,5.641-6.078,5.916-5.818
				c0.052,0.05,0.066,0.124,0.078,0.121c0.078-0.021-0.657-3.094-1.318-5.796c2.319,3.33,5.516,8.731,7.452,15.999
				c1.881,7.059,3.896,14.617-0.087,21.878c-0.231,0.419-4.618,8.148-12.81,10.017c0,0-3.221,0.735-16.834-1.658
				c0,0,14.879-10.796,15.107-13.361c0.616-6.975-9.056-10.744-16.238-25.041C850.827,1810.652,849.462,1805.652,848.738,1802.21z"
				/>
			
				<linearGradient id="SVGID_00000004522764864869240310000000928119909044055174_" gradientUnits="userSpaceOnUse" x1="773.2524" y1="1741.1069" x2="740.7272" y2="1815.9666">
				<stop  offset="0" style="stop-color:#FFC444"/>
				<stop  offset="0.9964" style="stop-color:#F36F56"/>
			</linearGradient>
			<path style="fill:url(#SVGID_00000004522764864869240310000000928119909044055174_);" d="M818.188,1751.09l-89.181-28.461
				c-4.916-1.569-8.956,4.086-5.878,8.228l55.977,75.348c1.586,2.135,4.519,2.798,6.84,1.499
				c17.888-10.011,32.692-30.988,35.895-50.736C822.259,1754.382,820.683,1751.886,818.188,1751.09z"/>
		</g>
		
			<linearGradient id="SVGID_00000016058018225748690660000011423499675006445734_" gradientUnits="userSpaceOnUse" x1="1793.2186" y1="2408.3535" x2="1722.947" y2="2157.5796">
			<stop  offset="0" style="stop-color:#AA80F9"/>
			<stop  offset="0.9964" style="stop-color:#6165D7"/>
		</linearGradient>
		<path style="fill:url(#SVGID_00000016058018225748690660000011423499675006445734_);" d="M1729.312,2286.783l-12.904,5.716
			c-2.649,7.838,3.117,15.981,11.391,16.084l77.252,0.965c4.778,0.06,7.156-5.725,3.74-9.066
			c-9.915-9.694-23.015-0.291-65.214-7.385C1737.661,2292.102,1731.232,2281.101,1729.312,2286.783z"/>
	</g>
</g>
</svg>
